<?xml version="1.0" encoding="utf-8"?>
<!-- Generator: Adobe Illustrator 15.1.0, SVG Export Plug-In . SVG Version: 6.00 Build 0)  -->
<!DOCTYPE svg PUBLIC "-//W3C//DTD SVG 1.1//EN" "http://www.w3.org/Graphics/SVG/1.1/DTD/svg11.dtd">
<svg version="1.1" id="Layer_1" xmlns="http://www.w3.org/2000/svg" xmlns:xlink="http://www.w3.org/1999/xlink" x="0px" y="0px"
	 width="127.618px" height="127.686px" viewBox="-21.312 -26.555 127.618 127.686"
	 enable-background="new -21.312 -26.555 127.618 127.686" xml:space="preserve">
<g>
	<g>
		<g>
			<g>
				<g>
					<path fill="#D22F2F" d="M25.972,24.199l13.687,13.65L14.254,63.276L28.55,48.959c-7.144,7.154-13.192,13.176-20.509,20.439
						c2.162-2.232,6.904-6.922,8.005-8.109L39.54,37.847L10.3,8.45C17.157,15.097,21.196,19.431,25.972,24.199z"/>
					<polygon fill="#D22F2F" points="-3.527,87.949 -7.073,84.405 -6.214,83.549 -7.068,84.405 					"/>
					<path fill="#D22F2F" d="M74.308,2.298l5.938-5.965L74.308,2.298z"/>
					<polygon fill="#D22F2F" points="2.813,1.545 -0.38,-1.613 -7.455,-8.707 -3.903,-12.248 9.124,0.828 -3.903,-12.192 
						-7.382,-8.707 -2.347,-3.658 					"/>
					<path fill="#D22F2F" d="M11.4,10.324c8.189,8.18,16.478,16.505,24.196,24.316C27.87,26.84,19.709,18.65,11.4,10.324z"/>
					<path fill="#D22F2F" d="M51.259,34.224c0.041-0.026-0.106,0.137-0.333,0.375l-0.635,0.657l-2.617,2.596l6.169,6.221
						l-2.437-2.395l-2.412-2.442l-0.963-0.98l-0.389-0.402l0.312-0.305l0.937-0.935L51.259,34.224z"/>
					<polygon fill="#D22F2F" points="72.084,4.528 71.881,4.743 69.852,6.784 69.604,7.025 					"/>
					<path fill="#D22F2F" d="M55.468,30.022c0.083-0.05,0.168-0.102,0.467-0.375l-5.606,5.569l0.598-0.62
						C52.151,33.349,54.109,31.424,55.468,30.022z"/>
					<polygon fill="#D22F2F" points="88.663,-13.408 87.388,-12.123 86.622,-11.332 85.477,-10.14 75.605,-0.385 72.75,2.526 
						70.566,4.637 89.211,-13.98 94.472,-8.707 91.051,-5.292 94.461,-8.707 89.211,-13.96 					"/>
					<path fill="#D22F2F" d="M-2.142,86.934C8.502,76.24,20.918,64.002,31.227,53.512C18.974,65.656,2.12,82.467,0.173,84.115
						c-1.949,1.654,16.68-16.705,26.22-26.262l-2.554,2.49c1.276-1.244,2.554-2.49,3.659-3.629c-2.553,2.49-7.483,7.363-8.932,8.713
						l2.213-2.285C14.237,69.467,2.148,81.504-4.399,87.828c6.917-6.758,14.392-14.125,22.248-21.912l12.05-11.967l12.756-12.714
						l46.557,46.498l3.32-3.328l-15.877-15.84L45.684,37.849L75.2,7.924l7.66-7.682l8.977-8.953l-0.125-0.128l-2.5-2.483
						l-27.86,28.064L42.655,35.494l-46.556-46.61l-2.392,2.397l-0.012,0.011l2.682,2.726c1.039,1.064,1.875,1.939,2.23,2.334
						c0.356,0.396,0.232,0.315-0.648-0.529l-1.93-1.875l-2.695-2.654l0.187-0.19l1.526-1.544l1.053-1.066L8.688,0.997l13.196,13.171
						c-1.193-1.101-5.878-5.84-8.108-8.003c7.266,7.32,13.282,13.361,20.442,20.511L19.894,12.377l22.761,22.741l16.576-16.616
						c4.774-4.782,9.102-8.815,15.746-15.674L42.655,34.981L21.881,14.167l0.092,0.087L-0.376-8.091l6.781,6.767L-3.904-11.694
						l-3.002,2.986L10.429,8.664L-7.072-8.707l3.168-3.185L42.653,34.63L69.968,7.275c-4.229,4.157-9.08,9.019-13.827,13.778
						l-6.952,6.959l-3.25,3.231l-3.284,3.241l-1.047-1.062l1.047,1.047l42.393-42.33l-3.16,3.203l7.326-7.275l3.223,3.226
						L76.75,6.987l-2.418,2.407l2.418-2.407L92.502-8.707l-3.289-3.305l-4.166,4.151l4.166-4.192l3.345,3.343l-3.59,3.581
						l3.646-3.581l-3.399-3.435l-1.785,1.769L73.11,3.926l16.104-16.182L92.8-8.71L92.03-7.928l0.784-0.782l-3.6-3.619
						L64.016,12.792L80.454-3.681l8.761-8.733l3.692,3.707L77.929,6.23L79,5.154l-2.135,2.139L65.807,18.339
						c-3.32,3.326-6.562,6.604-9.775,9.863l-1.643,1.645c1.023-1.052,1.514-1.57-0.499,0.428l-7.606,7.581l10.016,9.997
						c3.369,3.363,6.81,6.812,10.301,10.348c2.559,2.59,6.038,6.055,9.792,9.785c1.008,1.025,1.547,1.555,2.038,2.02l2.45,2.436
						l5.956,5.934L80.88,72.44l-2.233-2.229c0.52,0.494,1.073,1.016,2.174,2.119L46.386,37.854l8.002-8.009l-2.546,2.611
						l4.188-4.256l13.852-13.885c-1.368,1.386-2.639,2.677-3.742,3.816l26.83-26.841l-3.758-3.75L80.45-3.682L43.336,33.317
						c6.673-6.584,13.609-13.483,20.677-20.523l-21.36,21.39L7.569-0.959c3.43,3.321,8.102,7.921,10.283,9.968
						c-0.097-0.166-6.117-6.209-2.588-2.718c6.438,6.342,11.926,11.828,16.482,16.355c2.278,2.264,4.322,4.287,6.136,6.062
						l2.546,2.467l1.143,1.09l0.539,0.509l0.336,0.302c0.075,0.064,0.006-0.021-0.147-0.198l-0.063-0.068l-0.104-0.112l-0.299-0.315
						l-0.743-0.78l-4.048-4.209c-2.824-2.938-5.194-5.415-2.86-3.115l8.476,8.418l8.569-8.605l6.716-6.701
						c0.292-0.281,0.768-0.779,1.365-1.401L79.389-4.089l4.738-4.714c0.832-0.812,1.547-1.503,2.111-2.033
						c0.851-0.869,1.297-1.331,2.973-3.021l1.041,1.032l4.105,4.117l-9.779,9.75l-6.896,6.801c0.059-0.035,0.439-0.386,0.02,0.061
						L62.284,23.294c-2.094,2.065-4.025,3.951-5.748,5.614c-1.093,1.131-2.481,2.549-4.078,4.166l-4.746,4.775l17.268,17.28
						l-0.009-0.018l13.571,13.582l2.111,2.182l2.91,2.855l10.051,10.172l0.518,0.504l-1.573,1.621
						c-0.419,0.434-0.89,0.916-1.39,1.418l-1.953,1.949l-6.086-6.084l-8.025-8.049L48.19,48.203
						c-0.271-0.299-0.32-0.383-0.377-0.473c-1.404-1.361-3.322-3.315-4.572-4.54c0.241,0.228,0.397,0.375,0.369,0.324l-0.951-0.938
						l-1.5,1.503l-1.574,1.552l-3.688,3.643l-2.387,2.428l-1.212,1.205c-4.213,4.061-8.307,8.203-12.917,12.812L5.521,79.463
						C1.855,83.098,0.413,84.444-2.142,86.934z"/>
					<path fill="#D22F2F" d="M55.038,45.277l12.816,12.92C63.249,53.588,59.104,49.49,55.038,45.277z"/>
					<path fill="#D22F2F" d="M31.045,21.047c-1.664-1.726-3.557-3.663-5.613-5.75L42.655,32.53l14.334-14.328l0.019-0.009
						L42.655,32.535l-6.263-6.241C34.286,24.204,32.448,22.4,31.045,21.047z"/>
					<polygon fill="#D22F2F" points="50.924,34.596 50.329,35.218 50.288,35.256 					"/>
					<polygon fill="#D22F2F" points="9.425,0.708 8.368,-0.352 16.448,7.691 					"/>
					<polygon fill="#D22F2F" points="3.788,2.973 20.261,19.414 38.575,37.849 36.5,39.892 38.552,37.849 					"/>
					<path fill="#D22F2F" d="M9.974-0.109L3.173-7.004l6.862,6.878C9.592-0.545,9.941-0.164,9.974-0.109z"/>
					<polygon fill="#D22F2F" points="31.985,23.193 30.341,21.55 34.593,25.737 					"/>
					<path fill="#D22F2F" d="M-1.333-0.697l-5.029-5.052l3.005,2.945C-2.832-2.243-2.138-1.527-1.333-0.697z"/>
					<path fill="#D22F2F" d="M24.866,25.492l6.695,6.712l-8.104-8.084C24.083,24.722,24.579,25.199,24.866,25.492z"/>
				</g>
			</g>
		</g>
	</g>
	<g>
		<g>
			<g>
				<g>
					<path fill="#D22F2F" d="M14.95-2.071l16.898,16.837l-6.336-6.312c3.165,3.154,5.822,5.834,9.016,9.084
						c-1.005-0.936-3.061-3.049-3.615-3.508C23.194,6.316,15.51-1.484,8.043-9.05C11.133-6.172,12.836-4.175,14.95-2.071z"/>
					<path fill="#D22F2F" d="M43.032,26.143L40.75,23.87C41.55,24.661,42.336,25.437,43.032,26.143z"/>
					<path fill="#D22F2F" d="M36.051,13.281l2.643,2.615C37.819,15.045,36.933,14.161,36.051,13.281z"/>
					<polygon fill="#D22F2F" points="4.575,-11.945 3.15,-13.326 0.133,-16.367 3.095,-19.305 7.135,-15.23 3.095,-19.267 
						0.204,-16.367 2.305,-14.256 					"/>
					<path fill="#D22F2F" d="M8.316-8.006c3.622,3.611,7.275,7.301,10.662,10.782C15.581-0.696,11.981-4.322,8.316-8.006z"/>
					<path fill="#D22F2F" d="M62.597-1.137c-0.024,0.005,0.037-0.071,0.134-0.181c0.106-0.107,0.201-0.209,0.274-0.296l4.413-4.34
						c-0.357,0.367-0.676,0.721-1.045,1.09C64.749-3.265,64.37-2.969,62.597-1.137z"/>
					<polygon fill="#D22F2F" points="35.063,12.297 34.965,12.21 34.058,11.319 33.954,11.208 					"/>
					<path fill="#D22F2F" d="M60.732,0.716c-0.045,0.015-0.093,0.027-0.233,0.14l2.488-2.448L62.73-1.314
						C62.196-0.757,61.323,0.083,60.732,0.716z"/>
					<path fill="#D22F2F" d="M42.633,18.506c-0.021-0.021-0.044-0.038-0.067-0.054l-0.036-0.024l-0.019-0.011l-0.005-0.003
						l-0.022-0.021l-0.042-0.04l-0.541-0.491l-4.279-4.395c-0.258-0.242-0.785-0.77-1.301-1.248l-0.914-0.985l7.246,7.276
						l0.114-0.11l0.681-0.678l1.482-1.473l-1.451,1.454l-0.829,0.825L42.633,18.506z"/>
					<path fill="#D22F2F" d="M43.536,26.011c4.69-4.742,10.229-10.098,14.734-14.788c-5.447,5.334-12.908,12.755-13.852,13.402
						c-0.945,0.646,7.365-7.392,11.576-11.619l-1.146,1.084c0.572-0.541,1.146-1.084,1.626-1.598c-1.146,1.081-3.342,3.22-4.01,3.79
						l0.958-1.029c-2.955,2.733-8.312,8.04-11.267,10.773c6.123-5.814,13.162-12.732,20.535-20.075L73.931-5.292l11.008-11.072
						l-2.729-2.709l-3.493,3.511C69.336-6.084,60.718,2.801,52.67,11.142c-1.531,1.57-5.262,5.282-7.939,7.936l-2.078,2.095
						l-7.039-6.959l-6.367-6.241C24.761,3.546,20.37-0.844,15.931-5.298L3.091-18.181l-1.808,1.812l-0.006,0.006
						c0.014,0.012,0.022,0.024,0.034,0.046l0.716,0.75c0.453,0.479,0.812,0.875,0.959,1.061c0.146,0.185,0.08,0.163-0.32-0.201
						c-0.202-0.182-0.485-0.448-0.867-0.815L1.15-16.149l-0.231-0.214l0.08-0.085l0.1-0.107l0.288-0.3l0.749-0.764l0.723-0.736
						l0.235-0.25l0.203,0.193l0.509,0.5l1.258,1.241l2.516,2.492l5.033,5.014c-0.553-0.463-2.609-2.571-3.615-3.509
						c3.197,3.253,5.849,5.927,9.017,9.084l-6.337-6.312l16.9,16.834c2.115,2.105,3.814,4.102,6.904,6.98
						C28.018,6.348,20.329-1.453,12.612-9.167l0.043,0.035l-9.492-9.486l1.164,1.146l1.451,1.45l-2.683-2.726l-2.412,2.381
						l7.396,7.436l-7.562-7.436l2.579-2.605l30.577,30.516C29.911,7.631,24.709,2.644,21.461-0.79l18.918,18.979l-1.426-1.386
						l1.662,1.695l2.041,2.06l9.164-9.171l1.072-1.063l-1.072,1.063l-9.164,9.092l-2.276-2.29l2.276,2.25l3.736-3.726l-1.604,1.543
						l-2.131,2.087l-1.127-1.141l-6.316-6.337l3.678,3.653l3.766,3.713l2.31-2.355l-2.31,2.282L31.362,8.787l7.291,7.256
						l4.006,4.035l8.524-8.477l-0.472,0.479l0.943-0.945l4.892-4.878c1.468-1.47,2.888-2.93,4.296-4.383l0.725-0.729
						c-0.443,0.474-0.652,0.709,0.241-0.168c3.823-3.735,7.849-7.906,12.243-12.185c1.152-1.122,2.678-2.666,4.32-4.331
						c0.461-0.438,0.688-0.683,0.891-0.905l1.072-1.087l1.885-1.896l0.508,0.494l-0.508-0.506l-1.885,1.907l-0.982,0.989
						c0.212-0.236,0.436-0.492,0.921-0.979L61.565,1.144l1.107-1.168L60.84,1.873l-6.113,6.146c0.602-0.616,1.154-1.195,1.635-1.709
						L42.659,20.032l-4.009-3.991L22.333-0.391c2.879,2.965,5.922,6.046,9.026,9.176C23.053,0.518,14.743-7.775,6.517-16.083
						c1.544,1.438,3.629,3.448,4.633,4.314c-0.026-0.09-2.68-2.77-1.108-1.235c5.744,5.557,9.709,9.688,12.203,11.809
						c0.487,0.384-5.668-6.13-3.582-4.116l8.119,8.029l2.957,2.974c0.123,0.131,0.348,0.334,0.631,0.593
						c3.586,3.569,6.996,6.978,8.873,8.877l2.076,2.101c0.354,0.372,0.65,0.695,0.875,0.956l0.264,0.25l0.072,0.059l0.129,0.107
						l0.058-0.066l5.118-5.076l3.076-2.979c-0.031,0.009-0.209,0.155-0.028-0.049l6.819-6.799c0.936-0.901,1.801-1.726,2.58-2.442
						c2.352-2.56,8.086-8.163,12.008-12.116h-0.008l6.006-5.993l0.982-0.913c0.482-0.521,1.008-1.044,1.247-1.303l1.698-1.674
						l1.361,1.383l0.791,0.815l1.939,1.989l0.236,0.226l-0.76,0.802l-0.81,0.84l-3.078,3.078l-3.565,3.538L66.325,3.749
						c-0.139,0.114-0.186,0.125-0.234,0.141c-0.59,0.635-1.463,1.475-1.998,2.03c0.098-0.108,0.158-0.183,0.134-0.174
						c-1.771,1.826-2.149,2.122-3.778,3.726c-0.365,0.363-0.688,0.724-1.041,1.084l-0.539,0.529
						c-1.904,1.756-3.701,3.601-5.74,5.636l-6.156,6.041C45.348,24.359,44.682,24.927,43.536,26.011z"/>
					<path fill="#D22F2F" d="M67.956-6.481l5.74-5.636C71.657-10.079,69.86-8.236,67.956-6.481z"/>
					<path fill="#D22F2F" d="M17.299-6.768c-0.719-0.779-1.542-1.649-2.443-2.581L29.415,5.228l0.002,0.012
						C25.465,1.319,19.86-4.414,17.299-6.768z"/>
					<path fill="#D22F2F" d="M62.731-1.318l0.26-0.278l0.019-0.021C62.931-1.527,62.837-1.425,62.731-1.318z"/>
					<path fill="#D22F2F" d="M7.385-15.399l-0.467-0.47l3.582,3.543C9.538-13.262,8.476-14.315,7.385-15.399z"/>
					<path fill="#D22F2F" d="M4.875-11.183l7.293,7.258c3.104,3.13,6.147,6.212,9.025,9.176L4.875-11.183z"/>
					<path fill="#D22F2F" d="M8.01-16.139l-2.979-3.076l3.026,3.046C7.855-16.349,8-16.172,8.01-16.139z"/>
					<polygon fill="#D22F2F" points="17.377,-5.483 16.651,-6.207 18.549,-4.376 					"/>
					<path fill="#D22F2F" d="M2.209-12.404l-2.217-2.238l1.344,1.284C1.56-13.099,1.86-12.774,2.209-12.404z"/>
					<path fill="#D22F2F" d="M13.792-0.83l2.955,2.97l-3.586-3.563C13.444-1.164,13.667-0.96,13.792-0.83z"/>
				</g>
			</g>
		</g>
	</g>
	<g>
		<g>
			<g>
				<g>
					<path fill="#D22F2F" d="M19.038-10.183L33.487,4.205L28.069-1.19c2.706,2.695,4.975,4.986,7.701,7.77
						c-0.863-0.796-2.617-2.604-3.098-2.991C26.075-3.007,19.514-9.68,13.14-16.153C15.795-13.71,17.233-11.983,19.038-10.183z"/>
					<path fill="#D22F2F" d="M43.032,13.944l-1.949-1.946C41.765,12.672,42.437,13.338,43.032,13.944z"/>
					<path fill="#D22F2F" d="M37.601,3.552l2.261,2.234C39.114,5.06,38.359,4.304,37.601,3.552z"/>
					<polygon fill="#D22F2F" points="10.133,-18.585 8.913,-19.767 6.657,-22.041 9.161,-24.523 12.857,-20.785 9.161,-24.48 
						6.731,-22.041 8.343,-20.416 					"/>
					<path fill="#D22F2F" d="M13.316-15.207c3.097,3.087,6.218,6.244,9.104,9.223C19.523-8.952,16.45-12.058,13.316-15.207z"/>
					<path fill="#D22F2F" d="M60.218-9.947c-0.022,0.003,0.028-0.062,0.112-0.156c0.09-0.097,0.168-0.181,0.232-0.257l3.777-3.704
						c-0.305,0.315-0.575,0.617-0.891,0.937C62.059-11.765,61.73-11.517,60.218-9.947z"/>
					<polygon fill="#D22F2F" points="36.758,2.714 36.674,2.638 35.899,1.879 35.808,1.784 					"/>
					<path fill="#D22F2F" d="M58.625-8.365c-0.043,0.009-0.086,0.018-0.207,0.114l2.13-2.092l-0.218,0.238
						C59.874-9.623,59.124-8.906,58.625-8.365z"/>
					<path fill="#D22F2F" d="M42.77,7.22c-0.025,0.027-0.048,0.058-0.07,0.092c-0.045-0.023-0.103-0.046-0.14-0.069l-0.022-0.027
						l-0.012-0.011l-0.047-0.052l-0.214-0.224l-0.433-0.447l-0.881-0.916l-1.908-1.959c-0.221-0.201-0.672-0.652-1.115-1.061
						l-0.775-0.848l5.543,5.569l0.118-0.11l0.735-0.731l1.547-1.535L42.77,7.22z"/>
					<path fill="#D22F2F" d="M43.435,13.911c4.007-4.058,8.752-8.622,12.59-12.645c-4.666,4.553-11.043,10.892-11.872,11.421
						c-0.83,0.53,6.293-6.316,9.891-9.935l-0.982,0.924c0.493-0.462,0.982-0.924,1.391-1.362c-0.982,0.921-2.865,2.74-3.442,3.223
						l0.813-0.887c-2.541,2.32-7.121,6.854-9.664,9.174C47.458,8.838,53.534,2.879,59.89-3.448l9.687-9.691l9.429-9.497
						l-2.222-2.201l-2.664,2.679C66.112-14.047,58.764-6.435,51.905,0.719c-1.305,1.343-4.494,4.515-6.785,6.78L42.7,9.941
						l-5.844-5.767l-5.174-5.058c-3.883-3.82-7.68-7.616-11.516-11.47L9.163-23.402l-1.334,1.337
						c-0.006,0.006-0.013,0.015-0.022,0.02c0.009,0.011,0.015,0.023,0.021,0.041l0.006,0.011v0.003l0.035,0.038l0.068,0.073
						l0.262,0.28c0.33,0.354,0.58,0.641,0.672,0.769s0.024,0.101-0.281-0.171c-0.153-0.136-0.367-0.332-0.649-0.598l-0.224-0.216
						l-0.029-0.029l-0.008-0.008l-0.02-0.015l-0.035-0.03l-0.17-0.148l0.145-0.157l0.038-0.041l0.069-0.07l0.285-0.294l0.57-0.584
						l0.285-0.293l0.092-0.093l0.042-0.046l0.179-0.193l0.176,0.166l0.386,0.378l1.112,1.093l2.222,2.194l4.44,4.422
						c-0.48-0.389-2.231-2.195-3.098-2.991c2.727,2.781,4.993,5.072,7.702,7.769L16.68-16.18L31.127-1.795
						c1.81,1.802,3.24,3.527,5.896,5.973C30.653-2.295,24.09-8.971,17.495-15.567l0.035,0.029l-8.211-8.209l1.094,1.079l1.24,1.242
						l-2.492-2.544l-1.955,1.924l5.955,5.994l-6.115-5.994l2.115-2.145l6.353,6.326l6.745,6.744
						c4.488,4.494,8.943,8.95,13.263,13.229c-3.204-3.356-7.666-7.602-10.429-10.553l16.165,16.23l-1.224-1.183
						c0.793,0.817,1.388,1.425,2.664,2.709l8.432-8.435l0.917-0.907l-0.917,0.907l-8.432,8.358l-1.44-1.451l1.44,1.422l1.945-1.957
						l1.838-1.823c-0.466,0.436-1.021,0.974-1.629,1.561l-2.156,2.11l-0.277-0.285L36.85,3.229l2.857,2.838l2.988,2.941l2.547-2.604
						l-2.547,2.514l-9.125-9.195l6.234,6.2l2.891,2.913l7.854-7.798l-0.402,0.407l0.807-0.811l4.182-4.166
						c1.254-1.258,2.465-2.508,3.666-3.755l0.619-0.622c-0.377,0.407-0.553,0.611,0.211-0.139c3.273-3.188,6.703-6.765,10.468-10.41
						c0.988-0.959,2.29-2.277,3.692-3.704c0.396-0.372,0.59-0.581,0.76-0.771l0.914-0.93l1.314-1.326l0.666,0.646l-0.666-0.657
						l-1.314,1.334l-0.842,0.845c0.181-0.203,0.369-0.421,0.783-0.84L59.417-7.908l0.943-1.003l-1.562,1.625l-5.224,5.255
						c0.512-0.526,0.983-1.021,1.392-1.465L42.694,8.8l-2.89-2.875L25.864-8.131c2.457,2.543,5.053,5.179,7.707,7.854
						c-7.102-7.062-14.209-14.148-21.234-21.26c1.33,1.223,3.117,2.938,3.984,3.668c-0.017-0.084-2.285-2.375-0.939-1.067
						c4.922,4.733,8.303,8.281,10.462,10.064c0.422,0.323-4.813-5.271-3.026-3.558l6.947,6.855l2.525,2.543
						c0.105,0.114,0.299,0.285,0.543,0.506c3.065,3.05,5.979,5.961,7.582,7.586l1.772,1.8l0.216,0.23l0.1,0.111
						c0.017,0.02,0.016,0.021,0.023,0.032l0.073,0.116l0.092,0.068l0.173-0.207l4.715-4.674l2.638-2.54
						c-0.029,0.005-0.185,0.13-0.03-0.047l5.831-5.808c0.799-0.769,1.542-1.47,2.214-2.077c1.995-2.204,6.905-6.983,10.256-10.364
						h-0.008l5.135-5.125l0.846-0.774l0.606-0.641l0.521-0.541l1.189-1.177l1.238,1.258l0.736,0.761l1.844,1.896l-0.297,0.291
						c-0.29,0.307-1.064,1.148-1.402,1.487l-2.633,2.635l-3.049,3.021L62.944-5.085c-0.121,0.092-0.162,0.103-0.207,0.113
						c-0.5,0.544-1.248,1.259-1.705,1.735c0.084-0.092,0.135-0.153,0.111-0.148c-1.511,1.564-1.84,1.812-3.234,3.18
						c-0.31,0.31-0.584,0.617-0.888,0.93l-0.46,0.453c-1.639,1.486-3.169,3.068-4.913,4.811l-5.272,5.154
						C44.995,12.511,44.42,12.987,43.435,13.911z"/>
					<path fill="#D22F2F" d="M64.799-14.512l4.914-4.811C67.968-17.582,66.439-16,64.799-14.512z"/>
					<path fill="#D22F2F" d="M21.668-13.677c-0.608-0.672-1.309-1.419-2.078-2.219L32.032-3.431v0.009
						C28.655-6.774,23.874-11.683,21.668-13.677z"/>
					<path fill="#D22F2F" d="M60.331-10.105l0.218-0.238l0.016-0.018C60.499-10.286,60.421-10.199,60.331-10.105z"/>
					<path fill="#D22F2F" d="M13.103-20.962l-0.399-0.399l3.065,3.024C14.944-19.136,14.036-20.033,13.103-20.962z"/>
					<path fill="#D22F2F" d="M10.358-17.904l6.235,6.198c2.651,2.679,5.249,5.314,7.704,7.855L10.358-17.904z"/>
					<path fill="#D22F2F" d="M13.735-21.697l-2.539-2.636l2.588,2.604C13.607-21.878,13.729-21.726,13.735-21.697z"/>
					<polygon fill="#D22F2F" points="21.648,-12.49 21.028,-13.113 22.655,-11.55 					"/>
					<path fill="#D22F2F" d="M7.972-18.84L5.834-21l0.533,0.521l0.287,0.274l0.579,0.544C7.421-19.439,7.676-19.158,7.972-18.84z"/>
					<path fill="#D22F2F" d="M17.875-8.947l2.521,2.54l-3.068-3.048C17.575-9.236,17.768-9.061,17.875-8.947z"/>
				</g>
			</g>
		</g>
	</g>
	<g>
		<g>
			<g>
				<g>
					<path fill="#D22F2F" d="M3.163,65.291L20,48.393l-6.312,6.334c3.155-3.162,5.834-5.818,9.083-9.012
						c-0.937,1.004-3.046,3.063-3.507,3.614C11.549,57.045,3.75,64.733-3.819,72.198C-0.939,69.108,1.059,67.403,3.163,65.291z"/>
					<path fill="#D22F2F" d="M31.379,37.209l-2.276,2.28C29.892,38.69,30.672,37.905,31.379,37.209z"/>
					<path fill="#D22F2F" d="M18.514,44.192l2.617-2.645C20.278,42.421,19.394,43.305,18.514,44.192z"/>
					<polygon fill="#D22F2F" points="-6.708,75.666 -8.091,77.09 -11.134,80.11 -14.072,77.145 -9.998,73.108 -14.034,77.145 
						-11.134,80.035 -9.02,77.938 					"/>
					<path fill="#D22F2F" d="M-2.774,71.924c3.613-3.621,7.304-7.271,10.781-10.662C4.54,64.662,0.909,68.256-2.774,71.924z"/>
					<path fill="#D22F2F" d="M4.095,17.643c0.006,0.024-0.069-0.037-0.179-0.136c-0.109-0.104-0.209-0.198-0.297-0.271l-4.338-4.416
						c0.366,0.358,0.721,0.677,1.088,1.047C1.968,15.49,2.264,15.87,4.095,17.643z"/>
					<polygon fill="#D22F2F" points="17.532,45.18 17.444,45.277 16.552,46.18 16.441,46.288 					"/>
					<path fill="#D22F2F" d="M5.948,19.509c0.014,0.046,0.027,0.093,0.142,0.231l-2.451-2.489l0.278,0.258
						C4.478,18.047,5.317,18.919,5.948,19.509z"/>
					<path fill="#D22F2F" d="M23.739,37.608c-0.021,0.021-0.037,0.044-0.054,0.067l-0.024,0.035l-0.013,0.021l-0.002,0.005
						l-0.021,0.021l-0.039,0.041l-0.49,0.541l-4.398,4.276c-0.238,0.262-0.766,0.788-1.246,1.305l-0.986,0.913l7.277-7.247
						l-0.11-0.114l-0.677-0.679l-1.475-1.484l1.455,1.451l0.825,0.829L23.739,37.608z"/>
					<path fill="#D22F2F" d="M31.245,36.704c-4.74-4.69-10.099-10.229-14.787-14.733c5.334,5.448,12.754,12.91,13.399,13.854
						c0.649,0.945-7.39-7.366-11.618-11.575l1.084,1.144c-0.541-0.572-1.084-1.144-1.598-1.625c1.083,1.147,3.219,3.344,3.791,4.01
						l-1.029-0.957c2.732,2.954,8.041,8.31,10.772,11.266c-5.815-6.124-12.733-13.162-20.075-20.534L-0.061,6.314l-11.07-11.009
						l-2.71,2.729l3.509,3.495c9.479,9.377,18.361,17.996,26.705,26.045c1.57,1.528,5.281,5.261,7.934,7.937l2.096,2.082
						l-6.959,7.037L13.2,50.996c-4.425,4.482-8.816,8.877-13.269,13.314l-12.885,12.84l1.814,1.807l0.005,0.006
						c0.014-0.014,0.028-0.021,0.045-0.033l0.75-0.717c0.479-0.451,0.875-0.811,1.061-0.957c0.186-0.145,0.163-0.082-0.201,0.318
						c-0.182,0.201-0.447,0.486-0.814,0.867l-0.626,0.65l-0.213,0.23l-0.084-0.08l-0.11-0.102l-0.296-0.285l-0.765-0.746
						l-0.738-0.727l-0.247-0.236l0.191-0.201l0.5-0.512l1.242-1.258l2.491-2.514l5.013-5.033c-0.461,0.553-2.57,2.609-3.507,3.615
						c3.251-3.195,5.927-5.85,9.083-9.018l-6.312,6.338l16.838-16.898c2.107-2.115,4.101-3.814,6.98-6.905
						C11.581,52.225,3.78,59.916-3.938,67.629l0.037-0.043l-9.487,9.492l1.146-1.164l1.454-1.447l-2.727,2.68l2.381,2.412
						l7.434-7.396l-7.434,7.564l-2.608-2.582l30.517-30.574c-3.913,3.762-8.897,8.963-12.335,12.211l18.983-18.917l-1.388,1.424
						l1.699-1.66l2.057-2.041l-9.17-9.163l-1.063-1.073l1.063,1.073l9.093,9.163l-2.29,2.277l2.25-2.277l-3.729-3.736l1.545,1.606
						l2.09,2.13l-1.145,1.128l-6.334,6.317l3.652-3.68l3.713-3.767l-2.357-2.31l2.285,2.31L14.02,48.885l7.255-7.291l4.036-4.008
						l-8.474-8.524l0.477,0.475l-0.946-0.943L11.493,23.7c-1.473-1.465-2.932-2.89-4.387-4.296l-0.729-0.727
						c0.476,0.445,0.712,0.654-0.166-0.238C2.474,14.616-1.698,10.591-5.975,6.195c-1.122-1.152-2.665-2.678-4.331-4.32
						c-0.438-0.459-0.682-0.69-0.903-0.892l-1.086-1.07l-1.898-1.883l0.496-0.51l-0.504,0.51l1.906,1.883l0.989,0.982
						c-0.238-0.212-0.49-0.435-0.977-0.921L6.38,18.677l-1.171-1.108l1.897,1.835l6.146,6.109c-0.617-0.6-1.194-1.153-1.709-1.633
						l13.721,13.703l-3.991,4.011L4.84,57.912c2.967-2.881,6.049-5.924,9.178-9.025c-8.268,8.307-16.557,16.615-24.87,24.84
						c1.438-1.543,3.45-3.631,4.318-4.633c-0.091,0.027-2.771,2.68-1.238,1.107c5.556-5.74,9.69-9.707,11.81-12.203
						c0.385-0.486-6.129,5.672-4.119,3.584l8.029-8.119l2.976-2.959c0.13-0.121,0.335-0.348,0.594-0.627
						c3.569-3.587,6.979-6.998,8.876-8.873l2.102-2.078c0.375-0.354,0.697-0.648,0.957-0.875l0.252-0.264l0.057-0.07l0.105-0.131
						l-0.066-0.057l-5.075-5.122l-2.979-3.073c0.01,0.032,0.155,0.209-0.047,0.029l-6.797-6.82
						c-0.902-0.935-1.726-1.802-2.443-2.578C3.897,17.612-1.707,11.879-5.66,7.955l0.001,0.011l-5.997-6.008l-0.912-0.983
						c-0.517-0.48-1.043-1.006-1.301-1.247l-1.675-1.697l1.385-1.361l0.814-0.791l1.989-1.938l0.226-0.236l0.803,0.755l0.839,0.811
						l3.079,3.078l3.539,3.565L8.985,13.915c0.113,0.139,0.127,0.185,0.143,0.233c0.633,0.59,1.472,1.462,2.031,1.996
						c-0.11-0.098-0.185-0.156-0.177-0.133c1.827,1.771,2.123,2.149,3.724,3.78c0.367,0.363,0.725,0.687,1.086,1.04l0.531,0.538
						c1.752,1.905,3.598,3.701,5.635,5.739l6.041,6.156C29.592,34.89,30.161,35.558,31.245,36.704z"/>
					<path fill="#D22F2F" d="M-1.246,12.286l-5.637-5.738C-4.845,8.586-3,10.382-1.246,12.286z"/>
					<path fill="#D22F2F" d="M-1.535,62.942c-0.781,0.717-1.649,1.541-2.58,2.441l14.579-14.559h0.01
						C6.552,54.776,0.819,60.381-1.535,62.942z"/>
					<path fill="#D22F2F" d="M3.917,17.509l-0.278-0.258L3.62,17.234C3.708,17.309,3.806,17.403,3.917,17.509z"/>
					<path fill="#D22F2F" d="M-10.167,72.854l-0.468,0.469l3.542-3.582C-8.028,70.701-9.08,71.764-10.167,72.854z"/>
					<path fill="#D22F2F" d="M-5.948,75.362l7.255-7.287c3.132-3.105,6.214-6.152,9.18-9.029L-5.948,75.362z"/>
					<path fill="#D22F2F" d="M-10.907,72.233l-3.076,2.979l3.044-3.029C-11.115,72.385-10.939,72.24-10.907,72.233z"/>
					<polygon fill="#D22F2F" points="-0.248,62.864 -0.975,63.592 0.858,61.694 					"/>
					<path fill="#D22F2F" d="M-7.169,78.031l-2.237,2.219l1.284-1.348C-7.864,78.682-7.541,78.381-7.169,78.031z"/>
					<path fill="#D22F2F" d="M4.405,66.449l2.971-2.953L3.81,67.08C4.071,66.801,4.271,66.574,4.405,66.449z"/>
				</g>
			</g>
		</g>
	</g>
	<g>
		<g>
			<g>
				<g>
					<path fill="#D22F2F" d="M-4.95,61.203L9.439,46.754L4.043,52.17c2.697-2.703,4.988-4.973,7.771-7.701
						c-0.796,0.864-2.604,2.619-2.991,3.101C2.228,54.166-4.446,60.727-10.921,67.102C-8.476,64.444-6.75,63.006-4.95,61.203z"/>
					<path fill="#D22F2F" d="M19.176,37.209l-1.943,1.951C17.907,38.474,18.573,37.802,19.176,37.209z"/>
					<path fill="#D22F2F" d="M8.786,42.637l2.234-2.264C10.293,41.128,9.54,41.88,8.786,42.637z"/>
					<polygon fill="#D22F2F" points="-13.353,70.11 -14.531,71.33 -16.809,73.586 -19.288,71.08 -15.554,67.385 -19.246,71.08 
						-16.809,73.51 -15.182,71.901 					"/>
					<path fill="#D22F2F" d="M-9.975,66.922c3.087-3.094,6.244-6.217,9.226-9.102C-3.718,60.719-6.823,63.791-9.975,66.922z"/>
					<path fill="#D22F2F" d="M-4.716,20.022c0.004,0.021-0.062-0.03-0.154-0.111c-0.094-0.093-0.182-0.171-0.256-0.233l-3.702-3.776
						c0.313,0.305,0.618,0.572,0.934,0.892C-6.531,18.179-6.285,18.511-4.716,20.022z"/>
					<polygon fill="#D22F2F" points="7.95,43.479 7.874,43.565 7.112,44.342 7.016,44.43 					"/>
					<path fill="#D22F2F" d="M-3.132,21.617c0.01,0.041,0.019,0.085,0.113,0.207l-2.093-2.133l0.241,0.22
						C-4.39,20.367-3.677,21.117-3.132,21.617z"/>
					<path fill="#D22F2F" d="M12.456,37.469c0.025,0.027,0.057,0.047,0.092,0.074c-0.024,0.046-0.047,0.101-0.071,0.138
						l-0.026,0.022l-0.013,0.011l-0.05,0.046l-0.223,0.215l-0.446,0.433l-0.912,0.881l-1.96,1.907
						c-0.203,0.223-0.654,0.674-1.061,1.116L6.937,43.09l5.571-5.544l-0.113-0.116l-0.73-0.735l-1.535-1.547L12.456,37.469z"/>
					<path fill="#D22F2F" d="M19.145,36.805c-4.057-4.008-8.623-8.755-12.645-12.592c4.552,4.666,10.892,11.046,11.424,11.872
						c0.531,0.832-6.321-6.293-9.936-9.891l0.92,0.982c-0.457-0.492-0.92-0.982-1.36-1.391c0.92,0.986,2.743,2.866,3.222,3.445
						l-0.885-0.815c2.318,2.541,6.854,7.122,9.173,9.662C14.071,32.783,8.114,26.708,1.788,20.349l-9.694-9.685l-9.494-9.432
						l-2.203,2.22l2.68,2.666c8.109,8.008,15.721,15.354,22.875,22.214c1.344,1.307,4.515,4.497,6.779,6.785l2.445,2.421
						l-5.768,5.842l-5.056,5.176c-3.819,3.881-7.618,7.678-11.47,11.514l-11.05,11.006l1.34,1.334
						c0.005,0.006,0.012,0.014,0.019,0.021c0.012-0.01,0.024-0.014,0.04-0.02l0.011-0.004l0.004-0.002l0.035-0.033l0.074-0.07
						l0.279-0.262c0.358-0.328,0.644-0.58,0.772-0.674c0.13-0.09,0.1-0.023-0.171,0.283c-0.136,0.154-0.331,0.365-0.599,0.648
						l-0.215,0.227l-0.029,0.029l-0.007,0.008l-0.014,0.018l-0.03,0.035l-0.15,0.168l-0.155-0.143l-0.042-0.037l-0.075-0.07
						l-0.292-0.285l-0.585-0.57l-0.293-0.289l-0.094-0.09l-0.046-0.039l-0.19-0.184l0.166-0.176l0.377-0.385l1.089-1.107
						l2.195-2.227l4.421-4.439c-0.388,0.48-2.195,2.23-2.99,3.098c2.784-2.727,5.072-4.99,7.77-7.699l-5.396,5.418L3.441,49.11
						c1.8-1.809,3.525-3.24,5.972-5.897C2.938,49.588-3.737,56.151-10.33,62.746l0.029-0.037l-8.208,8.215l1.078-1.098l1.243-1.24
						l-2.543,2.494l1.924,1.957l5.994-5.959l-5.994,6.117l-2.144-2.117l6.328-6.352l6.747-6.746
						c4.492-4.488,8.949-8.943,13.227-13.261c-3.355,3.205-7.602,7.666-10.551,10.429l16.229-16.165l-1.183,1.221
						c0.817-0.791,1.423-1.386,2.708-2.663L6.12,29.11l-0.908-0.916L6.12,29.11l8.356,8.432l-1.448,1.442l1.42-1.442l-1.955-1.945
						l-1.826-1.837c0.436,0.464,0.973,1.021,1.562,1.63l2.112,2.155l-0.283,0.276L8.47,43.388l2.837-2.858l2.943-2.985l-2.607-2.547
						l2.516,2.547l-9.191,9.124l6.199-6.233l2.914-2.889L6.28,29.692l0.409,0.401l-0.81-0.807l-4.168-4.184
						c-1.256-1.25-2.508-2.462-3.754-3.661l-0.621-0.62c0.406,0.378,0.609,0.552-0.139-0.212
						c-3.188-3.274-6.765-6.703-10.412-10.468c-0.957-0.985-2.276-2.291-3.702-3.692c-0.375-0.395-0.583-0.589-0.775-0.761
						l-0.929-0.913l-1.325-1.314l0.649-0.666l-0.659,0.666l1.334,1.314l0.845,0.84c-0.203-0.18-0.422-0.366-0.841-0.782
						l15.951,15.988l-1.006-0.94l1.627,1.562l5.256,5.223c-0.529-0.514-1.024-0.986-1.467-1.391L14.04,37.549l-2.875,2.889
						l-14.056,13.94c2.542-2.457,5.181-5.055,7.855-7.707c-7.063,7.104-14.149,14.209-21.259,21.232
						c1.223-1.328,2.937-3.115,3.667-3.982c-0.083,0.016-2.373,2.283-1.066,0.938c4.733-4.922,8.28-8.301,10.063-10.459
						c0.321-0.424-5.272,4.812-3.559,3.023l6.857-6.945l2.543-2.525c0.113-0.104,0.283-0.299,0.504-0.541
						c3.05-3.068,5.963-5.98,7.587-7.583l1.797-1.771l0.233-0.215l0.109-0.101c0.018-0.018,0.021-0.018,0.032-0.024l0.117-0.07
						l0.069-0.093l-0.209-0.171l-4.67-4.718l-2.541-2.639c0.006,0.029,0.129,0.186-0.047,0.032l-5.808-5.831
						c-0.771-0.802-1.47-1.547-2.078-2.215c-2.204-1.997-6.983-6.903-10.364-10.258v0.008l-5.124-5.133l-0.775-0.848l-0.643-0.608
						l-0.54-0.52l-1.174-1.189l1.258-1.237l0.761-0.737l1.893-1.844l0.29,0.297c0.311,0.291,1.149,1.064,1.488,1.401l2.632,2.633
						l3.023,3.05L0.157,17.295c0.092,0.123,0.103,0.163,0.112,0.207c0.544,0.503,1.257,1.25,1.738,1.706
						c-0.095-0.084-0.158-0.133-0.153-0.108c1.566,1.509,1.814,1.837,3.18,3.23c0.312,0.312,0.619,0.587,0.932,0.889l0.451,0.46
						c1.488,1.639,3.07,3.168,4.809,4.912l5.156,5.271C17.745,35.245,18.223,35.82,19.145,36.805z"/>
					<path fill="#D22F2F" d="M-9.279,15.441l-4.81-4.913C-12.35,12.269-10.768,13.8-9.279,15.441z"/>
					<path fill="#D22F2F" d="M-8.443,58.573c-0.67,0.607-1.417,1.307-2.216,2.078L1.803,48.209h0.009
						C-1.539,51.586-6.449,56.369-8.443,58.573z"/>
					<path fill="#D22F2F" d="M-4.873,19.911l-0.24-0.22l-0.016-0.015C-5.052,19.74-4.964,19.818-4.873,19.911z"/>
					<path fill="#D22F2F" d="M-15.729,67.137l-0.4,0.4l3.027-3.066C-13.901,65.297-14.801,66.205-15.729,67.137z"/>
					<path fill="#D22F2F" d="M-12.67,69.881l6.2-6.236c2.676-2.65,5.313-5.246,7.854-7.701L-12.67,69.881z"/>
					<path fill="#D22F2F" d="M-16.461,66.506l-2.636,2.539l2.604-2.588C-16.644,66.631-16.491,66.512-16.461,66.506z"/>
					<polygon fill="#D22F2F" points="-7.257,58.592 -7.878,59.213 -6.316,57.588 					"/>
					<path fill="#D22F2F" d="M-13.606,72.266l-2.161,2.141l0.521-0.533l0.274-0.287l0.545-0.58
						C-14.206,72.819-13.926,72.563-13.606,72.266z"/>
					<path fill="#D22F2F" d="M-3.714,62.365l2.539-2.521l-3.045,3.068C-4.001,62.664-3.828,62.471-3.714,62.365z"/>
				</g>
			</g>
		</g>
	</g>
	<g>
		<g>
			<g>
				<g>
					<path fill="#D22F2F" d="M82.186,9.629L65.325,26.552l6.322-6.345c-3.16,3.171-5.842,5.829-9.098,9.029
						c0.939-1.005,3.052-3.067,3.513-3.619c7.728-7.73,15.537-15.426,23.115-22.903C86.295,5.804,84.295,7.513,82.186,9.629z"/>
					<path fill="#D22F2F" d="M53.933,37.75l2.278-2.282C55.418,36.268,54.639,37.054,53.933,37.75z"/>
					<path fill="#D22F2F" d="M66.696,30.887l-2.621,2.646C64.93,32.663,65.815,31.774,66.696,30.887z"/>
					<polygon fill="#D22F2F" points="92.075,-0.759 93.461,-2.186 96.441,-5.149 99.39,-2.172 95.249,1.932 99.351,-2.172 
						96.441,-5.072 94.357,-3.004 					"/>
					<path fill="#D22F2F" d="M88.135,2.985c-3.619,3.627-7.312,7.284-10.798,10.676C80.811,10.261,84.444,6.659,88.135,2.985z"/>
					<path fill="#D22F2F" d="M81.372,57.473c-0.006-0.023,0.07,0.039,0.18,0.137c0.107,0.105,0.212,0.201,0.296,0.273l4.347,4.42
						c-0.367-0.359-0.722-0.68-1.091-1.047C83.502,59.629,83.206,59.252,81.372,57.473z"/>
					<polygon fill="#D22F2F" points="67.679,29.899 67.766,29.802 68.661,28.897 68.772,28.788 					"/>
					<path fill="#D22F2F" d="M79.515,55.61c-0.015-0.047-0.026-0.096-0.14-0.232l2.455,2.492l-0.28-0.26
						C80.991,57.073,80.148,56.198,79.515,55.61z"/>
					<path fill="#D22F2F" d="M61.559,37.381c0.042-0.044,0.068-0.085,0.1-0.137c-0.011,0.006,0.058-0.067,0.102-0.116l0.131-0.146
						l0.213-0.234l4.403-4.285c0.241-0.258,0.768-0.785,1.248-1.304l0.985-0.916l-7.168,7.141l0.114,0.12l0.731,0.736l1.537,1.546
						l-1.517-1.511l-0.759-0.762l-0.128-0.131L61.559,37.381z"/>
					<path fill="#D22F2F" d="M54.065,38.258c4.749,4.695,10.114,10.243,14.811,14.754c-5.342-5.455-12.772-12.925-13.42-13.871
						s7.403,7.375,11.636,11.595l-1.084-1.148c0.541,0.572,1.084,1.148,1.599,1.627c-1.084-1.146-3.225-3.346-3.795-4.014
						l1.029,0.959c-2.736-2.958-8.051-8.323-10.789-11.282c5.832,6.141,12.773,13.2,20.137,20.596l11.279,11.271l11.1,11.043
						l2.709-2.729l-3.455-3.441c-9.492-9.395-18.389-18.023-26.746-26.084c-1.572-1.533-5.287-5.271-7.943-7.951l-2.217-2.201
						l6.908-6.984l6.196-6.315c4.438-4.502,8.847-8.91,13.315-13.363L98.272-2.17L96.45-3.983l-0.01-0.011
						c-0.014,0.013-0.027,0.021-0.046,0.032l-0.723,0.692c-0.468,0.438-0.854,0.785-1.03,0.927c-0.18,0.139-0.152,0.07,0.201-0.32
						c0.177-0.198,0.438-0.476,0.794-0.848l0.598-0.62l0.204-0.224l0.104,0.097l0.108,0.101l0.328,0.32l0.753,0.735l0.715,0.698
						l0.241,0.231L98.495-1.97l-0.508,0.519l-1.248,1.267L94.228,2.35l-5.046,5.067c0.462-0.552,2.576-2.611,3.511-3.616
						c-3.255,3.2-5.935,5.855-9.098,9.029l6.323-6.349l-16.86,16.924c-2.11,2.116-4.106,3.819-6.99,6.913
						c7.577-7.477,15.392-15.172,23.114-22.901l-0.035,0.044l9.538-9.544l-1.188,1.204L96.04,0.573l2.795-2.744l-2.396-2.422
						l-7.38,7.343l7.38-7.508l2.617,2.587L68.436,28.51c3.919-3.767,8.911-8.976,12.354-12.229L61.778,35.223l1.389-1.426
						l-1.64,1.605l-2.001,1.982l9.303,9.296l1.063,1.07l-1.063-1.07l-9.225-9.296l2.174-2.163l-2.135,2.163l3.852,3.858l-1.6-1.663
						l-2.156-2.195l1.018-1.005l6.35-6.332l-3.598,3.623l-3.663,3.714l2.479,2.431l-2.403-2.431l11.271-11.194l-7.266,7.302
						l-3.922,3.896l8.604,8.654L68.13,45.57l0.946,0.942l4.886,4.898c1.473,1.471,2.934,2.895,4.392,4.303l0.729,0.729
						c-0.476-0.445-0.715-0.654,0.166,0.238c3.742,3.828,7.92,7.861,12.203,12.262c1.125,1.15,2.668,2.684,4.336,4.324
						c0.438,0.463,0.684,0.691,0.906,0.895l1.086,1.072l1.842,1.826l-0.545,0.559l0.555-0.559l-1.852-1.826l-0.992-0.984
						c0.24,0.213,0.492,0.436,0.981,0.922L79.077,56.44l1.174,1.107l-1.901-1.836l-6.155-6.119c0.618,0.604,1.195,1.156,1.711,1.635
						L60.045,37.388l3.877-3.896L80.38,17.151c-2.972,2.886-6.058,5.932-9.19,9.04C79.467,17.877,87.771,9.55,96.097,1.315
						c-1.442,1.546-3.457,3.636-4.326,4.638c0.093-0.024,2.774-2.683,1.242-1.108c-5.565,5.75-9.707,9.727-11.829,12.224
						c-0.383,0.485,6.139-5.681,4.125-3.594l-8.041,8.134l-2.979,2.959c-0.133,0.125-0.336,0.351-0.594,0.634
						c-3.576,3.592-6.988,7.005-8.892,8.885L62.7,36.165c-0.375,0.354-0.699,0.652-0.957,0.878l-0.115,0.119
						c-0.024,0.026-0.024,0.03-0.028,0.033l-0.015,0.016l-0.049,0.062l-0.095,0.116l0.097,0.084l5.177,5.221l2.985,3.079
						c-0.011-0.032-0.156-0.213,0.047-0.03l6.808,6.832c0.905,0.936,1.729,1.805,2.444,2.584c2.565,2.354,8.178,8.096,12.137,12.023
						v-0.008l6.002,6.016l0.913,0.986c0.521,0.48,1.047,1.006,1.305,1.246l1.619,1.643l-1.403,1.381l-0.83,0.805l-2.06,2.008
						l-0.119,0.127l-0.832-0.781l-0.524-0.5l-0.354-0.344l-3.084-3.084l-3.543-3.568l-11.873-12.02
						c-0.111-0.139-0.126-0.188-0.143-0.236c-0.633-0.59-1.473-1.463-2.031-2c0.109,0.098,0.184,0.156,0.175,0.133
						c-1.829-1.773-2.127-2.15-3.729-3.781c-0.366-0.365-0.725-0.689-1.088-1.043l-0.529-0.541
						c-1.758-1.906-3.604-3.705-5.645-5.748l-6.049-6.165C55.722,40.073,55.153,39.405,54.065,38.258z"/>
					<path fill="#D22F2F" d="M86.719,62.842l5.646,5.746C90.327,66.547,88.479,64.748,86.719,62.842z"/>
					<path fill="#D22F2F" d="M86.773,12.109c0.782-0.718,1.652-1.543,2.584-2.445L74.755,24.242h-0.009
						C78.676,20.286,84.418,14.675,86.773,12.109z"/>
					<path fill="#D22F2F" d="M81.551,57.61l0.279,0.26l0.017,0.018C81.763,57.811,81.659,57.717,81.551,57.61z"/>
					<path fill="#D22F2F" d="M95.417,2.182l0.471-0.468l-3.548,3.59C93.275,4.338,94.333,3.276,95.417,2.182z"/>
					<path fill="#D22F2F" d="M91.313-0.458l-7.266,7.302c-3.137,3.111-6.223,6.157-9.191,9.04L91.313-0.458z"/>
					<path fill="#D22F2F" d="M96.159,2.807l3.082-2.985l-3.05,3.031C96.372,2.653,96.191,2.801,96.159,2.807z"/>
					<polygon fill="#D22F2F" points="85.485,12.191 86.214,11.463 84.377,13.362 					"/>
					<path fill="#D22F2F" d="M92.538-3.129l2.24-2.217l-1.287,1.345C93.235-3.78,92.907-3.481,92.538-3.129z"/>
					<path fill="#D22F2F" d="M80.948,8.47l-2.977,2.956l3.57-3.592C81.284,8.121,81.079,8.346,80.948,8.47z"/>
				</g>
			</g>
		</g>
	</g>
	<g>
		<g>
			<g>
				<g>
					<path fill="#D22F2F" d="M90.051,14.004L75.506,28.609l5.451-5.479c-2.723,2.736-5.039,5.03-7.854,7.788
						c0.805-0.875,2.633-2.646,3.025-3.131c6.664-6.668,13.412-13.301,19.958-19.746C93.612,10.722,91.868,12.177,90.051,14.004z"/>
					<path fill="#D22F2F" d="M65.661,38.258l1.965-1.97C66.946,36.977,66.274,37.657,65.661,38.258z"/>
					<path fill="#D22F2F" d="M76.711,32.19l-2.26,2.284C75.186,33.718,75.95,32.954,76.711,32.19z"/>
					<polygon fill="#D22F2F" points="98.545,5.007 99.741,3.769 102.334,1.197 104.825,3.708 101.316,7.177 104.784,3.708 
						102.334,1.269 100.545,3.051 					"/>
					<path fill="#D22F2F" d="M95.132,8.222c-3.119,3.131-6.31,6.285-9.32,9.204C88.811,14.498,91.95,11.391,95.132,8.222z"/>
					<path fill="#D22F2F" d="M89.27,55.055c-0.003-0.021,0.062,0.033,0.157,0.115c0.096,0.092,0.183,0.17,0.259,0.236l3.741,3.816
						c-0.317-0.307-0.622-0.582-0.942-0.898C91.107,56.918,90.857,56.586,89.27,55.055z"/>
					<polygon fill="#D22F2F" points="77.558,31.335 77.634,31.25 78.405,30.468 78.499,30.375 					"/>
					<path fill="#D22F2F" d="M87.673,53.446c-0.011-0.039-0.021-0.086-0.114-0.205l2.114,2.152l-0.242-0.221
						C88.944,54.709,88.219,53.949,87.673,53.446z"/>
					<path fill="#D22F2F" d="M72.39,37.864c0.035-0.035,0.058-0.076,0.084-0.12l0.008-0.017l0.062-0.067l0.111-0.125l0.184-0.203
						c1.199-1.158,2.4-2.312,3.806-3.688c0.206-0.226,0.662-0.683,1.073-1.131l0.855-0.781l-6.183,6.15l0.095,0.1l0.499,0.502
						l1.281,1.291L73,38.515l-0.522-0.523l-0.104-0.109L72.39,37.864z"/>
					<path fill="#D22F2F" d="M65.702,38.668c4.1,4.049,8.717,8.848,12.781,12.729c-4.604-4.715-11.012-11.166-11.55-12
						c-0.54-0.837,6.388,6.361,10.042,10l-0.932-0.994c0.464,0.498,0.932,0.994,1.377,1.41c-0.932-0.998-2.774-2.896-3.26-3.481
						l0.895,0.823c-2.346-2.57-6.928-7.2-9.273-9.769c5.004,5.312,10.975,11.404,17.317,17.779l9.717,9.713l9.532,9.469l2.258-2.279
						l-2.986-2.965c-8.196-8.098-15.891-15.525-23.117-22.461c-1.36-1.32-4.565-4.549-6.854-6.86l-1.916-1.899l6.089-6.169
						l5.381-5.502c3.816-3.881,7.613-7.677,11.463-11.511l11.039-10.994l-0.631-0.628l-0.695-0.692l-0.035-0.033l-0.006-0.005
						c-0.014,0.012-0.024,0.02-0.041,0.027l-0.006,0.003c-0.002,0,0.004-0.003-0.006,0.002l-0.043,0.041l-0.166,0.16l-0.319,0.305
						c-0.416,0.386-0.759,0.692-0.919,0.815c-0.163,0.122-0.146,0.062,0.166-0.286c0.152-0.174,0.381-0.421,0.695-0.75l0.459-0.48
						l0.183-0.2l0.073,0.069l0.096,0.085l0.049,0.046l0.136,0.132l0.657,0.641l0.562,0.546l0.215,0.204l-0.166,0.174l-0.358,0.367
						l-1.073,1.09l-2.152,2.176l-4.334,4.354c0.396-0.483,2.221-2.255,3.024-3.13c-2.812,2.758-5.128,5.048-7.854,7.784l5.455-5.476
						L82.124,25.652c-1.82,1.824-3.564,3.275-6.037,5.961c6.546-6.445,13.293-13.078,19.957-19.746l-0.026,0.038l8.133-8.14
						l-0.266,0.277l-0.661,0.666l-1.255,1.253l2.302-2.259l-0.96-0.977l-0.97-0.982L95.985,8.06l6.355-6.484l2.154,2.127
						L91.409,16.814c-4.494,4.49-8.953,8.947-13.233,13.271c3.392-3.239,7.682-7.747,10.666-10.543L72.434,35.883l1.195-1.235
						l-1.461,1.427l-1.82,1.802l7.988,7.978l0.914,0.928l-0.914-0.928l-7.911-7.978l2.008-1.994l-1.968,1.994l3.273,3.282
						c-0.381-0.404-0.837-0.88-1.336-1.399l-1.844-1.883l0.995-0.979l5.485-5.471l-3.147,3.171l-3.222,3.277l2.08,2.032
						l-2.006-2.032l9.838-9.763l-6.268,6.301l-3.488,3.459l7.348,7.396l-0.414-0.403l0.818,0.812l4.213,4.231
						c1.271,1.266,2.535,2.49,3.795,3.703l0.631,0.627c-0.412-0.383-0.619-0.561,0.139,0.215c3.223,3.307,6.837,6.773,10.523,10.578
						c0.969,0.998,2.303,2.314,3.742,3.732c0.377,0.4,0.59,0.6,0.783,0.773l0.939,0.924l1.613,1.598l-0.436,0.445l0.443-0.445
						l-1.622-1.598l-0.856-0.852c0.207,0.182,0.428,0.371,0.848,0.793l-16.12-16.164l1.014,0.949l-1.646-1.578l-5.312-5.279
						c0.536,0.52,1.036,0.994,1.481,1.408L70.866,37.873l3.443-3.462l14.208-14.089c-2.569,2.482-5.235,5.107-7.938,7.788
						c7.141-7.181,14.301-14.361,21.49-21.463c-1.236,1.341-2.971,3.149-3.709,4.024c0.084-0.019,2.398-2.31,1.078-0.948
						c-4.788,4.974-8.375,8.392-10.179,10.57c-0.326,0.43,5.327-4.866,3.595-3.06l-6.932,7.021l-2.57,2.554
						c-0.113,0.106-0.288,0.303-0.511,0.547c-3.084,3.104-6.028,6.047-7.669,7.665l-1.818,1.795
						c-0.324,0.304-0.607,0.557-0.832,0.75l-0.098,0.104l-0.025,0.03l-0.047,0.06l-0.087,0.108l0.063,0.055l4.31,4.354l2.569,2.662
						c-0.006-0.026-0.131-0.185,0.05-0.028l5.868,5.895c0.777,0.809,1.483,1.561,2.102,2.236c2.229,2.02,7.061,6.982,10.479,10.369
						v-0.008l5.179,5.189l0.782,0.854c0.449,0.414,0.904,0.865,1.131,1.072l1.509,1.533l-1.222,1.203l-0.758,0.734l-1.799,1.75
						l-0.18,0.189l-0.697-0.648l-0.438-0.42l-0.364-0.355l-2.66-2.66l-3.057-3.084L84.898,58.379
						c-0.095-0.119-0.104-0.162-0.114-0.205c-0.552-0.51-1.271-1.264-1.758-1.727c0.096,0.088,0.16,0.137,0.154,0.113
						c-1.584-1.525-1.831-1.859-3.214-3.27c-0.318-0.314-0.628-0.592-0.943-0.896l-0.456-0.467
						c-1.506-1.654-3.103-3.203-4.861-4.967l-5.213-5.326C67.116,40.247,66.632,39.663,65.702,38.668z"/>
					<path fill="#D22F2F" d="M93.885,59.686l4.861,4.967C96.987,62.891,95.39,61.346,93.885,59.686z"/>
					<path fill="#D22F2F" d="M94.122,16.077c0.679-0.617,1.432-1.326,2.238-2.104L83.759,26.551H83.75
						C87.14,23.136,92.101,18.302,94.122,16.077z"/>
					<path fill="#D22F2F" d="M89.428,55.17l0.245,0.221l0.014,0.018C89.61,55.342,89.526,55.262,89.428,55.17z"/>
					<path fill="#D22F2F" d="M101.493,7.423l0.404-0.402l-3.06,3.099C99.645,9.284,100.556,8.365,101.493,7.423z"/>
					<path fill="#D22F2F" d="M97.857,5.235l-6.267,6.301c-2.706,2.685-5.372,5.31-7.939,7.791L97.857,5.235z"/>
					<path fill="#D22F2F" d="M102.226,8.054l2.663-2.567L102.252,8.1C102.409,7.925,102.254,8.05,102.226,8.054z"/>
					<polygon fill="#D22F2F" points="92.928,16.059 93.556,15.431 91.976,17.077 					"/>
					<path fill="#D22F2F" d="M98.813,2.833l1.938-1.913c-0.375,0.389-0.741,0.771-1.107,1.166
						C99.42,2.273,99.134,2.531,98.813,2.833z"/>
					<path fill="#D22F2F" d="M88.814,12.841l-2.567,2.552l3.08-3.104C89.104,12.539,88.929,12.734,88.814,12.841z"/>
				</g>
			</g>
		</g>
	</g>
	<g>
		<g>
			<g>
				<g>
					<path fill="#D22F2F" d="M70.59,77.012L53.668,60.153l6.344,6.318c-3.169-3.16-5.83-5.842-9.029-9.098
						c1.008,0.938,3.068,3.055,3.62,3.514c7.729,7.729,15.427,15.537,22.904,23.117C74.411,81.123,72.706,79.119,70.59,77.012z"/>
					<path fill="#D22F2F" d="M42.467,48.758l2.285,2.281C43.95,50.244,43.163,49.467,42.467,48.758z"/>
					<path fill="#D22F2F" d="M49.329,61.524l-2.646-2.623C47.559,59.754,48.442,60.637,49.329,61.524z"/>
					<polygon fill="#D22F2F" points="80.98,86.901 82.405,88.285 85.366,91.268 82.393,94.217 78.284,90.071 82.393,94.174 
						85.292,91.268 83.222,89.182 					"/>
					<path fill="#D22F2F" d="M77.234,82.959c-3.627-3.615-7.286-7.314-10.678-10.795C69.958,75.637,73.559,79.268,77.234,82.959z"/>
					<path fill="#D22F2F" d="M22.745,76.199c0.022-0.008-0.039,0.066-0.138,0.176c-0.106,0.111-0.2,0.213-0.274,0.299l-4.418,4.346
						c0.357-0.365,0.676-0.723,1.045-1.092C20.586,78.332,20.966,78.031,22.745,76.199z"/>
					<polygon fill="#D22F2F" points="50.319,62.506 50.415,62.592 51.325,63.485 51.428,63.596 					"/>
					<path fill="#D22F2F" d="M24.61,74.344c0.045-0.014,0.092-0.027,0.231-0.143l-2.492,2.457l0.257-0.279
						C23.144,75.817,24.02,74.975,24.61,74.344z"/>
					<path fill="#D22F2F" d="M42.836,56.385c0.044,0.043,0.087,0.07,0.139,0.102c-0.005-0.012,0.066,0.055,0.115,0.098l0.145,0.133
						l0.235,0.215l4.285,4.402c0.259,0.242,0.786,0.77,1.304,1.246l0.915,0.986l-7.14-7.168l-0.118,0.117l-0.738,0.732l-1.545,1.535
						l1.511-1.514l0.762-0.762l0.131-0.127V56.385z"/>
					<path fill="#D22F2F" d="M41.961,48.893c-4.697,4.75-10.243,10.113-14.754,14.811c5.455-5.344,12.927-12.775,13.871-13.422
						c0.946-0.646-7.375,7.4-11.595,11.637l1.148-1.086c-0.573,0.541-1.148,1.086-1.628,1.602c1.146-1.088,3.346-3.227,4.015-3.797
						l-0.96,1.031c2.959-2.74,8.322-8.053,11.281-10.791c-6.141,5.832-13.2,12.773-20.596,20.137L11.471,80.291L0.431,91.395
						l2.729,2.709l3.438-3.457c9.392-9.49,18.022-18.387,26.084-26.742c1.533-1.574,5.269-5.291,7.949-7.945l2.2-2.221l6.988,6.91
						l6.315,6.191c4.5,4.441,8.907,8.848,13.362,13.318l12.894,12.938l1.812-1.82l0.008-0.01c-0.01-0.016-0.02-0.027-0.029-0.045
						l-0.689-0.727c-0.439-0.467-0.787-0.852-0.93-1.029c-0.142-0.176-0.07-0.152,0.32,0.203c0.197,0.18,0.476,0.438,0.848,0.797
						l0.617,0.596l0.227,0.205l-0.096,0.1l-0.102,0.107l-0.32,0.332l-0.732,0.75l-0.701,0.715l-0.23,0.242l-0.204-0.193
						l-0.517-0.508l-1.266-1.248l-2.535-2.508L72.801,84c0.553,0.465,2.611,2.578,3.619,3.514c-3.2-3.256-5.856-5.934-9.03-9.098
						l6.345,6.324l-16.92-16.861c-2.119-2.111-3.822-4.109-6.917-6.988C57.375,68.463,65.073,76.28,72.801,84l-0.043-0.033
						l9.544,9.535l-1.204-1.184l-1.451-1.457l2.747,2.791l2.422-2.391l-7.344-7.383l7.506,7.383l-2.584,2.615L51.709,63.264
						c3.767,3.916,8.976,8.91,12.229,12.352L44.995,56.608l1.428,1.389l-1.606-1.645l-1.983-2l-9.295,9.305l-1.071,1.064
						l1.071-1.064l9.295-9.227l2.162,2.174l-2.162-2.135l-3.858,3.852l1.662-1.598l2.196-2.156l1.004,1.018l6.332,6.35l-3.621-3.598
						l-3.715-3.664l-2.432,2.482l2.432-2.406L54.027,66.02l-7.3-7.266l-3.895-3.922l-8.654,8.604l0.472-0.479l-0.944,0.947
						l-4.898,4.883c-1.469,1.477-2.893,2.938-4.301,4.395l-0.727,0.727c0.445-0.475,0.653-0.709-0.24,0.168
						c-3.83,3.742-7.859,7.922-12.26,12.203c-1.156,1.125-2.683,2.67-4.328,4.338c-0.461,0.438-0.69,0.682-0.893,0.904L4.987,92.61
						l-1.828,1.84l-0.558-0.547l0.558,0.557l1.828-1.85l0.982-0.99c-0.211,0.236-0.434,0.49-0.922,0.977L23.78,73.905l-1.109,1.174
						l1.834-1.9l6.121-6.156c-0.603,0.619-1.155,1.197-1.635,1.713l13.842-13.861l3.894,3.877l16.342,16.457
						c-2.885-2.973-5.932-6.057-9.042-9.189c8.318,8.275,16.643,16.58,24.881,24.902c-1.549-1.439-3.639-3.455-4.642-4.322
						c0.024,0.094,2.685,2.773,1.11,1.238c-5.752-5.561-9.726-9.703-12.223-11.824c-0.486-0.385,5.68,6.139,3.592,4.123
						l-8.133-8.043l-2.962-2.975c-0.124-0.133-0.349-0.338-0.632-0.6c-3.592-3.572-7.006-6.984-8.886-8.887l-2.08-2.105
						c-0.353-0.375-0.65-0.699-0.875-0.957l-0.121-0.113c-0.026-0.025-0.028-0.025-0.032-0.031l-0.014-0.016l-0.062-0.051
						l-0.115-0.094l-0.086,0.1l-5.221,5.176l-3.08,2.984c0.033-0.01,0.211-0.156,0.031,0.049l-6.832,6.807
						c-0.936,0.904-1.803,1.729-2.582,2.445C22.708,76.389,16.966,82,13.036,85.959h0.011l-6.013,6.006l-0.986,0.916
						C5.564,93.399,5.04,93.924,4.8,94.182l-1.642,1.619l-1.379-1.4l-0.809-0.832l-2.008-2.061l-0.127-0.119l0.783-0.832
						l0.498-0.523l0.344-0.354l3.085-3.084l3.571-3.543L19.135,71.18c0.141-0.109,0.188-0.125,0.234-0.141
						c0.592-0.633,1.465-1.477,2.002-2.033c-0.1,0.109-0.16,0.184-0.133,0.174c1.772-1.828,2.151-2.127,3.781-3.729
						c0.366-0.367,0.689-0.725,1.043-1.088l0.54-0.533c1.906-1.754,3.705-3.604,5.747-5.641l6.167-6.053
						C40.146,50.545,40.812,49.977,41.961,48.893z"/>
					<path fill="#D22F2F" d="M17.377,81.547l-5.75,5.645C13.671,85.153,15.469,83.305,17.377,81.547z"/>
					<path fill="#D22F2F" d="M68.107,81.596c0.72,0.783,1.544,1.652,2.447,2.584l-14.579-14.6l-0.001-0.008
						C59.932,73.498,65.543,79.24,68.107,81.596z"/>
					<path fill="#D22F2F" d="M22.607,76.375l-0.257,0.281l-0.018,0.018C22.409,76.588,22.5,76.487,22.607,76.375z"/>
					<path fill="#D22F2F" d="M78.036,90.242l0.47,0.471l-3.591-3.549C75.879,88.1,76.944,89.155,78.036,90.242z"/>
					<path fill="#D22F2F" d="M80.676,86.139l-7.303-7.268c-3.109-3.135-6.156-6.223-9.041-9.191L80.676,86.139z"/>
					<path fill="#D22F2F" d="M77.413,90.985l2.982,3.076l-3.031-3.049C77.565,91.194,77.418,91.012,77.413,90.985z"/>
					<polygon fill="#D22F2F" points="68.028,80.313 68.757,81.039 66.857,79.205 					"/>
					<path fill="#D22F2F" d="M83.347,87.362l2.222,2.24l-1.35-1.287C83.997,88.059,83.698,87.735,83.347,87.362z"/>
					<path fill="#D22F2F" d="M71.747,75.772l-2.959-2.975l3.593,3.57C72.096,76.108,71.872,75.906,71.747,75.772z"/>
				</g>
			</g>
		</g>
	</g>
	<g>
		<g>
			<g>
				<g>
					<path fill="#D22F2F" d="M66.216,84.875L51.612,70.332l5.477,5.453c-2.737-2.727-5.03-5.043-7.787-7.855
						c0.872,0.807,2.646,2.633,3.13,3.025c6.668,6.666,13.302,13.412,19.745,19.959C69.493,88.438,68.04,86.694,66.216,84.875z"/>
					<path fill="#D22F2F" d="M41.961,60.489l1.97,1.965C43.239,61.77,42.56,61.098,41.961,60.489z"/>
					<path fill="#D22F2F" d="M48.03,71.537l-2.289-2.262C46.502,70.012,47.265,70.776,48.03,71.537z"/>
					<polygon fill="#D22F2F" points="75.213,93.369 76.448,94.569 79.02,97.16 76.51,99.645 73.042,96.141 76.51,99.612 
						78.948,97.16 77.168,95.367 					"/>
					<path fill="#D22F2F" d="M71.995,89.959c-3.131-3.121-6.285-6.311-9.203-9.326C65.719,83.637,68.827,86.776,71.995,89.959z"/>
					<path fill="#D22F2F" d="M25.163,84.096c0.021-0.004-0.031,0.062-0.114,0.158c-0.091,0.094-0.171,0.182-0.236,0.258l-3.817,3.74
						c0.309-0.316,0.582-0.625,0.899-0.941C23.3,85.934,23.632,85.682,25.163,84.096z"/>
					<polygon fill="#D22F2F" points="48.884,72.385 48.967,72.457 49.752,73.225 49.842,73.324 					"/>
					<path fill="#D22F2F" d="M26.772,82.494c0.042-0.008,0.086-0.016,0.207-0.113l-2.152,2.117l0.221-0.242
						C25.509,83.766,26.267,83.043,26.772,82.494z"/>
					<path fill="#D22F2F" d="M42.352,67.215c0.037,0.037,0.077,0.059,0.121,0.082l0.018,0.008l0.065,0.061l0.127,0.113l0.203,0.184
						c1.155,1.201,2.312,2.4,3.688,3.807c0.224,0.207,0.682,0.664,1.129,1.074l0.783,0.855l-6.154-6.184l-0.098,0.096l-0.504,0.498
						l-1.29,1.281l1.261-1.266l0.523-0.521l0.109-0.105L42.352,67.215z"/>
					<path fill="#D22F2F" d="M41.55,60.526c-4.05,4.102-8.847,8.721-12.728,12.781c4.715-4.604,11.164-11.01,11.998-11.549
						c0.838-0.541-6.361,6.391-10,10.043l0.996-0.932c-0.496,0.465-0.996,0.932-1.406,1.379c0.994-0.934,2.896-2.775,3.478-3.262
						l-0.823,0.895c2.568-2.348,7.2-6.93,9.768-9.273c-5.313,5.006-11.403,10.975-17.777,17.316l-9.712,9.717l-9.468,9.535
						l2.275,2.256l2.969-2.986c8.097-8.197,15.523-15.891,22.461-23.121c1.318-1.359,4.545-4.562,6.858-6.854l1.899-1.916
						l6.169,6.09l5.501,5.381c3.88,3.818,7.677,7.615,11.512,11.465l10.991,11.037l0.629-0.633l0.692-0.693l0.033-0.035l0.006-0.006
						c-0.012-0.012-0.019-0.025-0.027-0.037l-0.003-0.006c-0.003-0.004,0.002,0-0.007-0.006l-0.039-0.043l-0.158-0.166l-0.307-0.324
						c-0.385-0.412-0.691-0.756-0.815-0.918c-0.122-0.162-0.062-0.145,0.285,0.166c0.175,0.154,0.42,0.383,0.75,0.697l0.479,0.457
						l0.203,0.182l-0.07,0.076l-0.086,0.096l-0.045,0.047L77.9,97.516l-0.644,0.66l-0.547,0.561l-0.202,0.215l-0.175-0.166
						l-0.369-0.357l-1.088-1.07L72.7,95.205l-4.354-4.334c0.483,0.393,2.257,2.219,3.129,3.021
						c-2.756-2.812-5.047-5.125-7.787-7.855l5.478,5.457L54.564,76.949c-1.827-1.824-3.276-3.564-5.96-6.037
						c6.443,6.543,13.077,13.289,19.745,19.957l-0.038-0.029l8.141,8.131l-0.274-0.264l-0.668-0.66l-1.251-1.256l2.256,2.301
						l0.975-0.957l0.984-0.973l-6.314-6.355l6.483,6.355l-2.128,2.156L63.405,86.231c-4.494-4.494-8.949-8.953-13.271-13.232
						c3.238,3.391,7.749,7.682,10.542,10.666L44.334,67.26l1.236,1.191l-1.428-1.461l-1.802-1.818l-7.979,7.984l-0.927,0.918
						l0.927-0.918l7.979-7.908l1.993,2.008l-1.993-1.967l-3.282,3.271c0.406-0.381,0.882-0.838,1.398-1.338l1.884-1.842l0.979,0.994
						l5.469,5.486l-3.172-3.146l-3.275-3.223l-2.032,2.082l2.032-2.01l9.763,9.84l-6.302-6.268l-3.459-3.486l-7.396,7.348
						l0.406-0.416l-0.814,0.82l-4.229,4.211c-1.268,1.271-2.492,2.535-3.705,3.797l-0.626,0.627c0.382-0.41,0.56-0.617-0.212,0.143
						c-3.309,3.221-6.777,6.836-10.582,10.523c-0.997,0.967-2.314,2.301-3.732,3.742c-0.399,0.377-0.599,0.588-0.77,0.777
						L9.76,98.166l-1.602,1.615l-0.443-0.438l0.443,0.443l1.602-1.625l0.847-0.854c-0.182,0.207-0.372,0.428-0.792,0.848
						L25.98,82.033l-0.955,1.016l1.581-1.645l5.28-5.314c-0.519,0.535-0.995,1.039-1.406,1.48l11.863-11.883l3.461,3.445
						l14.09,14.209c-2.481-2.568-5.108-5.232-7.79-7.938c7.178,7.141,14.361,14.303,21.462,21.49
						c-1.341-1.238-3.149-2.973-4.024-3.709c0.018,0.084,2.31,2.398,0.949,1.076c-4.974-4.785-8.392-8.373-10.572-10.178
						c-0.426-0.322,4.867,5.33,3.061,3.596l-7.023-6.932l-2.553-2.57c-0.106-0.115-0.303-0.289-0.549-0.512
						c-3.1-3.08-6.047-6.027-7.667-7.668l-1.792-1.82c-0.304-0.32-0.559-0.605-0.751-0.832l-0.104-0.098l-0.03-0.023l-0.062-0.047
						l-0.108-0.088l-0.054,0.062l-4.353,4.311l-2.665,2.57c0.029-0.008,0.186-0.131,0.031,0.047l-5.895,5.869
						c-0.81,0.779-1.562,1.484-2.238,2.104c-2.019,2.227-6.98,7.061-10.368,10.475h0.009l-5.189,5.182l-0.856,0.783
						c-0.413,0.449-0.866,0.904-1.073,1.129l-1.535,1.51L6.954,99.91L6.22,99.153l-1.75-1.799l-0.192-0.18l0.644-0.693l0.417-0.438
						l0.355-0.367l2.66-2.66l3.083-3.057l10.38-10.23c0.121-0.098,0.165-0.105,0.208-0.115c0.507-0.553,1.263-1.271,1.724-1.76
						c-0.086,0.096-0.135,0.16-0.112,0.154c1.526-1.584,1.858-1.834,3.269-3.217c0.313-0.314,0.592-0.625,0.898-0.939l0.467-0.457
						c1.654-1.506,3.202-3.104,4.965-4.859l5.329-5.213C39.972,61.942,40.554,61.457,41.55,60.526z"/>
					<path fill="#D22F2F" d="M20.532,88.713l-4.966,4.857C17.327,91.811,18.874,90.217,20.532,88.713z"/>
					<path fill="#D22F2F" d="M64.141,88.949c0.616,0.676,1.326,1.428,2.104,2.234l-12.578-12.6v-0.006
						C57.081,81.965,61.917,86.928,64.141,88.949z"/>
					<path fill="#D22F2F" d="M25.048,84.256l-0.222,0.242l-0.016,0.016C24.877,84.434,24.956,84.348,25.048,84.256z"/>
					<path fill="#D22F2F" d="M72.795,96.319l0.402,0.402L70.1,93.662C70.934,94.471,71.852,95.381,72.795,96.319z"/>
					<path fill="#D22F2F" d="M74.983,92.684l-6.303-6.27c-2.682-2.705-5.307-5.371-7.791-7.939L74.983,92.684z"/>
					<path fill="#D22F2F" d="M72.163,97.049l2.568,2.662l-2.613-2.629C72.292,97.237,72.168,97.078,72.163,97.049z"/>
					<polygon fill="#D22F2F" points="64.157,87.752 64.786,88.381 63.142,86.805 					"/>
					<path fill="#D22F2F" d="M77.386,93.641l1.915,1.938c-0.387-0.375-0.773-0.742-1.166-1.107
						C77.944,94.244,77.687,93.959,77.386,93.641z"/>
					<path fill="#D22F2F" d="M67.379,83.639l-2.553-2.568l3.102,3.082C67.681,83.93,67.487,83.754,67.379,83.639z"/>
				</g>
			</g>
		</g>
	</g>
</g>
</svg>
