<?xml version="1.0" encoding="utf-8"?>
<!-- Generator: Adobe Illustrator 15.1.0, SVG Export Plug-In . SVG Version: 6.00 Build 0)  -->
<!DOCTYPE svg PUBLIC "-//W3C//DTD SVG 1.1//EN" "http://www.w3.org/Graphics/SVG/1.1/DTD/svg11.dtd">
<svg version="1.1" id="Layer_1" xmlns="http://www.w3.org/2000/svg" xmlns:xlink="http://www.w3.org/1999/xlink" x="0px" y="0px"
	 width="100px" height="100px" viewBox="0 0 100 100" enable-background="new 0 0 100 100" xml:space="preserve">
<g>
	<path fill="#FFFFFF" d="M72.915,66.569c0,2.602-0.788,4.662-2.375,6.172C68.957,74.25,66.848,75,64.227,75H35.772
		c-2.621,0-4.729-0.75-6.313-2.259c-1.582-1.51-2.374-3.57-2.374-6.172c0-1.148,0.038-2.27,0.114-3.371
		c0.077-1.092,0.229-2.278,0.456-3.552c0.228-1.262,0.513-2.438,0.859-3.531c0.352-1.082,0.816-2.137,1.4-3.17
		c0.589-1.029,1.258-1.907,2.018-2.636c0.764-0.726,1.685-1.307,2.786-1.741c1.091-0.432,2.307-0.651,3.627-0.651
		c0.198,0,0.654,0.236,1.367,0.701c0.712,0.469,1.528,0.988,2.421,1.562c0.902,0.575,2.079,1.097,3.523,1.563
		c1.444,0.466,2.886,0.697,4.339,0.697c1.461,0,2.904-0.231,4.348-0.697c1.444-0.467,2.621-0.988,3.513-1.563
		c0.901-0.574,1.709-1.094,2.43-1.562c0.714-0.464,1.169-0.701,1.368-0.701c1.321,0,2.537,0.219,3.627,0.651
		c1.104,0.435,2.022,1.016,2.782,1.741c0.76,0.729,1.434,1.607,2.022,2.636c0.59,1.033,1.055,2.088,1.396,3.17
		c0.352,1.093,0.636,2.271,0.864,3.531c0.228,1.272,0.38,2.46,0.455,3.552C72.878,64.3,72.915,65.421,72.915,66.569z M58.835,28.663
		c2.439,2.442,3.663,5.388,3.663,8.839c0,3.449-1.224,6.395-3.663,8.837c-2.44,2.442-5.385,3.663-8.84,3.663
		c-3.446,0-6.391-1.22-8.83-3.663c-2.45-2.442-3.666-5.388-3.666-8.837c0-3.451,1.215-6.397,3.666-8.839
		C43.605,26.222,46.549,25,49.995,25C53.45,25,56.395,26.222,58.835,28.663z"/>
</g>
</svg>
