<?xml version="1.0" encoding="utf-8"?>
<!-- Generator: Adobe Illustrator 15.1.0, SVG Export Plug-In . SVG Version: 6.00 Build 0)  -->
<!DOCTYPE svg PUBLIC "-//W3C//DTD SVG 1.1//EN" "http://www.w3.org/Graphics/SVG/1.1/DTD/svg11.dtd">
<svg version="1.1" id="Layer_1" xmlns="http://www.w3.org/2000/svg" xmlns:xlink="http://www.w3.org/1999/xlink" x="0px" y="0px"
	 width="80.966px" height="91.774px" viewBox="34.382 150.584 80.966 91.774" enable-background="new 34.382 150.584 80.966 91.774"
	 xml:space="preserve">
<g>
	<g>
		<g>
			
				<rect x="76.054" y="152.562" transform="matrix(0.7703 -0.6376 0.6376 0.7703 -111.5096 95.9752)" fill="#D22F2F" width="2.855" height="100.454"/>
			<path d="M43.318,165.131c0.189,0.269,0.572,0.323,0.854,0.125l2.735-1.927c0.284-0.198,0.36-0.579,0.171-0.848l0,0
				c-0.191-0.267-0.574-0.323-0.856-0.122l-2.735,1.926C43.205,164.481,43.13,164.861,43.318,165.131L43.318,165.131z"/>
			<path d="M41.799,163.128c0.215,0.247,0.604,0.264,0.864,0.035l2.52-2.198c0.262-0.229,0.298-0.614,0.083-0.858l0,0
				c-0.214-0.247-0.602-0.267-0.862-0.038l-2.521,2.198C41.62,162.495,41.582,162.881,41.799,163.128L41.799,163.128z"/>
			<path d="M43.355,165.158c0.24,0.226,0.625,0.203,0.864-0.05l2.29-2.437c0.238-0.253,0.236-0.639-0.004-0.864l0,0
				c-0.237-0.226-0.624-0.204-0.862,0.049l-2.29,2.438C43.115,164.546,43.116,164.933,43.355,165.158L43.355,165.158z"/>
			<path fill="#EF4538" d="M34.382,150.561c3.502,3.527,7.127,4.744,8.534,6.44c1.407,1.698,0.488,4.45,0.488,4.45
				s-2.875,0.392-4.281-1.307C37.715,158.446,37.194,154.658,34.382,150.561z"/>
			<path d="M45.909,160.908c0.241,0.226,0.243,0.611,0.005,0.866l-2.282,2.443c-0.235,0.255-0.622,0.279-0.863,0.054l0,0
				c-0.24-0.223-0.243-0.611-0.007-0.863l2.283-2.446C45.282,160.71,45.667,160.686,45.909,160.908L45.909,160.908z"/>
			<path d="M45.931,160.948c0.19,0.27,0.114,0.65-0.169,0.849l-2.727,1.938c-0.283,0.2-0.667,0.146-0.855-0.123l0,0
				c-0.19-0.266-0.115-0.649,0.167-0.848l2.728-1.938C45.355,160.628,45.742,160.683,45.931,160.948L45.931,160.948z"/>
			<path d="M44.891,159.699c0.188,0.269,0.109,0.649-0.175,0.845l-2.743,1.913c-0.284,0.198-0.668,0.141-0.856-0.128l0,0
				c-0.188-0.27-0.109-0.649,0.175-0.845l2.745-1.913C44.321,159.373,44.705,159.43,44.891,159.699L44.891,159.699z"/>
			
				<rect x="71.119" y="152.562" transform="matrix(-0.7703 -0.6376 0.6376 -0.7703 -0.8706 405.2626)" fill="#D22F2F" width="2.855" height="100.452"/>
			<path d="M106.693,165.131c-0.189,0.269-0.572,0.323-0.854,0.125l-2.734-1.927c-0.283-0.198-0.361-0.579-0.17-0.848l0,0
				c0.189-0.267,0.571-0.323,0.854-0.122l2.735,1.926C106.808,164.481,106.884,164.861,106.693,165.131L106.693,165.131z"/>
			<path d="M108.214,163.128c-0.216,0.247-0.603,0.264-0.864,0.035l-2.521-2.198c-0.262-0.229-0.299-0.614-0.083-0.858l0,0
				c0.215-0.247,0.602-0.267,0.862-0.038l2.521,2.198C108.394,162.495,108.43,162.881,108.214,163.128L108.214,163.128z"/>
			<path d="M106.657,165.158c-0.238,0.226-0.625,0.203-0.862-0.05l-2.29-2.437c-0.238-0.253-0.237-0.639,0.004-0.864l0,0
				c0.239-0.226,0.624-0.204,0.863,0.049l2.289,2.438C106.899,164.546,106.897,164.933,106.657,165.158L106.657,165.158z"/>
			<path fill="#EF4538" d="M115.633,150.561c-3.503,3.527-7.13,4.744-8.534,6.44c-1.407,1.698-0.49,4.45-0.49,4.45
				s2.876,0.392,4.282-1.307C112.296,158.446,112.82,154.658,115.633,150.561z"/>
			<path d="M104.105,160.908c-0.24,0.226-0.243,0.611-0.007,0.866l2.283,2.443c0.235,0.255,0.62,0.279,0.862,0.054l0,0
				c0.239-0.223,0.243-0.611,0.006-0.863l-2.282-2.446C104.731,160.71,104.345,160.686,104.105,160.908L104.105,160.908z"/>
			<path d="M104.082,160.948c-0.19,0.27-0.115,0.65,0.168,0.849l2.727,1.938c0.283,0.2,0.667,0.144,0.854-0.123l0,0
				c0.192-0.266,0.116-0.649-0.167-0.848l-2.728-1.938C104.655,160.628,104.272,160.683,104.082,160.948L104.082,160.948z"/>
			<path d="M105.119,159.699c-0.188,0.269-0.107,0.649,0.176,0.845l2.745,1.913c0.284,0.198,0.666,0.141,0.854-0.128l0,0
				c0.188-0.27,0.109-0.649-0.175-0.845l-2.746-1.913C105.691,159.373,105.309,159.43,105.119,159.699L105.119,159.699z"/>
		</g>
		<polygon points="52.775,231.283 47.959,175.236 75.006,169.193 102.053,175.236 97.235,231.283 75.006,241.554 		"/>
		<g>
			<g>
				<g>
					<g>
						<defs>
							<polygon id="SVGID_1_" points="56.668,226.215 52.165,179.244 75.006,169.193 97.848,179.244 93.344,226.215 75.006,241.554 
															"/>
						</defs>
						<clipPath id="SVGID_2_">
							<use xlink:href="#SVGID_1_"  overflow="visible"/>
						</clipPath>
						<rect x="44.46" y="167.114" clip-path="url(#SVGID_2_)" fill="#EF4538" width="58.246" height="77.799"/>
					</g>
				</g>
			</g>
			<g>
				<g>
					<g>
						<defs>
							<polygon id="SVGID_3_" points="56.668,226.215 52.165,179.244 75.006,169.193 97.848,179.244 93.344,226.215 75.006,241.554 
															"/>
						</defs>
						<clipPath id="SVGID_4_">
							<use xlink:href="#SVGID_3_"  overflow="visible"/>
						</clipPath>
						<g clip-path="url(#SVGID_4_)">
							<g>
								<g>
									<g>
										<g>
											<path fill="#D22F2F" d="M58.478,192.79l13.686,13.651L46.76,231.867l14.296-14.317
												c-7.144,7.154-13.192,13.176-20.509,20.439c2.162-2.231,6.904-6.921,8.005-8.108l23.494-23.442l-29.24-29.398
												C49.662,183.689,53.702,188.023,58.478,192.79z"/>
											<polygon fill="#D22F2F" points="28.979,256.54 25.433,252.996 26.292,252.141 25.438,252.996 											"/>
											<path fill="#D22F2F" d="M106.814,170.889l5.938-5.965L106.814,170.889z"/>
											<polygon fill="#D22F2F" points="35.319,170.136 32.125,166.979 25.051,159.884 28.603,156.343 41.63,169.419 
												28.603,156.4 25.123,159.884 30.159,164.933 											"/>
											<path fill="#D22F2F" d="M43.906,178.915c8.189,8.18,16.478,16.505,24.196,24.317
												C60.375,195.431,52.215,187.241,43.906,178.915z"/>
											<path fill="#D22F2F" d="M83.765,202.816c0.041-0.027-0.107,0.136-0.333,0.375l-0.635,0.657l-2.617,2.596l6.169,6.22
												l-2.436-2.394l-2.412-2.443l-0.963-0.98l-0.389-0.402l0.312-0.305l0.937-0.935L83.765,202.816z"/>
											<polygon fill="#D22F2F" points="104.591,173.119 104.387,173.334 102.358,175.375 102.11,175.616 											"/>
											<path fill="#D22F2F" d="M87.974,198.613c0.083-0.049,0.168-0.101,0.467-0.375l-5.606,5.57l0.597-0.62
												C84.657,201.941,86.615,200.015,87.974,198.613z"/>
											<polygon fill="#D22F2F" points="121.168,155.183 119.894,156.468 119.127,157.259 117.983,158.451 108.111,168.206 
												105.256,171.117 103.072,173.229 121.717,154.612 126.978,159.884 123.557,163.299 126.967,159.884 121.717,154.631 
																							"/>
											<path fill="#D22F2F" d="M30.364,255.526c10.644-10.695,23.06-22.932,33.369-33.423
												c-12.253,12.144-29.107,28.956-31.054,30.604c-1.949,1.655,16.68-16.705,26.22-26.262l-2.554,2.491
												c1.276-1.244,2.554-2.491,3.66-3.63c-2.553,2.491-7.484,7.363-8.932,8.714l2.213-2.285
												c-6.544,6.323-18.632,18.36-25.179,24.684c6.917-6.758,14.392-14.124,22.248-21.912l12.05-11.967l12.755-12.714
												l46.557,46.498l3.32-3.329l-15.876-15.839L78.19,206.441l29.516-29.926l7.66-7.682l8.976-8.953l-0.125-0.128l-2.5-2.483
												l-27.86,28.064l-18.696,18.752l-46.556-46.61l-2.392,2.397l-0.011,0.011l2.682,2.726c1.038,1.064,1.874,1.939,2.23,2.334
												c0.356,0.396,0.232,0.315-0.649-0.53l-1.929-1.875l-2.696-2.654l0.187-0.19l1.526-1.544l1.053-1.067l12.588,12.505
												l13.196,13.171c-1.193-1.101-5.878-5.84-8.108-8.003c7.266,7.32,13.282,13.361,20.442,20.511l-14.324-14.299
												l22.761,22.741l16.576-16.616c4.774-4.782,9.101-8.815,15.746-15.674L75.16,203.572l-20.773-20.814l0.092,0.087
												L32.129,160.5l6.782,6.767l-10.309-10.369l-3.002,2.986l17.335,17.371l-17.501-17.371l3.168-3.185l46.557,46.522
												l27.315-27.355c-4.229,4.158-9.08,9.019-13.827,13.779l-6.952,6.959l-3.25,3.231l-3.285,3.241l-1.046-1.062l1.046,1.047
												l42.393-42.33l-3.16,3.203l7.326-7.276l3.223,3.226l-15.686,15.694l-2.417,2.408l2.417-2.408l15.753-15.694l-3.29-3.305
												l-4.166,4.152l4.166-4.193l3.345,3.343l-3.59,3.581l3.645-3.581l-3.399-3.435l-1.785,1.769l-14.319,14.302l16.104-16.182
												l3.586,3.546l-0.771,0.782l0.785-0.782l-3.6-3.619l-25.198,25.121l16.437-16.473l8.761-8.733l3.692,3.707l-14.977,14.937
												l1.072-1.076l-2.135,2.139l-11.059,11.046c-3.321,3.326-6.562,6.603-9.775,9.863l-1.643,1.645
												c1.024-1.052,1.514-1.571-0.499,0.427l-7.607,7.581l10.016,9.997c3.37,3.363,6.81,6.812,10.301,10.347
												c2.558,2.59,6.038,6.055,9.792,9.785c1.008,1.027,1.547,1.555,2.038,2.021l2.45,2.435l5.957,5.933l-5.957-5.933
												l-2.233-2.228c0.52,0.494,1.073,1.016,2.174,2.119l-34.435-34.477l8.002-8.008l-2.546,2.611l4.188-4.256l13.851-13.885
												c-1.368,1.386-2.638,2.677-3.742,3.817l26.83-26.841l-3.758-3.75l-8.761,8.776l-37.113,36.999
												c6.672-6.584,13.608-13.483,20.676-20.523l-21.361,21.39l-35.083-35.143c3.429,3.321,8.102,7.921,10.283,9.968
												c-0.097-0.166-6.117-6.209-2.588-2.718c6.438,6.342,11.926,11.828,16.482,16.355c2.279,2.264,4.322,4.288,6.136,6.062
												l2.546,2.467l1.142,1.09l0.54,0.508l0.335,0.302c0.076,0.065,0.007-0.021-0.147-0.198l-0.063-0.068l-0.104-0.113
												l-0.298-0.315l-0.744-0.78l-4.047-4.209c-2.825-2.938-5.195-5.415-2.861-3.116l8.475,8.418l8.57-8.605l6.716-6.701
												c0.292-0.282,0.767-0.78,1.365-1.402l20.082-20.075l4.739-4.714c0.831-0.812,1.546-1.503,2.111-2.033
												c0.85-0.869,1.296-1.331,2.973-3.021l1.04,1.032l4.106,4.117l-9.779,9.75l-6.897,6.801
												c0.059-0.035,0.44-0.386,0.019,0.06l-15.417,15.391c-2.094,2.065-4.026,3.951-5.748,5.614
												c-1.093,1.131-2.482,2.549-4.078,4.166l-4.747,4.776l17.268,17.279l-0.009-0.017l13.572,13.581l2.111,2.183l2.91,2.855
												l10.051,10.171l0.517,0.505l-1.573,1.62c-0.419,0.435-0.889,0.916-1.389,1.418l-1.954,1.951l-6.086-6.084l-8.025-8.049
												l-26.914-27.059c-0.271-0.299-0.321-0.383-0.377-0.473c-1.404-1.361-3.322-3.315-4.573-4.54
												c0.242,0.228,0.398,0.375,0.37,0.325l-0.952-0.938l-1.5,1.503l-1.573,1.552l-3.689,3.642l-2.387,2.429l-1.212,1.204
												c-4.212,4.062-8.307,8.203-12.917,12.814l-13.859,13.741C34.361,251.689,32.918,253.034,30.364,255.526z"/>
											<path fill="#D22F2F" d="M87.544,213.868l12.816,12.92C95.755,222.18,91.61,218.082,87.544,213.868z"/>
											<path fill="#D22F2F" d="M63.551,189.638c-1.664-1.726-3.556-3.663-5.613-5.75l17.222,17.233l14.335-14.328l0.018-0.009
												l-14.352,14.342l-6.263-6.241C66.791,192.795,64.953,190.991,63.551,189.638z"/>
											<polygon fill="#D22F2F" points="83.43,203.188 82.835,203.809 82.794,203.847 											"/>
											<polygon fill="#D22F2F" points="41.931,169.299 40.874,168.239 48.954,176.282 											"/>
											<polygon fill="#D22F2F" points="36.293,171.565 52.767,188.005 71.08,206.441 69.007,208.484 71.058,206.441 											
												"/>
											<path fill="#D22F2F" d="M42.48,168.483l-6.801-6.896l6.862,6.878C42.098,168.046,42.447,168.427,42.48,168.483z"/>
											<polygon fill="#D22F2F" points="64.491,191.784 62.847,190.141 67.099,194.328 											"/>
											<path fill="#D22F2F" d="M31.172,167.895l-5.029-5.052l3.005,2.945C29.674,166.348,30.367,167.065,31.172,167.895z"/>
											<path fill="#D22F2F" d="M57.372,194.083l6.695,6.712l-8.103-8.084C56.589,193.314,57.085,193.79,57.372,194.083z"/>
										</g>
									</g>
								</g>
							</g>
							<g>
								<g>
									<g>
										<g>
											<path fill="#D22F2F" d="M47.456,166.521l16.898,16.837l-6.336-6.312c3.165,3.154,5.822,5.834,9.015,9.084
												c-1.004-0.935-3.06-3.049-3.614-3.508c-7.719-7.715-15.403-15.514-22.87-23.081
												C43.639,162.419,45.343,164.416,47.456,166.521z"/>
											<path fill="#D22F2F" d="M75.538,194.735l-2.281-2.274C74.056,193.252,74.842,194.029,75.538,194.735z"/>
											<path fill="#D22F2F" d="M68.557,181.872l2.642,2.616C70.325,183.636,69.439,182.752,68.557,181.872z"/>
											<polygon fill="#D22F2F" points="37.08,156.647 35.656,155.265 32.639,152.224 35.601,149.286 39.641,153.362 
												35.601,149.324 32.709,152.224 34.811,154.335 											"/>
											<path fill="#D22F2F" d="M40.822,160.585c3.622,3.611,7.275,7.301,10.662,10.782
												C48.087,167.896,44.487,164.27,40.822,160.585z"/>
											<path fill="#D22F2F" d="M95.103,167.454c-0.025,0.005,0.037-0.071,0.134-0.18c0.106-0.108,0.201-0.209,0.274-0.296
												l4.413-4.34c-0.357,0.367-0.676,0.721-1.045,1.09C97.255,165.326,96.876,165.622,95.103,167.454z"/>
											<polygon fill="#D22F2F" points="67.569,180.888 67.471,180.801 66.564,179.91 66.46,179.799 											"/>
											<path fill="#D22F2F" d="M93.238,169.307c-0.045,0.014-0.093,0.027-0.234,0.139l2.489-2.448l-0.257,0.28
												C94.702,167.834,93.829,168.674,93.238,169.307z"/>
											<path fill="#D22F2F" d="M75.139,187.097c-0.022-0.021-0.044-0.038-0.067-0.054l-0.037-0.024l-0.018-0.011l-0.005-0.003
												l-0.022-0.02l-0.042-0.04l-0.541-0.492l-4.28-4.394c-0.257-0.242-0.785-0.77-1.301-1.248l-0.914-0.986l7.247,7.277
												l0.114-0.111l0.68-0.677l1.483-1.473l-1.451,1.454l-0.829,0.825L75.139,187.097z"/>
											<path fill="#D22F2F" d="M76.041,194.603c4.691-4.742,10.23-10.098,14.735-14.788
												c-5.447,5.334-12.908,12.755-13.852,13.402c-0.945,0.646,7.365-7.392,11.577-11.619l-1.146,1.084
												c0.572-0.541,1.146-1.084,1.626-1.598c-1.146,1.081-3.342,3.22-4.01,3.79l0.958-1.029
												c-2.955,2.733-8.311,8.04-11.267,10.773c6.124-5.814,13.162-12.732,20.536-20.075l11.239-11.244l11.008-11.072
												l-2.729-2.709l-3.494,3.511c-9.38,9.478-17.998,18.363-26.046,26.705c-1.531,1.57-5.262,5.282-7.939,7.935l-2.079,2.095
												l-7.039-6.959l-6.367-6.241c-4.485-4.427-8.877-8.817-13.315-13.271l-12.84-12.883l-1.808,1.812l-0.005,0.006
												c0.013,0.011,0.022,0.024,0.034,0.046l0.716,0.75c0.453,0.479,0.811,0.875,0.958,1.06
												c0.146,0.185,0.081,0.163-0.32-0.201c-0.202-0.182-0.485-0.448-0.867-0.815l-0.649-0.625l-0.232-0.214l0.08-0.085
												l0.1-0.108l0.288-0.299l0.749-0.764l0.723-0.736l0.235-0.25l0.203,0.193l0.509,0.5l1.258,1.241l2.516,2.492l5.032,5.014
												c-0.552-0.463-2.608-2.571-3.615-3.509c3.198,3.253,5.849,5.927,9.017,9.084l-6.337-6.312l16.9,16.834
												c2.116,2.105,3.815,4.101,6.905,6.98c-7.463-7.564-15.152-15.366-22.869-23.08l0.042,0.035l-9.492-9.486l1.165,1.146
												l1.45,1.451l-2.682-2.726l-2.412,2.381l7.396,7.435l-7.563-7.435l2.579-2.606l30.577,30.516
												c-3.761-3.913-8.962-8.899-12.211-12.334l18.918,18.98l-1.426-1.386l1.663,1.695l2.041,2.06l9.163-9.171l1.073-1.064
												l-1.073,1.064l-9.163,9.092l-2.277-2.29l2.277,2.25l3.736-3.726l-1.604,1.543l-2.13,2.087l-1.128-1.141l-6.316-6.337
												l3.678,3.654l3.766,3.712l2.309-2.355l-2.309,2.282l-11.297-11.372l7.291,7.256l4.006,4.035l8.524-8.476l-0.472,0.479
												l0.943-0.945l4.892-4.878c1.468-1.47,2.888-2.93,4.296-4.383l0.725-0.729c-0.443,0.473-0.652,0.709,0.241-0.168
												c3.823-3.736,7.848-7.907,12.243-12.185c1.153-1.122,2.678-2.666,4.32-4.331c0.462-0.438,0.689-0.683,0.891-0.905
												l1.073-1.087l1.884-1.896l0.508,0.494l-0.508-0.505l-1.884,1.907l-0.983,0.989c0.212-0.236,0.435-0.492,0.921-0.979
												l-18.708,18.665l1.107-1.168l-1.832,1.896l-6.113,6.146c0.602-0.617,1.154-1.196,1.634-1.709l-13.703,13.722
												l-4.008-3.991l-16.317-16.432c2.879,2.965,5.921,6.046,9.026,9.176c-8.306-8.266-16.617-16.559-24.842-24.868
												c1.544,1.438,3.629,3.448,4.633,4.315c-0.026-0.09-2.68-2.77-1.109-1.236c5.744,5.557,9.709,9.689,12.204,11.809
												c0.487,0.384-5.669-6.13-3.583-4.116l8.119,8.029l2.957,2.973c0.124,0.131,0.349,0.334,0.632,0.593
												c3.586,3.57,6.995,6.978,8.872,8.877l2.077,2.101c0.354,0.372,0.65,0.695,0.875,0.956l0.264,0.25l0.071,0.058l0.13,0.108
												l0.057-0.067l5.119-5.076l3.076-2.979c-0.032,0.009-0.21,0.155-0.029-0.049l6.82-6.799
												c0.935-0.901,1.8-1.725,2.579-2.442c2.352-2.56,8.086-8.163,12.008-12.116h-0.008l6.006-5.994l0.983-0.913
												c0.483-0.52,1.008-1.044,1.247-1.302l1.698-1.674l1.361,1.383l0.791,0.815l1.94,1.989l0.236,0.226l-0.759,0.802
												l-0.81,0.839l-3.078,3.079l-3.565,3.538L98.831,172.34c-0.139,0.114-0.186,0.125-0.235,0.141
												c-0.59,0.634-1.462,1.474-1.998,2.03c0.098-0.108,0.158-0.183,0.134-0.174c-1.771,1.826-2.149,2.122-3.778,3.726
												c-0.365,0.363-0.688,0.723-1.041,1.084l-0.54,0.529c-1.904,1.756-3.7,3.601-5.739,5.636l-6.157,6.041
												C77.854,192.95,77.188,193.518,76.041,194.603z"/>
											<path fill="#D22F2F" d="M100.462,162.111l5.739-5.636C104.162,158.512,102.366,160.356,100.462,162.111z"/>
											<path fill="#D22F2F" d="M49.805,161.823c-0.718-0.779-1.542-1.649-2.443-2.581L61.92,173.82l0.002,0.011
												C57.971,169.91,52.365,164.177,49.805,161.823z"/>
											<path fill="#D22F2F" d="M95.237,167.274l0.259-0.279l0.019-0.02C95.437,167.065,95.343,167.166,95.237,167.274z"/>
											<path fill="#D22F2F" d="M39.891,153.193l-0.466-0.47l3.581,3.543C42.043,155.329,40.982,154.277,39.891,153.193z"/>
											<path fill="#D22F2F" d="M37.382,157.408l7.292,7.258c3.105,3.13,6.148,6.212,9.026,9.176L37.382,157.408z"/>
											<path fill="#D22F2F" d="M40.516,152.452l-2.979-3.076l3.027,3.046C40.361,152.242,40.507,152.419,40.516,152.452z"/>
											<polygon fill="#D22F2F" points="49.883,163.109 49.157,162.384 51.055,164.215 											"/>
											<path fill="#D22F2F" d="M34.715,156.188l-2.216-2.239l1.344,1.285C34.066,155.492,34.365,155.818,34.715,156.188z"/>
											<path fill="#D22F2F" d="M46.298,167.761l2.954,2.97l-3.586-3.564C45.949,167.427,46.173,167.631,46.298,167.761z"/>
										</g>
									</g>
								</g>
							</g>
							<g>
								<g>
									<g>
										<g>
											<path fill="#D22F2F" d="M51.544,158.408l14.448,14.388l-5.417-5.394c2.706,2.695,4.975,4.986,7.701,7.769
												c-0.864-0.796-2.618-2.604-3.098-2.991c-6.597-6.596-13.158-13.269-19.532-19.741
												C48.301,154.881,49.739,156.609,51.544,158.408z"/>
											<path fill="#D22F2F" d="M75.538,182.535l-1.95-1.946C74.271,181.263,74.943,181.929,75.538,182.535z"/>
											<path fill="#D22F2F" d="M70.107,172.144l2.261,2.234C71.62,173.652,70.865,172.896,70.107,172.144z"/>
											<polygon fill="#D22F2F" points="42.639,150.006 41.419,148.824 39.162,146.55 41.667,144.069 45.363,147.806 
												41.667,144.112 39.237,146.55 40.849,148.175 											"/>
											<path fill="#D22F2F" d="M45.822,153.384c3.097,3.087,6.217,6.244,9.104,9.223
												C52.029,159.639,48.956,156.533,45.822,153.384z"/>
											<path fill="#D22F2F" d="M92.724,158.645c-0.022,0.003,0.029-0.062,0.113-0.157c0.089-0.096,0.167-0.18,0.232-0.256
												l3.777-3.704c-0.305,0.315-0.575,0.617-0.891,0.936C94.565,156.826,94.236,157.074,92.724,158.645z"/>
											<polygon fill="#D22F2F" points="69.264,171.305 69.18,171.23 68.405,170.47 68.314,170.375 											"/>
											<path fill="#D22F2F" d="M91.131,160.226c-0.042,0.009-0.085,0.017-0.206,0.114l2.129-2.092l-0.217,0.239
												C92.38,158.968,91.63,159.686,91.131,160.226z"/>
											<path fill="#D22F2F" d="M75.276,175.812c-0.025,0.027-0.048,0.057-0.071,0.092c-0.045-0.024-0.102-0.046-0.139-0.07
												l-0.022-0.027l-0.012-0.011l-0.047-0.052l-0.214-0.223l-0.433-0.448l-0.88-0.916l-1.908-1.959
												c-0.221-0.201-0.673-0.652-1.116-1.06l-0.776-0.848l5.544,5.57l0.118-0.111l0.735-0.731l1.547-1.535L75.276,175.812z"/>
											<path fill="#D22F2F" d="M75.941,182.502c4.007-4.057,8.752-8.622,12.59-12.644c-4.666,4.552-11.043,10.891-11.873,11.421
												c-0.829,0.53,6.294-6.317,9.892-9.935l-0.983,0.924c0.493-0.462,0.983-0.924,1.391-1.363
												c-0.983,0.921-2.866,2.741-3.443,3.223l0.814-0.887c-2.541,2.321-7.122,6.854-9.665,9.174
												c5.299-4.986,11.376-10.945,17.732-17.271l9.686-9.692l9.429-9.497l-2.221-2.201l-2.665,2.679
												c-8.008,8.111-15.355,15.723-22.214,22.877c-1.305,1.343-4.495,4.514-6.785,6.78l-2.421,2.442l-5.843-5.766l-5.174-5.058
												c-3.883-3.82-7.68-7.616-11.515-11.47l-11.005-11.048l-1.334,1.337c-0.005,0.005-0.012,0.014-0.022,0.019
												c0.009,0.011,0.014,0.024,0.021,0.041l0.005,0.011l0.001,0.003l0.034,0.038l0.069,0.073l0.261,0.28
												c0.33,0.355,0.58,0.641,0.672,0.769s0.025,0.101-0.281-0.171c-0.153-0.136-0.367-0.332-0.649-0.598l-0.224-0.215
												l-0.029-0.03l-0.008-0.008l-0.019-0.014l-0.035-0.03l-0.17-0.149l0.144-0.157l0.038-0.041l0.07-0.07l0.284-0.294
												l0.571-0.584l0.285-0.293l0.092-0.093l0.042-0.046l0.178-0.193l0.177,0.166l0.385,0.378l1.112,1.092l2.222,2.195
												l4.44,4.422c-0.48-0.389-2.231-2.196-3.097-2.992c2.727,2.782,4.993,5.073,7.702,7.769l-5.419-5.394l14.448,14.385
												c1.809,1.802,3.24,3.527,5.896,5.973C63.159,166.296,56.596,159.62,50,153.025l0.036,0.029l-8.212-8.209l1.095,1.079
												l1.24,1.242l-2.493-2.544l-1.955,1.924l5.956,5.994l-6.116-5.994l2.116-2.144l6.352,6.326l6.745,6.744
												c4.488,4.494,8.943,8.95,13.263,13.228c-3.204-3.356-7.666-7.601-10.429-10.552l16.165,16.23l-1.223-1.182
												c0.793,0.817,1.387,1.424,2.664,2.709l8.431-8.435l0.917-0.907l-0.917,0.907l-8.431,8.358l-1.441-1.451l1.441,1.422
												l1.945-1.957l1.838-1.823c-0.466,0.435-1.022,0.973-1.629,1.56l-2.156,2.111l-0.278-0.285l-5.568-5.584l2.858,2.837
												l2.988,2.942l2.546-2.605l-2.546,2.514l-9.125-9.195l6.234,6.2l2.89,2.913l7.854-7.798l-0.402,0.407l0.806-0.81
												l4.182-4.166c1.254-1.258,2.465-2.508,3.666-3.755l0.619-0.622c-0.377,0.407-0.552,0.611,0.211-0.139
												c3.274-3.188,6.704-6.764,10.468-10.41c0.988-0.959,2.29-2.277,3.692-3.704c0.396-0.372,0.59-0.581,0.76-0.771
												l0.914-0.929l1.314-1.326l0.666,0.646l-0.666-0.657l-1.314,1.334l-0.841,0.845c0.18-0.204,0.368-0.421,0.783-0.84
												l-15.991,15.951l0.944-1.003l-1.562,1.625l-5.223,5.255c0.511-0.527,0.983-1.021,1.391-1.465L75.2,177.391l-2.89-2.875
												L58.37,160.46c2.457,2.543,5.053,5.179,7.706,7.855c-7.101-7.062-14.208-14.149-21.233-21.26
												c1.329,1.223,3.116,2.937,3.983,3.668c-0.016-0.084-2.285-2.375-0.939-1.068c4.922,4.734,8.303,8.282,10.462,10.065
												c0.422,0.323-4.814-5.271-3.026-3.558l6.947,6.856l2.525,2.543c0.106,0.114,0.299,0.285,0.543,0.506
												c3.066,3.049,5.98,5.961,7.583,7.586l1.772,1.799l0.215,0.231l0.101,0.111c0.016,0.02,0.015,0.021,0.023,0.032
												l0.073,0.117l0.092,0.068l0.172-0.207l4.715-4.674l2.638-2.54c-0.029,0.005-0.185,0.13-0.03-0.047l5.831-5.807
												c0.799-0.769,1.542-1.47,2.214-2.078c1.995-2.204,6.905-6.983,10.256-10.364h-0.008l5.134-5.125l0.846-0.774l0.607-0.641
												l0.52-0.541l1.19-1.177l1.238,1.258l0.737,0.761l1.843,1.895l-0.297,0.291c-0.29,0.307-1.064,1.149-1.402,1.488
												l-2.633,2.634l-3.049,3.021l-10.269,10.122c-0.121,0.092-0.163,0.103-0.207,0.113c-0.5,0.544-1.248,1.259-1.706,1.736
												c0.085-0.092,0.135-0.154,0.112-0.149c-1.511,1.565-1.84,1.812-3.234,3.18c-0.31,0.31-0.585,0.617-0.888,0.93
												l-0.46,0.453c-1.639,1.486-3.169,3.068-4.913,4.81l-5.273,5.155C77.501,181.103,76.926,181.578,75.941,182.502z"/>
											<path fill="#D22F2F" d="M97.305,154.079l4.914-4.81C100.474,151.009,98.945,152.591,97.305,154.079z"/>
											<path fill="#D22F2F" d="M54.175,154.914c-0.609-0.672-1.309-1.419-2.079-2.218l12.441,12.464l0.001,0.009
												C61.161,161.818,56.379,156.908,54.175,154.914z"/>
											<path fill="#D22F2F" d="M92.837,158.487l0.217-0.239l0.016-0.017C93.004,158.305,92.927,158.392,92.837,158.487z"/>
											<path fill="#D22F2F" d="M45.609,147.629l-0.399-0.399l3.065,3.024C47.45,149.455,46.541,148.558,45.609,147.629z"/>
											<path fill="#D22F2F" d="M42.864,150.688l6.235,6.198c2.651,2.679,5.249,5.314,7.704,7.855L42.864,150.688z"/>
											<path fill="#D22F2F" d="M46.241,146.895l-2.539-2.636l2.587,2.604C46.113,146.713,46.235,146.865,46.241,146.895z"/>
											<polygon fill="#D22F2F" points="54.154,156.101 53.533,155.479 55.16,157.041 											"/>
											<path fill="#D22F2F" d="M40.478,149.751l-2.138-2.16l0.533,0.521l0.288,0.274l0.579,0.544
												C39.927,149.153,40.182,149.433,40.478,149.751z"/>
											<path fill="#D22F2F" d="M50.381,159.645l2.522,2.54l-3.068-3.048C50.081,159.356,50.274,159.53,50.381,159.645z"/>
										</g>
									</g>
								</g>
							</g>
							<g>
								<g>
									<g>
										<g>
											<path fill="#D22F2F" d="M35.668,233.883l16.838-16.898l-6.312,6.334c3.155-3.163,5.834-5.82,9.083-9.013
												c-0.937,1.005-3.046,3.062-3.507,3.613c-7.715,7.717-15.513,15.404-23.083,22.869
												C31.567,237.698,33.565,235.994,35.668,233.883z"/>
											<path fill="#D22F2F" d="M63.885,205.8l-2.276,2.28C62.398,207.281,63.178,206.496,63.885,205.8z"/>
											<path fill="#D22F2F" d="M51.02,212.783l2.617-2.644C52.784,211.012,51.9,211.897,51.02,212.783z"/>
											<polygon fill="#D22F2F" points="25.798,244.258 24.414,245.682 21.372,248.7 18.434,245.736 22.509,241.698 
												18.472,245.736 21.372,248.627 23.486,246.529 											"/>
											<path fill="#D22F2F" d="M29.732,240.516c3.613-3.622,7.303-7.273,10.781-10.662
												C37.045,233.253,33.415,236.848,29.732,240.516z"/>
											<path fill="#D22F2F" d="M36.601,186.235c0.006,0.024-0.069-0.038-0.178-0.136c-0.11-0.105-0.21-0.198-0.298-0.271
												l-4.338-4.416c0.367,0.359,0.721,0.677,1.089,1.047C34.474,184.081,34.77,184.461,36.601,186.235z"/>
											<polygon fill="#D22F2F" points="50.038,213.772 49.95,213.868 49.058,214.772 48.947,214.879 											"/>
											<path fill="#D22F2F" d="M38.454,188.1c0.013,0.046,0.027,0.093,0.141,0.231l-2.451-2.489l0.279,0.258
												C36.984,186.638,37.823,187.51,38.454,188.1z"/>
											<path fill="#D22F2F" d="M56.245,206.199c-0.022,0.022-0.037,0.044-0.054,0.068l-0.025,0.035l-0.012,0.02l-0.002,0.005
												l-0.021,0.021l-0.038,0.041l-0.491,0.541l-4.398,4.276c-0.239,0.262-0.766,0.788-1.247,1.305l-0.986,0.913l7.278-7.247
												l-0.111-0.114l-0.676-0.679l-1.475-1.484l1.455,1.451l0.825,0.829L56.245,206.199z"/>
											<path fill="#D22F2F" d="M63.751,205.295c-4.741-4.69-10.099-10.229-14.788-14.733c5.334,5.448,12.754,12.91,13.4,13.853
												c0.649,0.946-7.39-7.366-11.618-11.575l1.083,1.144c-0.541-0.573-1.083-1.144-1.597-1.625
												c1.083,1.147,3.219,3.343,3.791,4.009l-1.029-0.957c2.732,2.954,8.04,8.31,10.772,11.266
												c-5.815-6.124-12.733-13.162-20.075-20.534l-11.245-11.238l-11.07-11.008l-2.71,2.728l3.509,3.495
												c9.479,9.377,18.361,17.996,26.706,26.045c1.569,1.529,5.281,5.261,7.933,7.937l2.095,2.082l-6.959,7.037l-6.244,6.367
												c-4.424,4.483-8.816,8.877-13.268,13.314l-12.885,12.839l1.814,1.808l0.005,0.005c0.014-0.014,0.028-0.021,0.045-0.032
												l0.75-0.718c0.479-0.451,0.875-0.81,1.061-0.956c0.186-0.146,0.163-0.082-0.201,0.317
												c-0.182,0.201-0.448,0.487-0.815,0.867l-0.626,0.652l-0.213,0.23l-0.084-0.081l-0.11-0.101l-0.296-0.285l-0.765-0.747
												l-0.738-0.726l-0.247-0.236l0.191-0.201l0.5-0.511l1.242-1.259l2.491-2.513l5.013-5.033
												c-0.461,0.552-2.571,2.609-3.507,3.614c3.251-3.195,5.927-5.848,9.083-9.016l-6.313,6.337l16.838-16.899
												c2.108-2.114,4.101-3.814,6.981-6.904c-7.565,7.464-15.366,15.154-23.083,22.868l0.037-0.043l-9.487,9.491l1.146-1.163
												l1.454-1.448l-2.727,2.68l2.381,2.412l7.434-7.396l-7.434,7.564l-2.608-2.581l30.517-30.575
												c-3.914,3.761-8.898,8.962-12.335,12.211l18.983-18.917l-1.387,1.424l1.698-1.66l2.058-2.041l-9.171-9.163l-1.063-1.073
												l1.063,1.073l9.093,9.163l-2.29,2.277l2.25-2.277l-3.729-3.736l1.545,1.606l2.09,2.13l-1.144,1.128l-6.334,6.317
												l3.652-3.679l3.713-3.767l-2.357-2.31l2.285,2.31l-11.375,11.299l7.255-7.291l4.036-4.008l-8.474-8.524l0.477,0.474
												l-0.946-0.943l-4.876-4.894c-1.472-1.465-2.931-2.889-4.386-4.296l-0.728-0.726c0.475,0.445,0.711,0.654-0.167-0.239
												c-3.737-3.823-7.909-7.848-12.186-12.244c-1.123-1.152-2.665-2.677-4.331-4.32c-0.438-0.459-0.682-0.69-0.903-0.892
												l-1.086-1.07l-1.898-1.883l0.496-0.509l-0.504,0.509l1.906,1.883l0.989,0.983c-0.238-0.212-0.49-0.435-0.977-0.921
												l18.663,18.703l-1.17-1.109l1.897,1.835l6.146,6.11c-0.618-0.6-1.195-1.154-1.71-1.633l13.721,13.703l-3.991,4.011
												l-16.433,16.317c2.967-2.88,6.049-5.924,9.178-9.024c-8.267,8.305-16.557,16.614-24.87,24.839
												c1.438-1.543,3.45-3.63,4.318-4.633c-0.091,0.027-2.77,2.68-1.238,1.108c5.556-5.741,9.69-9.708,11.809-12.203
												c0.385-0.486-6.129,5.671-4.118,3.584l8.029-8.119l2.975-2.959c0.13-0.122,0.335-0.348,0.594-0.628
												c3.57-3.587,6.979-6.997,8.876-8.872L55,207.518c0.375-0.354,0.698-0.649,0.957-0.875l0.252-0.264l0.057-0.07
												l0.105-0.131l-0.066-0.057l-5.075-5.122l-2.979-3.073c0.009,0.032,0.155,0.209-0.048,0.029l-6.796-6.82
												c-0.903-0.935-1.726-1.802-2.443-2.578c-2.561-2.354-8.164-8.087-12.118-12.011l0.001,0.011l-5.997-6.008l-0.912-0.983
												c-0.517-0.481-1.043-1.006-1.301-1.247l-1.675-1.698l1.385-1.361l0.814-0.791l1.989-1.938l0.226-0.236l0.803,0.755
												l0.839,0.811l3.079,3.078l3.539,3.565l11.855,12.002c0.113,0.139,0.126,0.185,0.142,0.233
												c0.633,0.59,1.472,1.462,2.031,1.997c-0.11-0.098-0.184-0.157-0.176-0.133c1.827,1.771,2.123,2.149,3.724,3.78
												c0.366,0.363,0.724,0.687,1.086,1.04l0.53,0.538c1.753,1.905,3.599,3.701,5.635,5.739l6.042,6.157
												C62.098,203.482,62.667,204.15,63.751,205.295z"/>
											<path fill="#D22F2F" d="M31.26,180.877l-5.636-5.738C27.661,177.177,29.506,178.973,31.26,180.877z"/>
											<path fill="#D22F2F" d="M30.971,231.532c-0.781,0.718-1.649,1.541-2.58,2.443l14.579-14.56h0.01
												C39.058,223.367,33.324,228.973,30.971,231.532z"/>
											<path fill="#D22F2F" d="M36.423,186.1l-0.279-0.258l-0.019-0.017C36.213,185.901,36.312,185.994,36.423,186.1z"/>
											<path fill="#D22F2F" d="M22.339,241.445l-0.469,0.468l3.543-3.582C24.478,239.293,23.426,240.355,22.339,241.445z"/>
											<path fill="#D22F2F" d="M26.558,243.953l7.255-7.287c3.132-3.106,6.214-6.152,9.18-9.03L26.558,243.953z"/>
											<path fill="#D22F2F" d="M21.599,240.823l-3.076,2.98l3.044-3.029C21.391,240.976,21.567,240.831,21.599,240.823z"/>
											<polygon fill="#D22F2F" points="32.258,231.454 31.531,232.183 33.364,230.285 											"/>
											<path fill="#D22F2F" d="M25.337,246.622l-2.238,2.22l1.285-1.348C24.642,247.274,24.966,246.973,25.337,246.622z"/>
											<path fill="#D22F2F" d="M36.91,235.041l2.972-2.954l-3.566,3.584C36.576,235.392,36.777,235.166,36.91,235.041z"/>
										</g>
									</g>
								</g>
							</g>
							<g>
								<g>
									<g>
										<g>
											<path fill="#D22F2F" d="M27.556,229.794l14.389-14.448l-5.395,5.416c2.696-2.704,4.987-4.973,7.77-7.701
												c-0.796,0.864-2.604,2.619-2.991,3.101c-6.595,6.595-13.269,13.157-19.744,19.531
												C24.03,233.035,25.757,231.598,27.556,229.794z"/>
											<path fill="#D22F2F" d="M51.682,205.8l-1.943,1.951C50.413,207.066,51.078,206.393,51.682,205.8z"/>
											<path fill="#D22F2F" d="M41.292,211.229l2.234-2.264C42.799,209.719,42.045,210.471,41.292,211.229z"/>
											<polygon fill="#D22F2F" points="19.153,238.701 17.975,239.921 15.697,242.177 13.218,239.671 16.952,235.976 
												13.26,239.671 15.697,242.101 17.324,240.491 											"/>
											<path fill="#D22F2F" d="M22.531,235.514c3.087-3.095,6.244-6.217,9.225-9.103
												C28.787,229.31,25.683,232.383,22.531,235.514z"/>
											<path fill="#D22F2F" d="M27.789,188.613c0.004,0.021-0.061-0.03-0.154-0.111c-0.093-0.093-0.181-0.171-0.256-0.233
												l-3.702-3.777c0.314,0.305,0.618,0.573,0.934,0.892C25.975,186.771,26.221,187.103,27.789,188.613z"/>
											<polygon fill="#D22F2F" points="40.455,212.071 40.38,212.156 39.617,212.933 39.522,213.022 											"/>
											<path fill="#D22F2F" d="M29.374,190.208c0.009,0.041,0.018,0.085,0.113,0.207l-2.093-2.133l0.241,0.22
												C28.115,188.958,28.829,189.708,29.374,190.208z"/>
											<path fill="#D22F2F" d="M44.961,206.061c0.026,0.027,0.057,0.047,0.092,0.074c-0.024,0.046-0.046,0.101-0.071,0.138
												l-0.026,0.022l-0.013,0.011l-0.05,0.046l-0.222,0.215l-0.447,0.432l-0.912,0.881l-1.96,1.907
												c-0.203,0.223-0.654,0.674-1.061,1.117l-0.848,0.777l5.571-5.544l-0.113-0.116l-0.73-0.736l-1.536-1.547L44.961,206.061z
												"/>
											<path fill="#D22F2F" d="M51.651,205.397c-4.057-4.008-8.623-8.755-12.644-12.592
												c4.551,4.666,10.891,11.046,11.423,11.872c0.531,0.832-6.321-6.293-9.935-9.891l0.92,0.983
												c-0.458-0.492-0.92-0.983-1.361-1.391c0.92,0.986,2.743,2.866,3.222,3.445l-0.885-0.815
												c2.319,2.541,6.853,7.122,9.173,9.662c-4.988-5.296-10.945-11.371-17.271-17.729l-9.694-9.685l-9.494-9.432l-2.203,2.22
												l2.68,2.666c8.109,8.008,15.721,15.355,22.875,22.214c1.344,1.307,4.515,4.497,6.78,6.785l2.445,2.421l-5.767,5.842
												l-5.056,5.177c-3.82,3.88-7.619,7.676-11.47,11.513l-11.05,11.005l1.34,1.335c0.005,0.005,0.012,0.013,0.019,0.021
												c0.012-0.009,0.024-0.014,0.04-0.02L15.749,241l0.004-0.003l0.035-0.032l0.074-0.071l0.279-0.261
												c0.358-0.329,0.644-0.581,0.772-0.674c0.13-0.09,0.1-0.024-0.171,0.282c-0.136,0.155-0.331,0.367-0.599,0.649
												l-0.215,0.226l-0.029,0.03l-0.007,0.008l-0.014,0.017l-0.03,0.035l-0.15,0.169l-0.155-0.142l-0.042-0.038l-0.075-0.07
												l-0.292-0.285l-0.585-0.571l-0.293-0.288l-0.094-0.09l-0.046-0.04l-0.19-0.183l0.166-0.177l0.377-0.383L15.558,238
												l2.195-2.226l4.422-4.44c-0.389,0.481-2.196,2.231-2.991,3.098c2.784-2.728,5.072-4.991,7.77-7.7l-5.396,5.418
												l14.389-14.45c1.8-1.808,3.525-3.239,5.971-5.896c-6.474,6.375-13.149,12.937-19.742,19.534l0.029-0.038l-8.208,8.215
												l1.078-1.098l1.243-1.239l-2.543,2.494l1.924,1.956l5.994-5.959l-5.994,6.117l-2.144-2.117l6.328-6.35l6.746-6.747
												c4.492-4.489,8.95-8.943,13.227-13.261c-3.356,3.204-7.601,7.666-10.551,10.429l16.229-16.165l-1.183,1.221
												c0.817-0.791,1.423-1.386,2.708-2.663l-8.434-8.432l-0.907-0.916l0.907,0.916l8.357,8.432l-1.448,1.442l1.419-1.442
												l-1.955-1.945l-1.826-1.837c0.436,0.464,0.973,1.021,1.562,1.63l2.112,2.155l-0.283,0.276l-5.587,5.568l2.837-2.859
												l2.943-2.985l-2.607-2.547l2.516,2.547l-9.192,9.124l6.199-6.233l2.914-2.889l-7.8-7.855l0.409,0.402l-0.81-0.807
												l-4.167-4.183c-1.257-1.25-2.508-2.462-3.755-3.662l-0.621-0.62c0.406,0.378,0.61,0.552-0.139-0.212
												c-3.188-3.274-6.764-6.703-10.411-10.467c-0.957-0.986-2.276-2.291-3.702-3.693c-0.375-0.394-0.583-0.589-0.775-0.761
												l-0.929-0.913l-1.325-1.314l0.649-0.666l-0.659,0.666l1.334,1.314l0.845,0.84c-0.203-0.179-0.422-0.366-0.841-0.782
												l15.951,15.988l-1.006-0.94l1.628,1.562l5.255,5.223c-0.529-0.514-1.024-0.986-1.467-1.391l12.295,12.273l-2.874,2.889
												l-14.056,13.939c2.542-2.456,5.18-5.054,7.855-7.706c-7.063,7.103-14.149,14.209-21.259,21.232
												c1.223-1.328,2.937-3.116,3.667-3.983c-0.083,0.017-2.373,2.283-1.066,0.938c4.734-4.921,8.28-8.301,10.064-10.459
												c0.321-0.424-5.273,4.812-3.559,3.024l6.858-6.945l2.542-2.526c0.113-0.104,0.284-0.3,0.504-0.541
												c3.05-3.068,5.963-5.98,7.587-7.584l1.797-1.771l0.234-0.215l0.109-0.101c0.018-0.017,0.021-0.017,0.032-0.024
												l0.117-0.07l0.069-0.093l-0.208-0.171l-4.671-4.718l-2.541-2.639c0.007,0.03,0.129,0.186-0.046,0.033l-5.808-5.831
												c-0.77-0.802-1.469-1.547-2.078-2.215c-2.204-1.997-6.984-6.904-10.364-10.258v0.008l-5.124-5.133l-0.775-0.848
												l-0.643-0.608l-0.54-0.52l-1.174-1.189l1.258-1.237l0.761-0.738l1.893-1.843l0.29,0.296
												c0.311,0.291,1.149,1.065,1.488,1.402l2.632,2.633l3.024,3.049l10.122,10.269c0.093,0.123,0.103,0.163,0.113,0.207
												c0.544,0.503,1.257,1.25,1.738,1.706c-0.094-0.084-0.158-0.133-0.153-0.108c1.566,1.508,1.814,1.837,3.179,3.23
												c0.313,0.312,0.62,0.587,0.932,0.889l0.452,0.46c1.487,1.638,3.069,3.168,4.808,4.912l5.156,5.271
												C50.25,203.836,50.729,204.411,51.651,205.397z"/>
											<path fill="#D22F2F" d="M23.227,184.032l-4.81-4.913C20.156,180.861,21.738,182.391,23.227,184.032z"/>
											<path fill="#D22F2F" d="M24.063,227.163c-0.67,0.609-1.417,1.308-2.216,2.079L34.309,216.8h0.009
												C30.968,220.177,26.057,224.96,24.063,227.163z"/>
											<path fill="#D22F2F" d="M27.634,188.502l-0.241-0.22l-0.016-0.014C27.454,188.331,27.541,188.409,27.634,188.502z"/>
											<path fill="#D22F2F" d="M16.777,235.729l-0.4,0.399l3.027-3.065C18.605,233.889,17.705,234.796,16.777,235.729z"/>
											<path fill="#D22F2F" d="M19.836,238.473l6.199-6.236c2.677-2.652,5.314-5.247,7.855-7.703L19.836,238.473z"/>
											<path fill="#D22F2F" d="M16.045,235.098l-2.636,2.538l2.604-2.587C15.862,235.223,16.015,235.104,16.045,235.098z"/>
											<polygon fill="#D22F2F" points="25.249,227.183 24.627,227.805 26.19,226.18 											"/>
											<path fill="#D22F2F" d="M18.9,240.858l-2.161,2.139l0.521-0.533l0.274-0.287l0.545-0.579
												C18.3,241.41,18.58,241.154,18.9,240.858z"/>
											<path fill="#D22F2F" d="M28.792,230.957l2.539-2.522l-3.045,3.068C28.505,231.256,28.678,231.062,28.792,230.957z"/>
										</g>
									</g>
								</g>
							</g>
							<g>
								<g>
									<g>
										<g>
											<path fill="#D22F2F" d="M114.692,178.22l-16.861,16.923l6.322-6.345c-3.16,3.171-5.842,5.829-9.098,9.029
												c0.939-1.005,3.052-3.067,3.513-3.619c7.728-7.73,15.537-15.426,23.115-22.903
												C118.801,174.396,116.801,176.105,114.692,178.22z"/>
											<path fill="#D22F2F" d="M86.439,206.341l2.278-2.282C87.925,204.86,87.145,205.646,86.439,206.341z"/>
											<path fill="#D22F2F" d="M99.201,199.479l-2.621,2.646C97.436,201.254,98.321,200.365,99.201,199.479z"/>
											<polygon fill="#D22F2F" points="124.581,167.832 125.967,166.405 128.947,163.443 131.896,166.419 127.755,170.524 
												131.857,166.419 128.947,163.52 126.863,165.587 											"/>
											<path fill="#D22F2F" d="M120.641,171.576c-3.619,3.627-7.312,7.285-10.798,10.676
												C113.317,178.853,116.95,175.25,120.641,171.576z"/>
											<path fill="#D22F2F" d="M113.877,226.065c-0.005-0.024,0.071,0.038,0.18,0.136c0.108,0.106,0.212,0.201,0.296,0.274
												l4.346,4.419c-0.367-0.359-0.721-0.68-1.09-1.047C116.008,228.221,115.712,227.843,113.877,226.065z"/>
											<polygon fill="#D22F2F" points="100.185,198.49 100.272,198.393 101.166,197.488 101.278,197.379 											"/>
											<path fill="#D22F2F" d="M112.021,224.201c-0.014-0.046-0.027-0.095-0.139-0.233l2.454,2.492l-0.28-0.259
												C113.497,225.663,112.654,224.788,112.021,224.201z"/>
											<path fill="#D22F2F" d="M94.065,205.972c0.042-0.044,0.069-0.085,0.099-0.137c-0.01,0.006,0.058-0.067,0.102-0.116
												l0.131-0.146l0.213-0.234l4.403-4.285c0.241-0.258,0.768-0.785,1.248-1.304l0.986-0.916l-7.169,7.141l0.115,0.12
												l0.732,0.736l1.536,1.546l-1.516-1.511l-0.759-0.761l-0.128-0.131L94.065,205.972z"/>
											<path fill="#D22F2F" d="M86.571,206.849c4.749,4.695,10.114,10.242,14.81,14.755
												c-5.342-5.456-12.772-12.926-13.419-13.871c-0.648-0.946,7.403,7.374,11.635,11.595l-1.084-1.149
												c0.541,0.573,1.084,1.149,1.599,1.627c-1.084-1.146-3.225-3.345-3.795-4.013l1.029,0.959
												c-2.736-2.959-8.051-8.323-10.789-11.282c5.832,6.141,12.773,13.2,20.137,20.597l11.279,11.271l11.1,11.043l2.709-2.729
												l-3.456-3.442c-9.491-9.394-18.388-18.023-26.745-26.083c-1.572-1.533-5.288-5.271-7.944-7.951l-2.217-2.201l6.909-6.985
												l6.196-6.315c4.438-4.502,8.846-8.91,13.315-13.363l12.938-12.891l-1.823-1.812l-0.009-0.011
												c-0.014,0.013-0.027,0.021-0.046,0.032l-0.723,0.693c-0.468,0.438-0.854,0.785-1.03,0.926
												c-0.179,0.139-0.152,0.071,0.201-0.32c0.177-0.198,0.438-0.476,0.794-0.848l0.598-0.62l0.204-0.223l0.103,0.096
												l0.109,0.101l0.328,0.32l0.753,0.736l0.715,0.698l0.241,0.231l-0.192,0.201l-0.508,0.519l-1.248,1.267l-2.511,2.535
												l-5.046,5.067c0.462-0.552,2.576-2.611,3.511-3.616c-3.255,3.2-5.935,5.855-9.098,9.029l6.323-6.348l-16.86,16.923
												c-2.11,2.117-4.107,3.82-6.99,6.913c7.577-7.476,15.392-15.171,23.114-22.901l-0.035,0.044l9.538-9.544l-1.188,1.204
												l-1.457,1.451l2.794-2.744l-2.395-2.422l-7.38,7.343l7.38-7.508l2.617,2.587l-30.62,30.681
												c3.919-3.767,8.911-8.976,12.354-12.23l-19.012,18.944l1.389-1.426l-1.64,1.605l-2.001,1.983l9.302,9.296l1.064,1.07
												l-1.064-1.07l-9.224-9.296l2.174-2.163l-2.135,2.163L96,209.835l-1.599-1.663l-2.157-2.195l1.018-1.005l6.35-6.332
												l-3.598,3.623l-3.663,3.714l2.48,2.43l-2.404-2.43l11.271-11.195l-7.266,7.302l-3.922,3.896l8.604,8.654l-0.478-0.473
												l0.946,0.943l4.886,4.898c1.473,1.471,2.934,2.895,4.392,4.302l0.728,0.729c-0.475-0.446-0.714-0.655,0.166,0.239
												c3.742,3.828,7.921,7.86,12.203,12.26c1.125,1.152,2.669,2.685,4.337,4.326c0.438,0.462,0.683,0.69,0.905,0.894
												l1.087,1.071l1.842,1.828l-0.546,0.558l0.555-0.558l-1.851-1.828l-0.992-0.984c0.239,0.213,0.492,0.436,0.981,0.922
												l-18.692-18.73l1.174,1.108l-1.902-1.837l-6.155-6.119c0.618,0.604,1.195,1.157,1.711,1.636l-13.86-13.839l3.877-3.896
												l16.458-16.342c-2.972,2.886-6.058,5.932-9.19,9.04c8.277-8.314,16.581-16.641,24.907-24.876
												c-1.443,1.546-3.457,3.636-4.326,4.638c0.093-0.024,2.774-2.682,1.242-1.108c-5.565,5.75-9.707,9.726-11.829,12.223
												c-0.383,0.486,6.139-5.68,4.125-3.593l-8.041,8.133l-2.979,2.959c-0.132,0.125-0.335,0.351-0.594,0.634
												c-3.576,3.592-6.988,7.005-8.891,8.885l-2.105,2.079c-0.375,0.354-0.698,0.652-0.957,0.878l-0.114,0.119
												c-0.025,0.027-0.025,0.03-0.029,0.033l-0.014,0.016l-0.05,0.062l-0.094,0.117l0.097,0.084l5.176,5.22l2.985,3.079
												c-0.01-0.032-0.156-0.212,0.047-0.03l6.808,6.832c0.905,0.935,1.729,1.804,2.445,2.584
												c2.565,2.353,8.177,8.095,12.136,12.023v-0.008l6.002,6.016l0.913,0.986c0.52,0.481,1.047,1.006,1.305,1.247l1.619,1.642
												l-1.404,1.381l-0.829,0.804l-2.06,2.008l-0.119,0.128l-0.832-0.782l-0.524-0.5l-0.354-0.343l-3.084-3.084l-3.543-3.57
												l-11.873-12.019c-0.112-0.139-0.126-0.188-0.142-0.236c-0.633-0.59-1.473-1.462-2.032-2
												c0.109,0.098,0.183,0.157,0.175,0.133c-1.829-1.774-2.127-2.151-3.73-3.782c-0.366-0.364-0.724-0.688-1.087-1.043
												l-0.53-0.541c-1.757-1.905-3.604-3.704-5.644-5.747l-6.049-6.165C88.228,208.664,87.658,207.996,86.571,206.849z"/>
											<path fill="#D22F2F" d="M119.225,231.433l5.646,5.747C122.833,235.139,120.985,233.34,119.225,231.433z"/>
											<path fill="#D22F2F" d="M119.279,180.7c0.782-0.717,1.652-1.543,2.584-2.445l-14.602,14.578h-0.009
												C111.182,188.877,116.924,183.266,119.279,180.7z"/>
											<path fill="#D22F2F" d="M114.057,226.201l0.28,0.259l0.016,0.019C114.269,226.402,114.165,226.308,114.057,226.201z"/>
											<path fill="#D22F2F" d="M127.923,170.774l0.47-0.468l-3.548,3.59C125.781,172.929,126.839,171.867,127.923,170.774z"/>
											<path fill="#D22F2F" d="M123.819,168.133l-7.266,7.302c-3.136,3.111-6.223,6.157-9.191,9.04L123.819,168.133z"/>
											<path fill="#D22F2F" d="M128.665,171.399l3.081-2.986l-3.049,3.032C128.877,171.244,128.697,171.392,128.665,171.399z"/>
											<polygon fill="#D22F2F" points="117.991,180.782 118.72,180.054 116.883,181.953 											"/>
											<path fill="#D22F2F" d="M125.043,165.462l2.241-2.217l-1.288,1.345C125.741,164.812,125.412,165.111,125.043,165.462z"/>
											<path fill="#D22F2F" d="M113.453,177.062l-2.976,2.956l3.571-3.592C113.79,176.712,113.584,176.938,113.453,177.062z"/>
										</g>
									</g>
								</g>
							</g>
							<g>
								<g>
									<g>
										<g>
											<path fill="#D22F2F" d="M122.557,182.595L108.012,197.2l5.452-5.479c-2.723,2.736-5.04,5.03-7.854,7.788
												c0.805-0.875,2.633-2.646,3.025-3.131c6.665-6.668,13.412-13.301,19.958-19.746
												C126.118,179.314,124.374,180.769,122.557,182.595z"/>
											<path fill="#D22F2F" d="M98.167,206.849l1.964-1.97C99.452,205.569,98.78,206.248,98.167,206.849z"/>
											<path fill="#D22F2F" d="M109.217,200.781l-2.259,2.285C107.692,202.309,108.456,201.545,109.217,200.781z"/>
											<polygon fill="#D22F2F" points="131.051,173.598 132.246,172.361 134.841,169.788 137.33,172.299 133.822,175.769 
												137.289,172.299 134.841,169.861 133.051,171.642 											"/>
											<path fill="#D22F2F" d="M127.638,176.814c-3.119,3.131-6.31,6.285-9.32,9.204
												C121.317,183.089,124.456,179.983,127.638,176.814z"/>
											<path fill="#D22F2F" d="M121.776,223.647c-0.003-0.022,0.062,0.032,0.157,0.114c0.096,0.092,0.183,0.171,0.259,0.236
												l3.741,3.817c-0.317-0.307-0.622-0.581-0.942-0.899C123.613,225.509,123.363,225.177,121.776,223.647z"/>
											<polygon fill="#D22F2F" points="110.064,199.926 110.14,199.841 110.91,199.059 111.005,198.966 											"/>
											<path fill="#D22F2F" d="M120.179,222.036c-0.011-0.038-0.02-0.085-0.114-0.204l2.114,2.152l-0.242-0.221
												C121.45,223.3,120.725,222.541,120.179,222.036z"/>
											<path fill="#D22F2F" d="M104.896,206.455c0.035-0.035,0.058-0.076,0.084-0.12l0.008-0.016l0.061-0.068l0.111-0.125
												l0.184-0.203c1.2-1.158,2.401-2.312,3.806-3.688c0.206-0.226,0.662-0.683,1.073-1.131l0.856-0.782l-6.183,6.151
												l0.095,0.099l0.499,0.502l1.281,1.291l-1.264-1.258l-0.523-0.524l-0.105-0.109L104.896,206.455z"/>
											<path fill="#D22F2F" d="M98.207,207.259c4.1,4.049,8.718,8.848,12.782,12.729c-4.604-4.715-11.012-11.166-11.55-12
												c-0.54-0.837,6.388,6.361,10.042,10l-0.932-0.995c0.464,0.498,0.932,0.995,1.377,1.411
												c-0.931-0.998-2.774-2.897-3.26-3.481l0.895,0.823c-2.346-2.57-6.927-7.2-9.274-9.769
												c5.005,5.312,10.975,11.404,17.318,17.779l9.717,9.712l9.532,9.47l2.258-2.28l-2.986-2.965
												c-8.197-8.097-15.891-15.526-23.118-22.461c-1.36-1.32-4.565-4.549-6.854-6.86l-1.916-1.899l6.088-6.169l5.381-5.502
												c3.817-3.881,7.614-7.677,11.464-11.511l11.038-10.994l-0.631-0.628l-0.695-0.692l-0.035-0.033l-0.006-0.005
												c-0.014,0.011-0.024,0.019-0.04,0.027l-0.006,0.003c-0.003,0,0.003-0.003-0.006,0.002l-0.043,0.041l-0.166,0.16
												l-0.32,0.305c-0.416,0.386-0.759,0.692-0.919,0.815c-0.163,0.122-0.146,0.062,0.166-0.286
												c0.152-0.174,0.381-0.421,0.695-0.75l0.46-0.48l0.182-0.201l0.073,0.07l0.096,0.085l0.049,0.046l0.136,0.131l0.657,0.641
												l0.562,0.546l0.215,0.204l-0.166,0.174l-0.358,0.367l-1.073,1.09l-2.152,2.176l-4.334,4.354
												c0.395-0.483,2.22-2.255,3.024-3.13c-2.812,2.758-5.128,5.048-7.855,7.784l5.456-5.475l-14.546,14.605
												c-1.82,1.825-3.564,3.276-6.036,5.961c6.545-6.445,13.292-13.078,19.957-19.746l-0.027,0.038l8.133-8.139l-0.266,0.277
												l-0.661,0.666l-1.255,1.253l2.302-2.259l-0.96-0.976l-0.97-0.983l-6.355,6.317l6.355-6.485l2.155,2.127l-13.087,13.111
												c-4.494,4.491-8.953,8.948-13.233,13.271c3.392-3.239,7.682-7.747,10.666-10.543l-16.407,16.341l1.195-1.236
												l-1.461,1.427l-1.82,1.802l7.988,7.978l0.915,0.927l-0.915-0.927l-7.911-7.978l2.008-1.994l-1.968,1.994l3.273,3.282
												c-0.38-0.404-0.836-0.88-1.335-1.399l-1.844-1.883l0.995-0.979l5.485-5.47l-3.147,3.171l-3.222,3.277l2.08,2.032
												l-2.005-2.032l9.837-9.763l-6.267,6.301l-3.489,3.459l7.348,7.396l-0.414-0.404l0.819,0.812l4.212,4.23
												c1.271,1.267,2.535,2.491,3.796,3.703l0.63,0.628c-0.412-0.383-0.619-0.56,0.139,0.215
												c3.223,3.307,6.837,6.774,10.524,10.578c0.968,0.997,2.302,2.315,3.741,3.733c0.378,0.399,0.59,0.599,0.783,0.772
												l0.94,0.924l1.613,1.598l-0.435,0.445l0.443-0.445l-1.622-1.598l-0.856-0.851c0.207,0.182,0.427,0.372,0.848,0.793
												l-16.121-16.165l1.014,0.951l-1.645-1.579l-5.312-5.279c0.536,0.519,1.036,0.994,1.481,1.407l-11.886-11.863l3.443-3.462
												l14.208-14.089c-2.57,2.483-5.236,5.108-7.939,7.788c7.141-7.18,14.301-14.361,21.491-21.462
												c-1.236,1.34-2.971,3.149-3.709,4.024c0.084-0.019,2.398-2.31,1.078-0.948c-4.788,4.973-8.375,8.391-10.179,10.57
												c-0.326,0.43,5.328-4.866,3.595-3.06l-6.932,7.021l-2.57,2.554c-0.114,0.106-0.288,0.302-0.511,0.547
												c-3.084,3.103-6.028,6.046-7.669,7.665l-1.818,1.794c-0.324,0.304-0.607,0.557-0.832,0.75l-0.098,0.105l-0.025,0.03
												l-0.047,0.06l-0.087,0.108l0.063,0.055l4.31,4.353l2.569,2.663c-0.005-0.027-0.13-0.185,0.05-0.029l5.869,5.896
												c0.777,0.807,1.483,1.56,2.101,2.236c2.228,2.019,7.06,6.983,10.478,10.369v-0.009l5.179,5.19l0.783,0.854
												c0.448,0.413,0.904,0.866,1.13,1.073l1.509,1.532l-1.221,1.204l-0.758,0.733l-1.799,1.75l-0.18,0.19l-0.698-0.649
												l-0.438-0.419l-0.364-0.355l-2.66-2.66l-3.057-3.085l-10.233-10.38c-0.095-0.119-0.104-0.163-0.114-0.206
												c-0.552-0.509-1.271-1.264-1.758-1.726c0.095,0.087,0.16,0.136,0.154,0.114c-1.584-1.527-1.831-1.861-3.214-3.27
												c-0.318-0.314-0.628-0.592-0.943-0.896l-0.456-0.467c-1.506-1.655-3.103-3.204-4.861-4.968l-5.213-5.325
												C99.622,208.838,99.138,208.254,98.207,207.259z"/>
											<path fill="#D22F2F" d="M126.391,228.277l4.861,4.967C129.493,231.483,127.896,229.938,126.391,228.277z"/>
											<path fill="#D22F2F" d="M126.627,184.668c0.679-0.617,1.432-1.326,2.239-2.104l-12.601,12.578h-0.008
												C119.646,191.728,124.607,186.894,126.627,184.668z"/>
											<path fill="#D22F2F" d="M121.934,223.762l0.245,0.22l0.014,0.017C122.116,223.933,122.032,223.854,121.934,223.762z"/>
											<path fill="#D22F2F" d="M133.999,176.014l0.404-0.402l-3.06,3.098C132.151,177.875,133.062,176.956,133.999,176.014z"/>
											<path fill="#D22F2F" d="M130.363,173.826l-6.267,6.301c-2.706,2.685-5.372,5.31-7.939,7.791L130.363,173.826z"/>
											<path fill="#D22F2F" d="M134.732,176.646l2.663-2.568l-2.636,2.614C134.914,176.516,134.76,176.641,134.732,176.646z"/>
											<polygon fill="#D22F2F" points="125.434,184.651 126.062,184.023 124.482,185.668 											"/>
											<path fill="#D22F2F" d="M131.319,171.424l1.938-1.913c-0.375,0.389-0.742,0.771-1.108,1.166
												C131.926,170.864,131.64,171.122,131.319,171.424z"/>
											<path fill="#D22F2F" d="M121.32,181.432l-2.568,2.552l3.081-3.104C121.61,181.13,121.435,181.325,121.32,181.432z"/>
										</g>
									</g>
								</g>
							</g>
							<g>
								<g>
									<g>
										<g>
											<path fill="#D22F2F" d="M103.096,245.603l-16.922-16.86l6.344,6.32c-3.169-3.16-5.83-5.842-9.029-9.098
												c1.007,0.938,3.068,3.055,3.62,3.514c7.73,7.728,15.426,15.537,22.904,23.116
												C106.917,249.714,105.211,247.711,103.096,245.603z"/>
											<path fill="#D22F2F" d="M74.973,217.349l2.285,2.282C76.456,218.835,75.668,218.058,74.973,217.349z"/>
											<path fill="#D22F2F" d="M81.834,230.114l-2.646-2.622C80.065,228.346,80.948,229.229,81.834,230.114z"/>
											<polygon fill="#D22F2F" points="113.486,255.491 114.91,256.877 117.872,259.86 114.899,262.809 110.79,258.662 
												114.899,262.765 117.798,259.86 115.728,257.773 											"/>
											<path fill="#D22F2F" d="M109.74,251.551c-3.627-3.616-7.286-7.314-10.678-10.796
												C102.463,244.228,106.065,247.86,109.74,251.551z"/>
											<path fill="#D22F2F" d="M55.25,244.79c0.023-0.008-0.038,0.068-0.137,0.177c-0.106,0.111-0.201,0.212-0.274,0.299
												l-4.419,4.345c0.358-0.366,0.676-0.723,1.046-1.092C53.092,246.924,53.472,246.622,55.25,244.79z"/>
											<polygon fill="#D22F2F" points="82.824,231.098 82.921,231.183 83.83,232.076 83.934,232.188 											"/>
											<path fill="#D22F2F" d="M57.115,242.935c0.046-0.014,0.092-0.027,0.232-0.142l-2.492,2.457l0.257-0.28
												C55.65,244.407,56.526,243.567,57.115,242.935z"/>
											<path fill="#D22F2F" d="M75.343,224.976c0.043,0.044,0.086,0.071,0.138,0.101c-0.005-0.011,0.066,0.055,0.115,0.098
												l0.145,0.134l0.235,0.215l4.285,4.401c0.259,0.242,0.787,0.77,1.304,1.247l0.915,0.986l-7.14-7.168l-0.118,0.117
												l-0.738,0.733l-1.545,1.535l1.511-1.514l0.761-0.761l0.131-0.127L75.343,224.976z"/>
											<path fill="#D22F2F" d="M74.468,217.484c-4.698,4.75-10.244,10.113-14.755,14.81
												c5.455-5.343,12.927-12.774,13.872-13.421c0.946-0.646-7.376,7.401-11.595,11.636l1.148-1.085
												c-0.573,0.541-1.148,1.085-1.628,1.601c1.147-1.087,3.346-3.226,4.015-3.796l-0.96,1.03
												c2.959-2.739,8.322-8.052,11.281-10.791c-6.14,5.832-13.2,12.774-20.596,20.138l-11.273,11.277l-11.04,11.103
												l2.729,2.709l3.439-3.456c9.392-9.491,18.023-18.388,26.084-26.743c1.533-1.574,5.268-5.291,7.949-7.945l2.201-2.221
												l6.987,6.91l6.316,6.192c4.5,4.44,8.908,8.848,13.362,13.317l12.894,12.938l1.812-1.82l0.008-0.009
												c-0.011-0.016-0.02-0.029-0.03-0.046l-0.69-0.726c-0.439-0.468-0.787-0.851-0.929-1.03
												c-0.142-0.176-0.07-0.151,0.32,0.204c0.198,0.18,0.476,0.438,0.848,0.796l0.617,0.596l0.226,0.206l-0.095,0.098
												l-0.101,0.109l-0.321,0.331l-0.733,0.75l-0.701,0.715l-0.23,0.242l-0.204-0.193l-0.517-0.508l-1.266-1.248l-2.535-2.508
												l-5.07-5.054c0.553,0.465,2.612,2.578,3.619,3.514c-3.2-3.256-5.856-5.935-9.03-9.098l6.345,6.323l-16.92-16.861
												c-2.119-2.111-3.823-4.108-6.917-6.988c7.477,7.573,15.174,15.388,22.903,23.11l-0.043-0.033l9.544,9.535l-1.204-1.185
												l-1.451-1.456l2.747,2.79l2.422-2.389l-7.344-7.383l7.506,7.383l-2.584,2.614l-30.684-30.612
												c3.766,3.915,8.975,8.909,12.229,12.35l-18.944-19.007l1.427,1.388l-1.606-1.644l-1.983-2l-9.295,9.304l-1.072,1.065
												l1.072-1.065l9.295-9.225l2.162,2.174l-2.162-2.136l-3.859,3.851l1.662-1.596l2.197-2.157l1.004,1.017l6.332,6.35
												l-3.622-3.598l-3.714-3.663l-2.432,2.481l2.432-2.405l11.194,11.271l-7.3-7.266l-3.894-3.921l-8.655,8.603l0.472-0.479
												l-0.945,0.948l-4.898,4.883c-1.469,1.476-2.893,2.938-4.301,4.395l-0.726,0.726c0.445-0.474,0.653-0.71-0.241,0.168
												c-3.829,3.742-7.859,7.921-12.26,12.203c-1.155,1.125-2.682,2.669-4.327,4.337c-0.462,0.438-0.691,0.683-0.893,0.905
												l-1.073,1.087l-1.827,1.84l-0.558-0.547l0.558,0.558l1.827-1.851l0.983-0.989c-0.211,0.236-0.434,0.489-0.922,0.976
												l18.732-18.692l-1.109,1.174l1.835-1.899l6.121-6.157c-0.603,0.619-1.156,1.198-1.636,1.712l13.842-13.861l3.894,3.878
												l16.342,16.456c-2.885-2.973-5.932-6.057-9.042-9.189c8.318,8.276,16.642,16.58,24.88,24.903
												c-1.548-1.44-3.638-3.456-4.641-4.323c0.025,0.093,2.684,2.774,1.11,1.239c-5.752-5.562-9.725-9.703-12.222-11.825
												c-0.487-0.384,5.679,6.138,3.591,4.124l-8.132-8.043l-2.962-2.976c-0.124-0.133-0.349-0.337-0.632-0.598
												c-3.592-3.573-7.006-6.986-8.886-8.888l-2.08-2.106c-0.353-0.375-0.65-0.698-0.875-0.956l-0.121-0.114
												c-0.026-0.024-0.028-0.024-0.032-0.03L75.516,225l-0.062-0.051l-0.116-0.093l-0.085,0.098l-5.221,5.177l-3.08,2.983
												c0.033-0.008,0.211-0.155,0.031,0.049l-6.832,6.807c-0.935,0.905-1.803,1.729-2.582,2.445
												c-2.355,2.565-8.097,8.177-12.027,12.136h0.01l-6.013,6.005l-0.986,0.916c-0.483,0.517-1.008,1.043-1.247,1.302
												l-1.641,1.619l-1.38-1.402l-0.808-0.831l-2.008-2.06l-0.126-0.12l0.782-0.831l0.499-0.524l0.344-0.354l3.084-3.084
												l3.572-3.543l12.017-11.872c0.141-0.111,0.187-0.125,0.235-0.142c0.592-0.633,1.465-1.476,2.001-2.032
												c-0.099,0.108-0.159,0.182-0.133,0.174c1.773-1.829,2.152-2.128,3.782-3.73c0.366-0.367,0.689-0.723,1.043-1.087
												l0.54-0.533c1.906-1.755,3.705-3.603,5.747-5.641l6.167-6.052C72.652,219.137,73.318,218.568,74.468,217.484z"/>
											<path fill="#D22F2F" d="M49.883,250.138l-5.749,5.644C46.177,253.744,47.975,251.896,49.883,250.138z"/>
											<path fill="#D22F2F" d="M100.613,250.187c0.72,0.783,1.544,1.652,2.447,2.584l-14.579-14.6l-0.001-0.008
												C92.438,242.089,98.049,247.831,100.613,250.187z"/>
											<path fill="#D22F2F" d="M55.113,244.967l-0.257,0.28l-0.018,0.019C54.914,245.179,55.007,245.078,55.113,244.967z"/>
											<path fill="#D22F2F" d="M110.541,258.833l0.47,0.471l-3.59-3.549C108.385,256.692,109.449,257.746,110.541,258.833z"/>
											<path fill="#D22F2F" d="M113.182,254.73l-7.302-7.267c-3.11-3.136-6.157-6.223-9.041-9.192L113.182,254.73z"/>
											<path fill="#D22F2F" d="M109.918,259.575l2.983,3.078l-3.032-3.049C110.071,259.784,109.924,259.604,109.918,259.575z"/>
											<polygon fill="#D22F2F" points="100.533,248.904 101.263,249.63 99.363,247.796 											"/>
											<path fill="#D22F2F" d="M115.853,255.953l2.221,2.241l-1.349-1.288C116.502,256.651,116.203,256.325,115.853,255.953z"/>
											<path fill="#D22F2F" d="M104.253,244.363l-2.959-2.975l3.592,3.57C104.602,244.698,104.378,244.497,104.253,244.363z"/>
										</g>
									</g>
								</g>
							</g>
							<g>
								<g>
									<g>
										<g>
											<path fill="#D22F2F" d="M98.722,253.467l-14.604-14.543l5.476,5.453c-2.737-2.726-5.03-5.043-7.787-7.855
												c0.872,0.805,2.646,2.633,3.13,3.024c6.668,6.666,13.302,13.412,19.745,19.959
												C101.998,257.029,100.546,255.284,98.722,253.467z"/>
											<path fill="#D22F2F" d="M74.467,229.079l1.97,1.965C75.745,230.361,75.066,229.69,74.467,229.079z"/>
											<path fill="#D22F2F" d="M80.535,240.128l-2.288-2.262C79.008,238.604,79.771,239.366,80.535,240.128z"/>
											<polygon fill="#D22F2F" points="107.719,261.961 108.953,263.159 111.526,265.751 109.016,268.237 105.547,264.732 
												109.016,268.202 111.453,265.751 109.675,263.958 											"/>
											<path fill="#D22F2F" d="M104.501,258.551c-3.131-3.122-6.286-6.312-9.203-9.326
												C98.225,252.228,101.333,255.366,104.501,258.551z"/>
											<path fill="#D22F2F" d="M57.668,252.687c0.022-0.003-0.031,0.062-0.114,0.158c-0.09,0.095-0.171,0.182-0.236,0.258
												l-3.818,3.741c0.309-0.317,0.582-0.625,0.9-0.942C55.806,254.526,56.138,254.273,57.668,252.687z"/>
											<polygon fill="#D22F2F" points="81.39,240.976 81.473,241.049 82.258,241.817 82.348,241.915 											"/>
											<path fill="#D22F2F" d="M59.278,251.086c0.042-0.008,0.086-0.016,0.207-0.114l-2.153,2.117l0.221-0.242
												C58.015,252.358,58.773,251.635,59.278,251.086z"/>
											<path fill="#D22F2F" d="M74.858,235.807c0.037,0.036,0.077,0.058,0.121,0.082l0.017,0.008l0.066,0.06l0.127,0.114
												l0.203,0.183c1.156,1.201,2.311,2.401,3.689,3.807c0.223,0.206,0.681,0.663,1.128,1.073l0.783,0.856l-6.153-6.183
												l-0.099,0.096l-0.503,0.497l-1.29,1.282l1.261-1.266l0.523-0.522l0.11-0.105L74.858,235.807z"/>
											<path fill="#D22F2F" d="M74.056,229.117c-4.05,4.101-8.847,8.72-12.728,12.782c4.716-4.604,11.165-11.011,11.999-11.549
												c0.837-0.541-6.361,6.389-10.001,10.043l0.997-0.932c-0.497,0.465-0.997,0.932-1.407,1.378
												c0.995-0.933,2.896-2.774,3.478-3.261l-0.823,0.894c2.568-2.348,7.2-6.929,9.768-9.274
												c-5.314,5.006-11.404,10.976-17.778,17.317l-9.712,9.717l-9.468,9.535l2.276,2.256l2.968-2.986
												c8.097-8.198,15.524-15.891,22.462-23.122c1.318-1.358,4.544-4.562,6.858-6.853l1.899-1.916l6.169,6.09l5.501,5.38
												c3.88,3.82,7.677,7.617,11.512,11.465l10.991,11.037l0.629-0.631l0.692-0.695l0.034-0.035l0.006-0.006
												c-0.012-0.011-0.019-0.024-0.028-0.037l-0.003-0.006c-0.003-0.003,0.002,0-0.006-0.006l-0.04-0.043l-0.158-0.166
												l-0.306-0.323c-0.386-0.413-0.692-0.756-0.816-0.919c-0.122-0.162-0.062-0.144,0.285,0.166
												c0.175,0.155,0.42,0.384,0.75,0.698l0.48,0.457l0.203,0.182l-0.071,0.076l-0.086,0.096l-0.044,0.046l-0.132,0.136
												l-0.644,0.66l-0.546,0.56l-0.203,0.215l-0.175-0.166l-0.369-0.358l-1.088-1.07l-2.176-2.152l-4.354-4.334
												c0.484,0.392,2.257,2.218,3.129,3.021c-2.756-2.812-5.047-5.125-7.787-7.855l5.478,5.456L87.07,245.54
												c-1.827-1.823-3.276-3.564-5.96-6.037c6.443,6.543,13.077,13.29,19.745,19.958l-0.038-0.03l8.14,8.131l-0.274-0.264
												l-0.668-0.66l-1.251-1.256l2.256,2.302l0.975-0.957l0.984-0.973l-6.315-6.355l6.484,6.355l-2.128,2.155l-13.11-13.087
												c-4.493-4.494-8.949-8.953-13.271-13.232c3.238,3.391,7.749,7.682,10.542,10.665l-16.341-16.404l1.236,1.192
												l-1.427-1.462l-1.802-1.817l-7.979,7.983l-0.927,0.918l0.927-0.918l7.979-7.907l1.994,2.008l-1.994-1.967l-3.282,3.271
												c0.406-0.381,0.882-0.837,1.398-1.337l1.884-1.843l0.98,0.995l5.468,5.485l-3.172-3.146l-3.275-3.223l-2.032,2.082
												l2.032-2.009l9.763,9.84l-6.302-6.267l-3.459-3.488l-7.397,7.348l0.407-0.416l-0.815,0.82l-4.228,4.212
												c-1.267,1.271-2.492,2.535-3.705,3.796l-0.626,0.628c0.382-0.41,0.56-0.617-0.212,0.142
												c-3.309,3.22-6.777,6.836-10.582,10.523c-0.997,0.968-2.315,2.302-3.733,3.742c-0.399,0.377-0.598,0.589-0.769,0.779
												l-0.924,0.943l-1.601,1.614l-0.444-0.436l0.444,0.443l1.601-1.625l0.847-0.854c-0.182,0.207-0.372,0.427-0.792,0.848
												l16.165-16.124l-0.955,1.017l1.581-1.645l5.28-5.314c-0.518,0.535-0.995,1.038-1.406,1.48l11.863-11.883l3.461,3.446
												L92.4,251.934c-2.482-2.57-5.109-5.233-7.79-7.939c7.177,7.141,14.361,14.304,21.462,21.491
												c-1.341-1.239-3.149-2.973-4.024-3.709c0.017,0.084,2.309,2.399,0.949,1.076c-4.974-4.785-8.392-8.372-10.573-10.177
												c-0.426-0.323,4.868,5.329,3.061,3.595l-7.023-6.932l-2.554-2.57c-0.106-0.114-0.302-0.288-0.548-0.511
												c-3.1-3.081-6.047-6.027-7.667-7.668l-1.792-1.821c-0.304-0.32-0.559-0.605-0.751-0.831l-0.104-0.098l-0.031-0.024
												l-0.061-0.047l-0.109-0.087l-0.053,0.062l-4.353,4.31l-2.665,2.571c0.029-0.009,0.186-0.131,0.031,0.046l-5.895,5.869
												c-0.809,0.78-1.561,1.486-2.238,2.104c-2.018,2.226-6.98,7.06-10.368,10.475h0.009l-5.19,5.182l-0.856,0.783
												c-0.413,0.448-0.866,0.904-1.073,1.128l-1.535,1.511l-1.2-1.221l-0.733-0.758l-1.75-1.799l-0.193-0.18l0.644-0.692
												l0.417-0.438l0.356-0.367l2.66-2.66l3.083-3.057l10.38-10.23c0.121-0.098,0.165-0.106,0.208-0.117
												c0.506-0.552,1.262-1.271,1.723-1.758c-0.085,0.095-0.135,0.16-0.112,0.154c1.527-1.584,1.859-1.834,3.269-3.217
												c0.313-0.315,0.592-0.625,0.898-0.94l0.467-0.456c1.654-1.506,3.202-3.104,4.965-4.861l5.329-5.212
												C72.478,230.533,73.06,230.049,74.056,229.117z"/>
											<path fill="#D22F2F" d="M53.037,257.304l-4.965,4.858C49.833,260.403,51.38,258.809,53.037,257.304z"/>
											<path fill="#D22F2F" d="M96.647,257.54c0.616,0.677,1.326,1.429,2.103,2.236l-12.577-12.601l-0.001-0.005
												C89.587,250.557,94.422,255.519,96.647,257.54z"/>
											<path fill="#D22F2F" d="M57.554,252.847l-0.221,0.242l-0.016,0.017C57.383,253.026,57.462,252.939,57.554,252.847z"/>
											<path fill="#D22F2F" d="M105.301,264.909l0.403,0.404l-3.098-3.06C103.44,263.062,104.358,263.972,105.301,264.909z"/>
											<path fill="#D22F2F" d="M107.489,261.276l-6.303-6.27c-2.682-2.706-5.307-5.372-7.791-7.939L107.489,261.276z"/>
											<path fill="#D22F2F" d="M104.669,265.64l2.568,2.663l-2.614-2.63C104.798,265.827,104.675,265.67,104.669,265.64z"/>
											<polygon fill="#D22F2F" points="96.663,256.344 97.291,256.972 95.648,255.396 											"/>
											<path fill="#D22F2F" d="M109.892,262.232l1.915,1.938c-0.386-0.375-0.774-0.742-1.166-1.108
												C110.449,262.836,110.193,262.551,109.892,262.232z"/>
											<path fill="#D22F2F" d="M99.885,252.23l-2.552-2.568l3.101,3.082C100.187,252.521,99.992,252.345,99.885,252.23z"/>
										</g>
									</g>
								</g>
							</g>
						</g>
					</g>
				</g>
			</g>
		</g>
		<g>
			<path d="M64.645,218.873c-0.435-0.402-0.79-0.267-0.79,0.302v5.361c0,0.567,0.357,0.703,0.79,0.304l2.449-2.255
				c0.434-0.399,0.434-1.058,0-1.457L64.645,218.873z"/>
			<path d="M75.246,201.812c-2.531,0-4.581,2.054-4.581,4.578c0,2.53,2.05,4.579,4.581,4.579c2.526,0,4.578-2.049,4.578-4.579
				C79.823,203.862,77.772,201.812,75.246,201.812z"/>
			<path d="M86.16,193.469L86.16,193.469V180.41l0,0c0-0.43-0.349-0.777-0.779-0.777H64.632c-0.43,0-0.779,0.348-0.779,0.777v6.355
				h0.004c0.016,0.416,0.354,0.747,0.775,0.747h0.001h-0.001h14.916c0.553,0,1.007,0.454,1.007,1.008v4.948h0.001
				c0.001,0.427,0.342,0.77,0.765,0.774l0.003,0.003h4.058C85.811,194.246,86.16,193.898,86.16,193.469z"/>
			<path d="M64.635,208.091c0.205,0,0.389-0.084,0.53-0.212h0.003l0.011-0.011c0.003-0.006,0.009-0.009,0.013-0.014l10.022-10.22
				c0.387-0.396,1.039-0.416,1.45-0.041l8.225,7.378h0.004c0.134,0.108,0.304,0.176,0.492,0.176c0.43,0,0.779-0.348,0.779-0.776
				v-6.75c0-0.229-0.1-0.432-0.26-0.573l0.001-0.003l-2.043-1.791h-3.533c-0.431,0-0.779-0.348-0.779-0.776v-2.986
				c-1.955-1.704-3.597-3.131-3.597-3.131c-0.409-0.372-1.063-0.353-1.45,0.041l-10.429,10.48l-0.005,0.011
				c-0.13,0.139-0.211,0.323-0.211,0.53l-0.002,7.924l0.008,0.019C63.89,207.768,64.223,208.091,64.635,208.091z"/>
			<path d="M72.04,228.69l0.008-0.006l0.025-0.021c0.003-0.003,0.005-0.008,0.008-0.008l3.43-3.32l10.43-10.479l0.006-0.011
				c0.13-0.139,0.21-0.326,0.21-0.529l0.004-7.924l-0.008-0.02c-0.029-0.401-0.361-0.723-0.774-0.723
				c-0.204,0-0.389,0.082-0.53,0.21h-0.002l-0.012,0.011c-0.004,0.005-0.008,0.011-0.012,0.014L74.8,216.104
				c-0.387,0.394-1.04,0.415-1.45,0.04l-8.226-7.377h-0.004c-0.134-0.111-0.304-0.18-0.491-0.18c-0.431,0-0.778,0.348-0.778,0.78
				v6.747c0,0.23,0.1,0.435,0.258,0.576l-0.001,0.002l4.725,4.364c0.418,0.367,0.444,0.992,0.063,1.394l-4.817,5.108l0,0
				c-0.14,0.142-0.226,0.335-0.226,0.547c0,0.432,0.349,0.779,0.778,0.779h6.896C71.724,228.886,71.903,228.81,72.04,228.69z"/>
		</g>
	</g>
</g>
</svg>
