<?xml version="1.0" encoding="utf-8"?>
<!-- Generator: Adobe Illustrator 15.1.0, SVG Export Plug-In . SVG Version: 6.00 Build 0)  -->
<!DOCTYPE svg PUBLIC "-//W3C//DTD SVG 1.1//EN" "http://www.w3.org/Graphics/SVG/1.1/DTD/svg11.dtd">
<svg version="1.1" id="Layer_1" xmlns="http://www.w3.org/2000/svg" xmlns:xlink="http://www.w3.org/1999/xlink" x="0px" y="0px"
	 width="80.965px" height="91.773px" viewBox="0 0 80.965 91.773" enable-background="new 0 0 80.965 91.773" xml:space="preserve">
<g>
	<path fill="#FFFFFF" d="M-0.143-0.032c3.502,3.527,7.126,4.744,8.535,6.44c1.406,1.698,0.487,4.45,0.487,4.45
		S6.004,11.25,4.598,9.551C3.19,7.853,2.669,4.066-0.143-0.032z"/>
	<path fill="#FFFFFF" d="M12.554,11.888c-0.096-0.134-0.24-0.214-0.396-0.236c0.004-0.162-0.054-0.321-0.178-0.438
		c-0.144-0.137-0.341-0.172-0.529-0.13c0.162-0.249,0.146-0.568-0.067-0.768c-0.018-0.017-0.042-0.022-0.061-0.036
		c-0.134-0.124-0.314-0.178-0.497-0.15c0.086-0.207,0.066-0.444-0.084-0.615c-0.076-0.088-0.177-0.136-0.284-0.166
		c-0.012-0.085-0.04-0.167-0.091-0.242c-0.186-0.27-0.57-0.326-0.854-0.129l-2.746,1.913c-0.283,0.196-0.362,0.575-0.174,0.846
		c0.131,0.188,0.359,0.266,0.582,0.231c-0.063,0.194-0.04,0.409,0.1,0.567c0.077,0.089,0.18,0.137,0.288,0.166
		c0.002,0.112,0.025,0.223,0.093,0.318c0.097,0.139,0.247,0.218,0.407,0.237c0,0.157,0.061,0.311,0.182,0.422
		c0.142,0.133,0.333,0.169,0.515,0.132c-0.131,0.211-0.13,0.465,0.005,0.66c0.012,0.022,0.014,0.047,0.029,0.068
		c0.188,0.269,0.572,0.323,0.854,0.125l2.734-1.927C12.666,12.538,12.742,12.157,12.554,11.888z"/>
	<path fill="#FFFFFF" d="M81.108-0.032c-3.504,3.527-7.131,4.744-8.533,6.44c-1.408,1.698-0.49,4.45-0.49,4.45
		s2.875,0.392,4.281-1.308C77.77,7.853,78.295,4.066,81.108-0.032z"/>
	<path fill="#FFFFFF" d="M74.194,10.891l-2.746-1.913c-0.281-0.197-0.664-0.141-0.854,0.129c-0.052,0.074-0.079,0.157-0.091,0.242
		c-0.106,0.029-0.206,0.078-0.282,0.165c-0.151,0.171-0.172,0.408-0.085,0.615c-0.184-0.028-0.363,0.027-0.497,0.152
		c-0.019,0.013-0.041,0.019-0.059,0.035c-0.213,0.2-0.229,0.519-0.069,0.768c-0.187-0.041-0.383-0.006-0.528,0.131
		c-0.124,0.117-0.182,0.276-0.178,0.438c-0.156,0.021-0.3,0.102-0.395,0.236c-0.191,0.27-0.113,0.65,0.17,0.849l2.732,1.927
		c0.283,0.198,0.666,0.144,0.855-0.125c0.015-0.021,0.018-0.045,0.029-0.067c0.136-0.195,0.139-0.449,0.008-0.66
		c0.181,0.036,0.37,0,0.512-0.133c0.121-0.112,0.182-0.266,0.182-0.423c0.161-0.019,0.311-0.098,0.406-0.236
		c0.069-0.095,0.093-0.206,0.096-0.318c0.107-0.029,0.21-0.077,0.287-0.166c0.14-0.159,0.164-0.373,0.101-0.567
		c0.222,0.034,0.448-0.043,0.581-0.231C74.557,11.466,74.477,11.087,74.194,10.891z"/>
	<g>
		<polygon fill="#FFFFFF" points="60.425,27.376 71.143,14.428 68.944,12.608 57.708,26.181 		"/>
		<polygon fill="#FFFFFF" points="21.587,69.821 4.896,89.986 7.095,91.806 21.972,73.832 		"/>
	</g>
	<g>
		<polygon fill="#FFFFFF" points="59.377,69.798 58.993,73.811 73.874,91.788 76.073,89.968 		"/>
		<polygon fill="#FFFFFF" points="23.269,26.175 12.022,12.588 9.823,14.409 20.551,27.37 		"/>
	</g>
</g>
<g>
	<polygon fill="#FFFFFF" points="17.64,28.652 40.481,18.6 13.435,24.643 18.25,80.691 40.481,90.961 22.144,75.622 	"/>
	<polygon fill="#FFFFFF" points="40.481,18.6 63.323,28.652 58.819,75.622 40.481,90.961 62.709,80.691 67.528,24.643 	"/>
</g>
<g>
	<path fill="#FFFFFF" d="M30.12,68.281c-0.436-0.402-0.79-0.268-0.79,0.302v5.361c0,0.566,0.356,0.703,0.79,0.304l2.449-2.255
		c0.434-0.399,0.434-1.059,0-1.457L30.12,68.281z"/>
	<path fill="#FFFFFF" d="M40.722,51.219c-2.531,0-4.582,2.055-4.582,4.578c0,2.53,2.051,4.579,4.582,4.579
		c2.525,0,4.578-2.049,4.578-4.579C45.297,53.269,43.247,51.219,40.722,51.219z"/>
	<path fill="#FFFFFF" d="M51.635,42.876L51.635,42.876V29.818l0,0c0-0.431-0.35-0.777-0.779-0.777h-20.75
		c-0.43,0-0.778,0.348-0.778,0.777v6.354h0.004c0.017,0.416,0.354,0.747,0.774,0.747h0.002h-0.002h14.916
		c0.555,0,1.008,0.454,1.008,1.008v4.948h0.002c0,0.427,0.342,0.77,0.764,0.774l0.004,0.003h4.057
		C51.286,43.654,51.635,43.305,51.635,42.876z"/>
	<path fill="#FFFFFF" d="M30.11,57.498c0.205,0,0.389-0.084,0.529-0.212h0.004l0.011-0.011c0.003-0.007,0.009-0.01,0.013-0.015
		l10.021-10.22c0.388-0.396,1.039-0.416,1.451-0.041l8.225,7.378h0.004c0.135,0.108,0.305,0.176,0.492,0.176
		c0.43,0,0.779-0.348,0.779-0.775v-6.75c0-0.229-0.1-0.433-0.26-0.573v-0.003l-2.043-1.791h-3.533c-0.43,0-0.779-0.348-0.779-0.776
		V40.9c-1.953-1.704-3.596-3.132-3.596-3.132c-0.41-0.371-1.063-0.353-1.451,0.041L29.55,48.289L29.544,48.3
		c-0.13,0.14-0.211,0.323-0.211,0.53l-0.002,7.924l0.008,0.02C29.365,57.175,29.698,57.498,30.11,57.498z"/>
	<path fill="#FFFFFF" d="M37.515,78.097l0.008-0.006l0.025-0.021c0.004-0.003,0.006-0.008,0.008-0.008l3.431-3.32l10.43-10.479
		l0.006-0.011c0.129-0.139,0.209-0.326,0.209-0.529l0.004-7.924l-0.008-0.02c-0.029-0.401-0.361-0.724-0.773-0.724
		c-0.205,0-0.389,0.082-0.529,0.21h-0.002l-0.014,0.012c-0.004,0.005-0.008,0.011-0.012,0.014l-10.023,10.22
		c-0.387,0.395-1.039,0.415-1.449,0.04l-8.227-7.377h-0.004c-0.134-0.11-0.304-0.18-0.49-0.18c-0.432,0-0.778,0.348-0.778,0.78
		v6.747c0,0.229,0.101,0.435,0.258,0.575l-0.001,0.002l4.725,4.364c0.418,0.367,0.444,0.992,0.063,1.395l-4.817,5.107l0,0
		c-0.14,0.143-0.226,0.335-0.226,0.547c0,0.433,0.349,0.779,0.778,0.779h6.896C37.199,78.293,37.378,78.217,37.515,78.097z"/>
</g>
</svg>
