<?xml version="1.0" encoding="utf-8"?>
<!-- Generator: Adobe Illustrator 15.1.0, SVG Export Plug-In . SVG Version: 6.00 Build 0)  -->
<!DOCTYPE svg PUBLIC "-//W3C//DTD SVG 1.1//EN" "http://www.w3.org/Graphics/SVG/1.1/DTD/svg11.dtd">
<svg version="1.1" id="Layer_1" xmlns="http://www.w3.org/2000/svg" xmlns:xlink="http://www.w3.org/1999/xlink" x="0px" y="0px"
	 width="200.17px" height="65.99px" viewBox="45.809 156.708 200.17 65.99" enable-background="new 45.809 156.708 200.17 65.99"
	 xml:space="preserve">
<g>
	<g>
		<g>
			
				<rect x="75.762" y="158.138" transform="matrix(-0.7701 0.6379 -0.6379 -0.7701 259.8294 294.8505)" fill="#D22F2F" width="2.053" height="72.206"/>
			<path d="M52.232,167.181c0.136,0.193,0.411,0.233,0.614,0.09l1.966-1.385c0.204-0.143,0.259-0.416,0.123-0.609l0,0
				c-0.137-0.192-0.412-0.233-0.615-0.089l-1.966,1.385C52.151,166.715,52.097,166.987,52.232,167.181L52.232,167.181z"/>
			<path d="M51.14,165.741c0.155,0.178,0.434,0.19,0.621,0.026l1.812-1.58c0.188-0.164,0.214-0.441,0.059-0.618l0,0
				c-0.154-0.178-0.433-0.19-0.62-0.026l-1.812,1.58C51.011,165.286,50.984,165.563,51.14,165.741L51.14,165.741z"/>
			<path d="M52.259,167.201c0.172,0.162,0.449,0.146,0.621-0.036l1.646-1.752c0.171-0.182,0.17-0.459-0.003-0.621l0,0
				c-0.171-0.162-0.449-0.146-0.62,0.036l-1.646,1.752C52.086,166.761,52.087,167.039,52.259,167.201L52.259,167.201z"/>
			<path fill="#EF4538" d="M45.809,156.708c2.517,2.535,5.123,3.411,6.134,4.63c1.011,1.22,0.351,3.199,0.351,3.199
				s-2.067,0.28-3.077-0.94C48.205,162.377,47.83,159.653,45.809,156.708z"/>
			<path d="M54.094,164.146c0.173,0.161,0.175,0.439,0.004,0.622l-1.64,1.757c-0.169,0.183-0.447,0.2-0.62,0.039l0,0
				c-0.173-0.161-0.175-0.439-0.005-0.621l1.641-1.759C53.644,164.003,53.921,163.985,54.094,164.146L54.094,164.146z"/>
			<path d="M54.11,164.176c0.137,0.192,0.082,0.466-0.121,0.609l-1.96,1.392c-0.204,0.145-0.479,0.105-0.615-0.088l0,0
				c-0.137-0.192-0.083-0.466,0.12-0.609l1.961-1.392C53.697,163.944,53.974,163.983,54.11,164.176L54.11,164.176z"/>
			<path d="M53.363,163.277c0.135,0.193,0.078,0.466-0.126,0.608l-1.972,1.375c-0.204,0.142-0.48,0.101-0.615-0.093l0,0
				c-0.135-0.193-0.078-0.466,0.126-0.608l1.973-1.375C52.953,163.042,53.229,163.083,53.363,163.277L53.363,163.277z"/>
			
				<rect x="72.205" y="158.144" transform="matrix(0.7702 0.6378 -0.6378 0.7702 140.7277 -2.0662)" fill="#D22F2F" width="2.052" height="72.202"/>
			<path d="M97.785,167.181c-0.136,0.193-0.411,0.233-0.614,0.09l-1.966-1.385c-0.203-0.143-0.259-0.416-0.122-0.609l0,0
				c0.136-0.192,0.411-0.233,0.614-0.089l1.966,1.385C97.867,166.715,97.922,166.987,97.785,167.181L97.785,167.181z"/>
			<path d="M98.878,165.741c-0.155,0.178-0.433,0.19-0.621,0.026l-1.812-1.58c-0.188-0.164-0.215-0.441-0.06-0.618l0,0
				c0.155-0.178,0.433-0.19,0.62-0.026l1.813,1.58C99.007,165.286,99.033,165.563,98.878,165.741L98.878,165.741z"/>
			<path d="M97.759,167.201c-0.171,0.162-0.449,0.146-0.62-0.036l-1.646-1.752c-0.171-0.182-0.17-0.459,0.003-0.621l0,0
				c0.172-0.162,0.449-0.146,0.62,0.036l1.646,1.752C97.933,166.761,97.932,167.039,97.759,167.201L97.759,167.201z"/>
			<path fill="#EF4538" d="M104.21,156.708c-2.518,2.535-5.124,3.411-6.134,4.63c-1.011,1.22-0.352,3.199-0.352,3.199
				s2.067,0.28,3.078-0.94C101.812,162.377,102.188,159.653,104.21,156.708z"/>
			<path d="M95.925,164.146c-0.173,0.161-0.175,0.439-0.005,0.622l1.641,1.757c0.169,0.183,0.446,0.2,0.62,0.039l0,0
				c0.172-0.161,0.175-0.439,0.004-0.621l-1.64-1.759C96.375,164.003,96.097,163.985,95.925,164.146L95.925,164.146z"/>
			<path d="M95.908,164.176c-0.137,0.192-0.083,0.466,0.121,0.609l1.96,1.392c0.203,0.144,0.479,0.104,0.614-0.088l0,0
				c0.138-0.192,0.083-0.466-0.12-0.609l-1.961-1.392C96.32,163.944,96.045,163.983,95.908,164.176L95.908,164.176z"/>
			<path d="M96.654,163.277c-0.135,0.193-0.078,0.466,0.126,0.608l1.973,1.375c0.204,0.142,0.479,0.101,0.614-0.093l0,0
				c0.136-0.193,0.079-0.466-0.126-0.608l-1.973-1.375C97.065,163.042,96.79,163.083,96.654,163.277L96.654,163.277z"/>
		</g>
		<polygon points="59.03,214.729 55.568,174.444 75.009,170.101 94.449,174.444 90.987,214.729 75.009,222.113 		"/>
		<g>
			<g>
				<g>
					<defs>
						<polygon id="SVGID_1_" points="61.828,211.088 58.591,177.325 75.009,170.101 91.427,177.325 88.19,211.088 75.009,222.113 
													"/>
					</defs>
					<clipPath id="SVGID_2_">
						<use xlink:href="#SVGID_1_"  overflow="visible"/>
					</clipPath>
					<rect x="53.053" y="168.607" clip-path="url(#SVGID_2_)" fill="#EF4538" width="41.866" height="55.92"/>
				</g>
			</g>
			<g>
				<g>
					<defs>
						<polygon id="SVGID_3_" points="61.828,211.088 58.591,177.325 75.009,170.101 91.427,177.325 88.19,211.088 75.009,222.113 
													"/>
					</defs>
					<clipPath id="SVGID_4_">
						<use xlink:href="#SVGID_3_"  overflow="visible"/>
					</clipPath>
					<g clip-path="url(#SVGID_4_)">
						<g>
							<g>
								<g>
									<g>
										<path fill="#D22F2F" d="M63.129,187.062l9.837,9.812l-18.26,18.275l10.276-10.291c-5.135,5.143-9.482,9.472-14.742,14.693
											c1.554-1.604,4.963-4.975,5.754-5.83l16.887-16.849l-21.017-21.13C56.792,180.521,59.696,183.636,63.129,187.062z"/>
										<polygon fill="#D22F2F" points="41.926,232.885 39.377,230.338 39.994,229.721 39.381,230.338 										"/>
										<path fill="#D22F2F" d="M97.872,171.32l4.268-4.287L97.872,171.32z"/>
										<polygon fill="#D22F2F" points="46.483,170.778 44.187,168.509 39.102,163.409 41.655,160.865 51.019,170.263 
											41.655,160.906 39.154,163.409 42.774,167.039 										"/>
										<path fill="#D22F2F" d="M52.655,177.089c5.886,5.879,11.844,11.864,17.392,17.479
											C64.492,188.961,58.627,183.073,52.655,177.089z"/>
										<path fill="#D22F2F" d="M81.304,194.268c0.03-0.018-0.077,0.099-0.239,0.27l-0.456,0.473l-1.881,1.865l4.434,4.47
											l-1.751-1.72l-1.734-1.756l-0.692-0.704l-0.28-0.29l0.224-0.219l0.673-0.671L81.304,194.268z"/>
										<polygon fill="#D22F2F" points="96.274,172.923 96.127,173.077 94.669,174.544 94.491,174.718 										"/>
										<path fill="#D22F2F" d="M84.33,191.248c0.06-0.036,0.121-0.073,0.336-0.27l-4.03,4.003l0.429-0.444
											C81.946,193.639,83.353,192.256,84.33,191.248z"/>
										<polygon fill="#D22F2F" points="108.188,160.03 107.272,160.954 106.722,161.523 105.9,162.38 98.804,169.392 
											96.752,171.483 95.182,173.002 108.584,159.621 112.365,163.409 109.905,165.864 112.356,163.409 108.584,159.634 
																					"/>
										<path fill="#D22F2F" d="M42.921,232.156c7.651-7.688,16.575-16.482,23.985-24.023
											c-8.808,8.727-20.922,20.812-22.321,21.998c-1.401,1.188,11.989-12.008,18.846-18.877l-1.836,1.791
											c0.917-0.895,1.836-1.791,2.631-2.61c-1.835,1.79-5.38,5.292-6.42,6.263l1.591-1.642
											c-4.704,4.544-13.392,13.197-18.098,17.743c4.971-4.859,10.344-10.154,15.991-15.75l8.661-8.602l9.168-9.139
											l33.465,33.422l2.385-2.393l-11.41-11.384l-22.261-22.079l21.215-21.51l5.506-5.521l6.451-6.435l-0.09-0.092l-1.796-1.785
											l-20.026,20.172l-13.438,13.477l-33.464-33.501l-1.719,1.722l-0.008,0.008l1.928,1.96
											c0.746,0.766,1.347,1.393,1.603,1.677c0.256,0.285,0.167,0.226-0.467-0.381l-1.386-1.347l-1.938-1.908l0.134-0.138
											l1.097-1.108l0.757-0.768l9.048,8.989l9.485,9.466c-0.858-0.792-4.225-4.198-5.828-5.752
											c5.222,5.262,9.546,9.603,14.693,14.743L58.76,178.564l16.36,16.346l11.914-11.944c3.432-3.437,6.541-6.335,11.318-11.265
											l-23.233,23.111l-14.931-14.961l0.066,0.062L44.19,163.852l4.875,4.865l-7.41-7.455l-2.158,2.147l12.46,12.487
											l-12.579-12.487l2.277-2.289l33.464,33.44l19.634-19.662c-3.04,2.988-6.527,6.483-9.939,9.904l-4.997,5.002l-2.336,2.322
											l-2.361,2.331l-0.752-0.765l0.752,0.752l30.471-30.425l-2.272,2.302l5.267-5.23l2.315,2.318l-11.273,11.282l-1.738,1.731
											l1.738-1.731l11.322-11.282l-2.364-2.374l-2.994,2.984l2.994-3.013l2.403,2.402l-2.58,2.574l2.62-2.574l-2.443-2.469
											l-1.284,1.272l-10.292,10.279l11.576-11.632l2.577,2.55l-0.555,0.562l0.565-0.562l-2.588-2.603l-18.111,18.057
											l11.814-11.84l6.297-6.276l2.654,2.663l-10.764,10.737l0.77-0.773l-1.534,1.537l-7.949,7.938
											c-2.387,2.391-4.716,4.747-7.026,7.091l-1.181,1.182c0.736-0.757,1.088-1.129-0.358,0.306l-5.468,5.449l7.199,7.186
											c2.422,2.418,4.895,4.897,7.404,7.438c1.839,1.861,4.34,4.35,7.039,7.032c0.724,0.739,1.112,1.118,1.464,1.454
											l1.761,1.749l4.283,4.265l-4.283-4.265l-1.604-1.601c0.373,0.356,0.77,0.731,1.562,1.523l-24.751-24.781l5.752-5.755
											l-1.83,1.876l3.011-3.058l9.956-9.981c-0.984,0.997-1.896,1.925-2.69,2.745l19.285-19.293l-2.701-2.696l-6.297,6.309
											l-26.676,26.594c4.795-4.733,9.781-9.691,14.861-14.753l-15.354,15.375l-25.217-25.26
											c2.464,2.388,5.823,5.694,7.391,7.165c-0.07-0.119-4.397-4.463-1.86-1.954c4.627,4.56,8.572,8.502,11.847,11.756
											c1.638,1.627,3.106,3.082,4.41,4.357l1.83,1.774l0.821,0.784l0.388,0.365l0.241,0.217
											c0.055,0.046,0.005-0.016-0.106-0.142l-0.045-0.05l-0.075-0.082l-0.214-0.226l-0.535-0.561l-2.909-3.025
											c-2.031-2.111-3.734-3.893-2.056-2.24l6.091,6.051l6.16-6.186l4.828-4.816c0.21-0.204,0.551-0.561,0.981-1.008
											l14.433-14.431l3.406-3.388c0.599-0.584,1.113-1.079,1.519-1.46c0.61-0.625,0.932-0.958,2.137-2.172l0.748,0.742
											l2.95,2.959l-7.028,7.007l-4.958,4.889c0.042-0.025,0.317-0.278,0.013,0.043l-11.081,11.063
											c-1.505,1.483-2.894,2.84-4.132,4.034c-0.785,0.814-1.784,1.833-2.931,2.994l-3.412,3.435l12.412,12.42l-0.007-0.012
											l9.755,9.762l1.517,1.568l2.092,2.053l7.225,7.309l0.372,0.364l-1.132,1.165c-0.301,0.312-0.638,0.658-0.997,1.018
											l-1.405,1.404l-4.374-4.373l-5.769-5.787l-19.345-19.449c-0.194-0.214-0.231-0.275-0.271-0.34
											c-1.009-0.978-2.388-2.381-3.287-3.263c0.174,0.165,0.286,0.269,0.266,0.235l-0.684-0.674l-1.078,1.08l-1.131,1.116
											l-2.652,2.616l-1.715,1.746l-0.871,0.865c-3.028,2.92-5.971,5.898-9.285,9.211l-9.962,9.878
											C45.794,229.398,44.757,230.365,42.921,232.156z"/>
										<path fill="#D22F2F" d="M84.021,202.212l9.212,9.287C89.923,208.186,86.944,205.242,84.021,202.212z"/>
										<path fill="#D22F2F" d="M66.775,184.797c-1.196-1.241-2.556-2.633-4.035-4.134l12.379,12.388l10.304-10.299l0.013-0.006
											l-10.316,10.308l-4.502-4.487C69.104,187.066,67.783,185.768,66.775,184.797z"/>
										<polygon fill="#D22F2F" points="81.064,194.537 80.636,194.981 80.607,195.01 										"/>
										<polygon fill="#D22F2F" points="51.235,170.177 50.475,169.416 56.283,175.197 										"/>
										<polygon fill="#D22F2F" points="47.183,171.806 59.024,183.623 72.187,196.875 70.697,198.344 72.171,196.875 										
											"/>
										<path fill="#D22F2F" d="M51.63,169.592l-4.889-4.958l4.933,4.944C51.355,169.277,51.606,169.55,51.63,169.592z"/>
										<polygon fill="#D22F2F" points="67.451,186.34 66.269,185.158 69.325,188.168 										"/>
										<path fill="#D22F2F" d="M43.502,169.167l-3.615-3.631l2.16,2.118C42.425,168.055,42.923,168.572,43.502,169.167z"/>
										<path fill="#D22F2F" d="M62.334,187.992l4.812,4.823l-5.824-5.809C61.771,187.439,62.128,187.781,62.334,187.992z"/>
									</g>
								</g>
							</g>
						</g>
						<g>
							<g>
								<g>
									<g>
										<path fill="#D22F2F" d="M55.206,168.181l12.146,12.102l-4.554-4.538c2.275,2.268,4.185,4.194,6.48,6.53
											c-0.722-0.673-2.2-2.191-2.598-2.522c-5.548-5.545-11.071-11.151-16.438-16.59
											C52.463,165.232,53.688,166.667,55.206,168.181z"/>
										<path fill="#D22F2F" d="M75.391,188.46l-1.639-1.635C74.326,187.393,74.891,187.952,75.391,188.46z"/>
										<path fill="#D22F2F" d="M70.373,179.214l1.899,1.881C71.644,180.482,71.008,179.847,70.373,179.214z"/>
										<polygon fill="#D22F2F" points="47.748,161.084 46.725,160.089 44.556,157.903 46.685,155.792 49.589,158.722 
											46.685,155.82 44.607,157.903 46.117,159.422 										"/>
										<path fill="#D22F2F" d="M50.438,163.913c2.603,2.597,5.229,5.249,7.663,7.75C55.66,169.169,53.073,166.561,50.438,163.913
											z"/>
										<path fill="#D22F2F" d="M89.454,168.85c-0.018,0.004,0.027-0.05,0.097-0.128c0.076-0.079,0.144-0.151,0.197-0.213
											l3.172-3.119c-0.257,0.264-0.486,0.517-0.751,0.783C91.001,167.321,90.729,167.534,89.454,168.85z"/>
										<polygon fill="#D22F2F" points="69.663,178.508 69.593,178.445 68.941,177.804 68.866,177.724 										"/>
										<path fill="#D22F2F" d="M88.114,170.183c-0.033,0.009-0.067,0.019-0.168,0.1l1.789-1.761l-0.185,0.201
											C89.166,169.125,88.538,169.728,88.114,170.183z"/>
										<path fill="#D22F2F" d="M75.104,182.97c-0.016-0.015-0.031-0.027-0.048-0.039l-0.026-0.017l-0.013-0.009l-0.004-0.002
											l-0.016-0.014l-0.03-0.028l-0.389-0.353l-3.076-3.16c-0.185-0.173-0.564-0.551-0.935-0.896l-0.657-0.708l5.209,5.23
											l0.082-0.08l0.489-0.486l1.066-1.059l-1.043,1.045l-0.596,0.593L75.104,182.97z"/>
										<path fill="#D22F2F" d="M75.753,188.365c3.372-3.408,7.353-7.259,10.591-10.629c-3.915,3.834-9.278,9.167-9.956,9.632
											c-0.679,0.465,5.294-5.313,8.321-8.351l-0.824,0.779c0.412-0.389,0.824-0.779,1.169-1.148
											c-0.824,0.778-2.402,2.315-2.882,2.724l0.689-0.739c-2.124,1.964-5.974,5.779-8.099,7.743
											c4.402-4.18,9.461-9.152,14.761-14.429l8.078-8.083l7.912-7.958l-1.962-1.947l-2.511,2.523
											c-6.741,6.812-12.936,13.198-18.721,19.196c-1.101,1.127-3.782,3.795-5.706,5.702l-1.495,1.506l-5.059-5.002l-4.576-4.487
											c-3.224-3.18-6.381-6.337-9.571-9.538l-9.229-9.261l-1.299,1.304l-0.004,0.003c0.009,0.009,0.016,0.019,0.024,0.033
											l0.515,0.539c0.325,0.344,0.583,0.629,0.688,0.762c0.105,0.134,0.058,0.117-0.23-0.144
											c-0.145-0.13-0.349-0.322-0.623-0.585l-0.467-0.451l-0.167-0.153l0.057-0.061l0.072-0.079l0.207-0.213l0.538-0.55
											l0.52-0.53l0.169-0.178l0.146,0.138l0.366,0.36l0.904,0.892l1.808,1.791l3.617,3.603
											c-0.397-0.332-1.875-1.848-2.598-2.521c2.298,2.337,4.204,4.26,6.481,6.53l-4.555-4.538L65,174.649
											c1.521,1.515,2.742,2.948,4.963,5.018c-5.365-5.438-10.891-11.045-16.438-16.59l0.03,0.026l-6.822-6.819l0.837,0.824
											l1.042,1.044l-1.928-1.959l-1.734,1.711l5.316,5.343l-5.436-5.343l1.854-1.874l21.978,21.934
											c-2.703-2.813-6.442-6.396-8.777-8.866l13.598,13.644l-1.025-0.997l1.195,1.22l1.467,1.479l6.586-6.592l0.771-0.764
											l-0.771,0.764l-6.586,6.536l-1.637-1.647l1.637,1.618l2.685-2.679l-1.153,1.11l-1.531,1.501l-0.811-0.822l-4.54-4.553
											l2.644,2.626l2.707,2.669l1.66-1.695l-1.66,1.642l-8.12-8.175l5.24,5.215l2.88,2.901l6.127-6.091l-0.339,0.343l0.678-0.68
											l3.516-3.505c1.055-1.058,2.076-2.107,3.088-3.152l0.521-0.523c-0.319,0.34-0.469,0.511,0.173-0.12
											c2.748-2.686,5.641-5.685,8.8-8.759c0.829-0.806,1.925-1.915,3.106-3.113c0.331-0.315,0.496-0.49,0.64-0.65l0.771-0.781
											l1.354-1.364l0.365,0.356l-0.365-0.363l-1.354,1.371l-0.707,0.71c0.152-0.17,0.312-0.352,0.662-0.702L88.71,170.492
											l0.796-0.841l-1.317,1.364l-4.394,4.418c0.432-0.444,0.829-0.859,1.174-1.229l-9.849,9.863l-2.881-2.868l-11.729-11.812
											c2.07,2.132,4.256,4.347,6.488,6.597c-5.97-5.942-11.944-11.902-17.856-17.876c1.11,1.034,2.609,2.48,3.33,3.103
											c-0.019-0.066-1.926-1.991-0.797-0.89c4.128,3.994,6.979,6.965,8.772,8.489c0.35,0.276-4.075-4.406-2.576-2.96
											l5.836,5.772l2.125,2.137c0.089,0.094,0.251,0.241,0.454,0.426c2.578,2.566,5.028,5.016,6.377,6.38l1.493,1.51
											c0.254,0.269,0.467,0.501,0.629,0.688l0.19,0.18l0.051,0.041l0.093,0.077l0.041-0.048l3.68-3.648l2.211-2.142
											c-0.023,0.007-0.151,0.112-0.021-0.035l4.902-4.885c0.672-0.649,1.294-1.241,1.854-1.756
											c1.69-1.84,5.812-5.868,8.631-8.71l-0.006,0.001l4.316-4.31l0.708-0.656c0.347-0.372,0.724-0.75,0.896-0.935l1.22-1.204
											l0.979,0.995l0.569,0.585l1.394,1.43l0.17,0.162l-0.544,0.577l-0.582,0.603l-2.213,2.213l-2.563,2.544l-8.627,8.521
											c-0.1,0.081-0.134,0.09-0.169,0.102c-0.424,0.454-1.051,1.057-1.436,1.459c0.07-0.079,0.113-0.131,0.096-0.126
											c-1.273,1.313-1.545,1.526-2.716,2.677c-0.262,0.263-0.494,0.52-0.748,0.781l-0.388,0.38
											c-1.368,1.261-2.659,2.587-4.125,4.05l-4.426,4.343C77.056,187.177,76.577,187.585,75.753,188.365z"/>
										<path fill="#D22F2F" d="M93.306,165.012l4.125-4.051C95.966,162.423,94.675,163.75,93.306,165.012z"/>
										<path fill="#D22F2F" d="M56.895,164.804c-0.516-0.561-1.108-1.185-1.756-1.855l10.464,10.479l0.002,0.007
											C62.764,170.616,58.735,166.495,56.895,164.804z"/>
										<path fill="#D22F2F" d="M89.551,168.722l0.186-0.201l0.013-0.013C89.694,168.571,89.627,168.643,89.551,168.722z"/>
										<path fill="#D22F2F" d="M49.769,158.6l-0.335-0.337l2.574,2.547C51.316,160.137,50.553,159.38,49.769,158.6z"/>
										<path fill="#D22F2F" d="M47.966,161.63l5.241,5.216c2.232,2.25,4.419,4.465,6.488,6.597L47.966,161.63z"/>
										<path fill="#D22F2F" d="M50.218,158.067l-2.142-2.21l2.176,2.189C50.107,157.917,50.212,158.044,50.218,158.067z"/>
										<polygon fill="#D22F2F" points="56.951,165.728 56.429,165.206 57.793,166.523 										"/>
										<path fill="#D22F2F" d="M46.049,160.754l-1.593-1.61l0.966,0.924C45.582,160.253,45.797,160.487,46.049,160.754z"/>
										<path fill="#D22F2F" d="M54.374,169.072l2.123,2.135l-2.578-2.563C54.123,168.831,54.284,168.978,54.374,169.072z"/>
									</g>
								</g>
							</g>
						</g>
						<g>
							<g>
								<g>
									<g>
										<path fill="#D22F2F" d="M58.145,162.349l10.385,10.341l-3.894-3.877c1.945,1.938,3.576,3.585,5.536,5.585
											c-0.621-0.572-1.882-1.872-2.227-2.15c-4.742-4.74-9.458-9.537-14.039-14.191
											C55.814,159.814,56.847,161.056,58.145,162.349z"/>
										<path fill="#D22F2F" d="M75.391,179.69l-1.401-1.397C74.481,178.777,74.964,179.255,75.391,179.69z"/>
										<path fill="#D22F2F" d="M71.488,172.222l1.625,1.606C72.575,173.306,72.032,172.763,71.488,172.222z"/>
										<polygon fill="#D22F2F" points="51.744,156.31 50.867,155.461 49.245,153.825 51.046,152.042 53.702,154.727 
											51.046,152.073 49.299,153.825 50.457,154.994 										"/>
										<path fill="#D22F2F" d="M54.032,158.737c2.226,2.219,4.469,4.488,6.544,6.63
											C58.493,163.233,56.284,161.001,54.032,158.737z"/>
										<path fill="#D22F2F" d="M87.744,162.518c-0.016,0.002,0.021-0.044,0.081-0.112c0.064-0.068,0.121-0.13,0.167-0.184
											l2.715-2.662c-0.219,0.226-0.413,0.444-0.64,0.671C89.068,161.212,88.831,161.39,87.744,162.518z"/>
										<polygon fill="#D22F2F" points="70.882,171.619 70.821,171.566 70.264,171.018 70.199,170.95 										"/>
										<path fill="#D22F2F" d="M86.599,163.656c-0.03,0.006-0.061,0.012-0.148,0.081l1.531-1.504l-0.156,0.173
											C87.497,162.751,86.958,163.266,86.599,163.656z"/>
										<path fill="#D22F2F" d="M75.203,174.859c-0.018,0.019-0.034,0.041-0.051,0.066c-0.033-0.017-0.073-0.033-0.1-0.051
											l-0.016-0.019l-0.008-0.009l-0.034-0.036l-0.154-0.161l-0.311-0.322l-0.633-0.657l-1.371-1.408
											c-0.159-0.146-0.484-0.47-0.802-0.763l-0.558-0.609l3.985,4.004l0.085-0.081l0.528-0.525l1.112-1.104L75.203,174.859z"/>
										<path fill="#D22F2F" d="M75.681,179.667c2.88-2.916,6.291-6.197,9.05-9.087c-3.354,3.271-7.938,7.828-8.534,8.209
											s4.524-4.542,7.11-7.141l-0.707,0.663c0.354-0.331,0.707-0.663,1-0.98c-0.707,0.662-2.06,1.972-2.475,2.317l0.585-0.636
											c-1.826,1.667-5.119,4.925-6.947,6.593c3.809-3.585,8.177-7.867,12.746-12.415l6.961-6.967l6.778-6.825l-1.596-1.582
											l-1.916,1.926c-5.756,5.829-11.037,11.3-15.967,16.442c-0.938,0.966-3.231,3.245-4.877,4.873l-1.74,1.757l-4.2-4.145
											l-3.719-3.635c-2.791-2.746-5.52-5.475-8.277-8.244l-7.91-7.942l-0.959,0.962c-0.004,0.004-0.009,0.009-0.016,0.014
											c0.006,0.007,0.01,0.017,0.015,0.028l0.004,0.009l0.001,0.002l0.024,0.026l0.05,0.053l0.188,0.201
											c0.237,0.257,0.417,0.462,0.483,0.554s0.018,0.072-0.202-0.123c-0.11-0.098-0.264-0.239-0.467-0.431l-0.161-0.154
											l-0.021-0.021l-0.006-0.005l-0.013-0.01l-0.025-0.022l-0.122-0.108l0.103-0.112l0.027-0.03L50,153.63l0.204-0.21
											l0.411-0.421l0.205-0.21l0.066-0.068l0.03-0.033l0.128-0.137l0.127,0.119l0.277,0.271l0.799,0.785l1.597,1.578
											l3.192,3.177c-0.345-0.279-1.604-1.578-2.226-2.149c1.96,2,3.589,3.646,5.536,5.584l-3.895-3.878l10.385,10.341
											c1.3,1.294,2.329,2.535,4.238,4.292c-4.581-4.653-9.298-9.451-14.039-14.191l0.026,0.021l-5.903-5.9l0.787,0.775
											l0.891,0.893l-1.792-1.828l-1.405,1.383l4.281,4.308l-4.396-4.308l1.521-1.542l4.566,4.547l4.848,4.849
											c3.226,3.229,6.428,6.432,9.533,9.507c-2.303-2.412-5.51-5.463-7.496-7.584l11.619,11.666l-0.879-0.85
											c0.57,0.588,0.997,1.024,1.915,1.948l6.06-6.063l0.659-0.652l-0.659,0.652l-6.06,6.007l-1.036-1.042l1.036,1.021
											l1.398-1.405l1.321-1.312c-0.335,0.313-0.735,0.699-1.171,1.122l-1.549,1.517l-0.2-0.204l-4.002-4.015l2.054,2.039
											l2.148,2.115l1.83-1.873l-1.83,1.807l-6.559-6.608l4.481,4.456l2.077,2.094l5.645-5.606l-0.289,0.294l0.579-0.582
											l3.006-2.995c0.901-0.904,1.772-1.803,2.635-2.699l0.445-0.447c-0.271,0.292-0.397,0.439,0.152-0.099
											c2.353-2.291,4.818-4.862,7.524-7.484c0.71-0.688,1.646-1.636,2.654-2.661c0.284-0.269,0.424-0.418,0.546-0.556
											l0.657-0.668l0.945-0.953l0.479,0.466l-0.479-0.474l-0.945,0.96l-0.604,0.607c0.129-0.147,0.265-0.303,0.563-0.603
											l-11.494,11.465l0.678-0.722l-1.123,1.169l-3.754,3.778c0.368-0.38,0.707-0.736,1-1.054l-8.821,8.836l-2.077-2.066
											l-10.02-10.103c1.766,1.828,3.632,3.723,5.539,5.646c-5.104-5.077-10.213-10.17-15.262-15.281
											c0.955,0.878,2.24,2.111,2.863,2.636c-0.012-0.06-1.642-1.706-0.675-0.767c3.538,3.403,5.968,5.953,7.52,7.235
											c0.304,0.231-3.46-3.79-2.175-2.558l4.993,4.929l1.815,1.828c0.076,0.081,0.215,0.205,0.39,0.362
											c2.204,2.193,4.299,4.286,5.451,5.454l1.274,1.292l0.155,0.167l0.072,0.079c0.012,0.014,0.011,0.016,0.017,0.024
											l0.052,0.084l0.066,0.05l0.124-0.15l3.389-3.358l1.896-1.826c-0.021,0.004-0.133,0.093-0.022-0.034l4.191-4.174
											c0.575-0.553,1.109-1.056,1.592-1.493c1.434-1.584,4.963-5.02,7.372-7.451l-0.006,0l3.69-3.683l0.608-0.557l0.437-0.461
											l0.373-0.388l0.856-0.845l0.89,0.904l0.53,0.547l1.324,1.361l-0.214,0.208c-0.209,0.222-0.765,0.826-1.007,1.071
											l-1.892,1.892l-2.192,2.173l-7.381,7.275c-0.087,0.067-0.117,0.074-0.149,0.082c-0.359,0.391-0.897,0.904-1.226,1.249
											c0.061-0.068,0.097-0.113,0.08-0.109c-1.086,1.125-1.322,1.303-2.324,2.285c-0.223,0.224-0.421,0.445-0.638,0.669
											l-0.331,0.325c-1.178,1.07-2.278,2.206-3.531,3.457l-3.79,3.706C76.802,178.661,76.389,179.004,75.681,179.667z"/>
										<path fill="#D22F2F" d="M91.037,159.238l3.532-3.457C93.315,157.03,92.216,158.167,91.037,159.238z"/>
										<path fill="#D22F2F" d="M60.036,159.837c-0.438-0.483-0.941-1.019-1.494-1.593l8.943,8.958l0.001,0.006
											C65.057,164.801,61.62,161.271,60.036,159.837z"/>
										<path fill="#D22F2F" d="M87.825,162.406l0.156-0.173l0.011-0.011C87.946,162.275,87.89,162.338,87.825,162.406z"/>
										<path fill="#D22F2F" d="M53.879,154.601l-0.287-0.288l2.203,2.175C55.202,155.914,54.549,155.268,53.879,154.601z"/>
										<path fill="#D22F2F" d="M51.906,156.8l4.481,4.456c1.906,1.925,3.773,3.82,5.538,5.646L51.906,156.8z"/>
										<path fill="#D22F2F" d="M54.333,154.074l-1.825-1.895l1.859,1.872C54.241,153.943,54.329,154.053,54.333,154.074z"/>
										<polygon fill="#D22F2F" points="60.021,160.69 59.574,160.244 60.744,161.366 										"/>
										<path fill="#D22F2F" d="M50.191,156.127l-1.537-1.553l0.383,0.375l0.207,0.197l0.416,0.391
											C49.795,155.696,49.978,155.898,50.191,156.127z"/>
										<path fill="#D22F2F" d="M57.309,163.237l1.813,1.826l-2.205-2.19C57.093,163.031,57.232,163.155,57.309,163.237z"/>
									</g>
								</g>
							</g>
						</g>
						<g>
							<g>
								<g>
									<g>
										<path fill="#D22F2F" d="M46.734,216.598l12.103-12.145l-4.537,4.553c2.268-2.275,4.193-4.184,6.529-6.48
											c-0.673,0.723-2.19,2.201-2.521,2.598c-5.546,5.548-11.151,11.072-16.591,16.438
											C43.786,219.342,45.222,218.117,46.734,216.598z"/>
										<path fill="#D22F2F" d="M67.015,196.414l-1.636,1.639C65.947,197.478,66.507,196.913,67.015,196.414z"/>
										<path fill="#D22F2F" d="M57.768,201.432l1.881-1.899C59.036,200.16,58.401,200.796,57.768,201.432z"/>
										<polygon fill="#D22F2F" points="39.639,224.056 38.644,225.079 36.458,227.249 34.346,225.119 37.275,222.216 
											34.373,225.119 36.458,227.197 37.977,225.688 										"/>
										<path fill="#D22F2F" d="M42.467,221.367c2.597-2.604,5.249-5.23,7.749-7.664C47.723,216.145,45.114,218.73,42.467,221.367
											z"/>
										<path fill="#D22F2F" d="M47.404,182.351c0.004,0.017-0.05-0.028-0.128-0.097c-0.079-0.076-0.151-0.143-0.214-0.197
											l-3.118-3.172c0.264,0.257,0.518,0.486,0.783,0.751C45.875,180.803,46.088,181.076,47.404,182.351z"/>
										<polygon fill="#D22F2F" points="57.062,202.143 56.999,202.212 56.358,202.863 56.278,202.938 										"/>
										<path fill="#D22F2F" d="M48.736,183.69c0.009,0.033,0.019,0.067,0.101,0.167l-1.762-1.789l0.201,0.185
											C47.679,182.639,48.282,183.267,48.736,183.69z"/>
										<path fill="#D22F2F" d="M61.524,196.701c-0.016,0.016-0.027,0.031-0.039,0.049l-0.018,0.025l-0.009,0.013l-0.002,0.004
											l-0.015,0.015l-0.027,0.031l-0.353,0.388l-3.161,3.075c-0.172,0.186-0.551,0.565-0.896,0.936l-0.709,0.656l5.231-5.208
											l-0.08-0.082l-0.486-0.489l-1.06-1.066l1.046,1.043l0.593,0.596L61.524,196.701z"/>
										<path fill="#D22F2F" d="M66.919,196.051c-3.408-3.372-7.259-7.353-10.629-10.591c3.834,3.916,9.167,9.279,9.632,9.957
											c0.466,0.68-5.312-5.294-8.351-8.321l0.778,0.824c-0.389-0.412-0.778-0.824-1.148-1.168
											c0.779,0.823,2.314,2.402,2.725,2.881l-0.74-0.689c1.964,2.124,5.779,5.973,7.743,8.098
											c-4.18-4.402-9.152-9.461-14.429-14.76l-8.083-8.078l-7.957-7.912l-1.948,1.961l2.522,2.511
											c6.813,6.741,13.198,12.936,19.196,18.721c1.128,1.1,3.796,3.782,5.702,5.705l1.506,1.496l-5.002,5.059l-4.488,4.576
											c-3.18,3.223-6.337,6.381-9.537,9.57l-9.261,9.229l1.304,1.299l0.004,0.004c0.01-0.01,0.02-0.016,0.032-0.023l0.539-0.516
											c0.344-0.324,0.629-0.582,0.762-0.688c0.134-0.105,0.117-0.058-0.144,0.23c-0.131,0.144-0.322,0.348-0.586,0.623
											l-0.45,0.467l-0.153,0.167l-0.061-0.058l-0.079-0.072l-0.213-0.207l-0.55-0.537l-0.53-0.521l-0.178-0.169l0.138-0.145
											l0.359-0.367l0.893-0.904l1.79-1.807l3.603-3.617c-0.331,0.397-1.848,1.875-2.521,2.598
											c2.337-2.297,4.26-4.203,6.529-6.481l-4.538,4.555l12.103-12.146c1.515-1.521,2.948-2.743,5.018-4.964
											c-5.438,5.366-11.045,10.892-16.591,16.438l0.026-0.031l-6.819,6.822l0.824-0.836l1.045-1.042l-1.96,1.927l1.712,1.734
											l5.343-5.316l-5.343,5.436l-1.875-1.854l21.935-21.977c-2.813,2.703-6.396,6.441-8.866,8.777l13.645-13.598l-0.997,1.025
											l1.22-1.195l1.479-1.467l-6.592-6.586l-0.764-0.771l0.764,0.771l6.536,6.586l-1.646,1.637l1.617-1.637L60.234,194
											l1.11,1.154l1.502,1.531l-0.822,0.811l-4.553,4.54l2.625-2.644l2.669-2.707l-1.694-1.66l1.642,1.66l-8.176,8.121
											l5.215-5.24l2.901-2.881l-6.091-6.127l0.343,0.339l-0.68-0.677l-3.505-3.517c-1.058-1.054-2.106-2.076-3.152-3.088
											l-0.523-0.521c0.341,0.319,0.511,0.469-0.12-0.173c-2.686-2.748-5.685-5.641-8.759-8.8
											c-0.807-0.829-1.915-1.925-3.113-3.106c-0.315-0.331-0.49-0.496-0.649-0.64l-0.781-0.77l-1.364-1.354l0.356-0.365
											l-0.362,0.365l1.37,1.354l0.711,0.706c-0.171-0.152-0.352-0.312-0.702-0.662l13.414,13.444l-0.841-0.796l1.364,1.317
											l4.418,4.394c-0.444-0.432-0.859-0.83-1.229-1.174l9.862,9.849l-2.868,2.882L47.94,211.295
											c2.133-2.071,4.348-4.258,6.597-6.488c-5.942,5.969-11.901,11.943-17.876,17.855c1.034-1.11,2.48-2.609,3.104-3.33
											c-0.066,0.018-1.991,1.926-0.89,0.797c3.993-4.128,6.965-6.98,8.488-8.773c0.276-0.349-4.406,4.076-2.96,2.577
											l5.771-5.837l2.138-2.125c0.094-0.088,0.241-0.25,0.427-0.453c2.566-2.578,5.016-5.029,6.38-6.377l1.51-1.493
											c0.269-0.254,0.502-0.468,0.688-0.629l0.181-0.19l0.041-0.051l0.076-0.093l-0.048-0.042l-3.648-3.68l-2.141-2.21
											c0.006,0.023,0.111,0.151-0.035,0.021l-4.885-4.902c-0.649-0.671-1.241-1.294-1.756-1.854
											c-1.841-1.69-5.868-5.812-8.71-8.632l0.001,0.007l-4.31-4.317l-0.656-0.708c-0.371-0.346-0.75-0.723-0.935-0.896
											l-1.204-1.22l0.995-0.979l0.585-0.568l1.43-1.393l0.162-0.171l0.577,0.543l0.603,0.583l2.213,2.213l2.544,2.563
											l8.521,8.626c0.081,0.1,0.091,0.134,0.102,0.168c0.455,0.424,1.058,1.051,1.46,1.436
											c-0.079-0.071-0.132-0.114-0.126-0.095c1.313,1.273,1.526,1.544,2.677,2.715c0.263,0.262,0.52,0.495,0.78,0.749
											l0.381,0.387c1.26,1.368,2.587,2.659,4.05,4.125l4.343,4.426C65.731,194.748,66.14,195.227,66.919,196.051z"/>
										<path fill="#D22F2F" d="M43.565,178.5l-4.051-4.125C40.978,175.839,42.304,177.13,43.565,178.5z"/>
										<path fill="#D22F2F" d="M43.357,214.91c-0.561,0.516-1.185,1.107-1.854,1.756l10.479-10.465l0.007-0.001
											C49.17,209.041,45.049,213.069,43.357,214.91z"/>
										<path fill="#D22F2F" d="M47.276,182.253l-0.201-0.185l-0.013-0.013C47.125,182.11,47.197,182.177,47.276,182.253z"/>
										<path fill="#D22F2F" d="M37.153,222.035l-0.337,0.336l2.547-2.574C38.69,220.488,37.934,221.252,37.153,222.035z"/>
										<path fill="#D22F2F" d="M40.185,223.838l5.215-5.24c2.251-2.232,4.466-4.42,6.598-6.489L40.185,223.838z"/>
										<path fill="#D22F2F" d="M36.621,221.587l-2.211,2.142l2.188-2.177C36.471,221.697,36.598,221.593,36.621,221.587z"/>
										<polygon fill="#D22F2F" points="44.282,214.853 43.76,215.376 45.077,214.012 										"/>
										<path fill="#D22F2F" d="M39.308,225.756l-1.609,1.594l0.924-0.967C38.808,226.223,39.041,226.008,39.308,225.756z"/>
										<path fill="#D22F2F" d="M47.626,217.43l2.136-2.123l-2.563,2.578C47.386,217.682,47.531,217.52,47.626,217.43z"/>
									</g>
								</g>
							</g>
						</g>
						<g>
							<g>
								<g>
									<g>
										<path fill="#D22F2F" d="M40.903,213.659l10.342-10.384l-3.878,3.893c1.938-1.945,3.585-3.575,5.585-5.535
											c-0.572,0.621-1.872,1.882-2.15,2.227c-4.74,4.741-9.537,9.457-14.191,14.039C38.368,215.99,39.61,214.957,40.903,213.659
											z"/>
										<path fill="#D22F2F" d="M58.244,196.414l-1.397,1.401C57.332,197.324,57.81,196.84,58.244,196.414z"/>
										<path fill="#D22F2F" d="M50.776,200.315l1.606-1.626C51.859,199.229,51.317,199.771,50.776,200.315z"/>
										<polygon fill="#D22F2F" points="34.863,220.061 34.016,220.938 32.379,222.56 30.597,220.759 33.281,218.102 
											30.627,220.759 32.379,222.506 33.548,221.348 										"/>
										<path fill="#D22F2F" d="M37.291,217.771c2.219-2.225,4.488-4.468,6.631-6.543
											C41.787,213.311,39.556,215.52,37.291,217.771z"/>
										<path fill="#D22F2F" d="M41.07,184.06c0.003,0.016-0.044-0.022-0.111-0.081c-0.067-0.065-0.13-0.122-0.184-0.167
											l-2.661-2.715c0.226,0.219,0.444,0.413,0.671,0.64C39.766,182.736,39.943,182.973,41.07,184.06z"/>
										<polygon fill="#D22F2F" points="50.174,200.922 50.12,200.982 49.572,201.541 49.504,201.604 										"/>
										<path fill="#D22F2F" d="M42.209,185.206c0.007,0.03,0.013,0.061,0.081,0.148l-1.504-1.532l0.173,0.157
											C41.304,184.307,41.818,184.846,42.209,185.206z"/>
										<path fill="#D22F2F" d="M53.413,196.601c0.019,0.019,0.041,0.034,0.066,0.052c-0.017,0.033-0.033,0.072-0.051,0.1
											l-0.019,0.016l-0.009,0.008l-0.036,0.033l-0.16,0.154l-0.321,0.311l-0.656,0.633l-1.409,1.371
											c-0.146,0.16-0.47,0.484-0.763,0.803l-0.609,0.557l4.004-3.984l-0.081-0.084l-0.525-0.529l-1.104-1.111L53.413,196.601z"
											/>
										<path fill="#D22F2F" d="M58.222,196.124c-2.916-2.88-6.198-6.292-9.088-9.05c3.271,3.354,7.828,7.939,8.21,8.533
											c0.382,0.597-4.543-4.523-7.141-7.11l0.662,0.708c-0.33-0.354-0.662-0.708-0.979-1c0.662,0.708,1.972,2.06,2.316,2.475
											l-0.636-0.585c1.667,1.827,4.925,5.12,6.593,6.946c-3.585-3.807-7.867-8.175-12.414-12.745l-6.968-6.961l-6.824-6.779
											l-1.583,1.596l1.926,1.915c5.829,5.757,11.3,11.038,16.442,15.968c0.966,0.938,3.245,3.231,4.873,4.877l1.757,1.74
											l-4.145,4.199l-3.634,3.72c-2.746,2.79-5.476,5.519-8.245,8.276l-7.942,7.91l0.963,0.959
											c0.004,0.004,0.009,0.01,0.014,0.016c0.008-0.006,0.017-0.01,0.028-0.014l0.009-0.004l0.003-0.002l0.025-0.023
											l0.053-0.051l0.201-0.188c0.257-0.236,0.462-0.417,0.555-0.483c0.093-0.065,0.071-0.018-0.123,0.202
											c-0.098,0.111-0.238,0.264-0.431,0.467l-0.154,0.162l-0.021,0.021l-0.005,0.006l-0.01,0.013l-0.022,0.025l-0.108,0.121
											l-0.112-0.102l-0.03-0.027l-0.054-0.051l-0.21-0.206l-0.421-0.41l-0.21-0.206l-0.068-0.065l-0.033-0.03l-0.137-0.129
											l0.119-0.127l0.271-0.277l0.785-0.797l1.578-1.598l3.178-3.192c-0.279,0.345-1.578,1.604-2.15,2.226
											c2.001-1.961,3.646-3.588,5.585-5.535l-3.878,3.894l10.342-10.385c1.294-1.3,2.534-2.329,4.292-4.239
											c-4.653,4.582-9.451,9.299-14.19,14.04l0.021-0.026l-5.9,5.904l0.775-0.789l0.893-0.891l-1.828,1.793l1.383,1.406
											l4.308-4.283l-4.308,4.397l-1.541-1.521l4.548-4.566l4.849-4.848c3.229-3.227,6.433-6.428,9.507-9.533
											c-2.412,2.303-5.463,5.51-7.584,7.496l11.665-11.619l-0.85,0.878c0.587-0.569,1.023-0.997,1.947-1.914l-6.062-6.06
											l-0.652-0.66l0.652,0.66l6.007,6.06l-1.041,1.036l1.02-1.036l-1.405-1.399l-1.312-1.32
											c0.313,0.334,0.699,0.735,1.122,1.171l1.518,1.549l-0.203,0.2l-4.016,4.002l2.039-2.054l2.115-2.147l-1.874-1.83
											l1.808,1.83l-6.607,6.559l4.456-4.482l2.094-2.076l-5.607-5.646l0.294,0.29l-0.582-0.58l-2.995-3.006
											c-0.904-0.9-1.803-1.771-2.699-2.634l-0.446-0.445c0.292,0.271,0.439,0.397-0.1-0.152
											c-2.291-2.353-4.862-4.818-7.483-7.524c-0.688-0.709-1.636-1.646-2.661-2.654c-0.269-0.284-0.419-0.424-0.557-0.546
											l-0.668-0.657l-0.952-0.945l0.467-0.479l-0.474,0.479l0.959,0.945l0.607,0.603c-0.146-0.129-0.303-0.264-0.604-0.563
											l11.465,11.494l-0.723-0.677l1.17,1.123l3.777,3.754c-0.38-0.368-0.736-0.708-1.054-1l8.837,8.822l-2.065,2.076
											l-10.103,10.02c1.827-1.766,3.723-3.632,5.646-5.538c-5.077,5.104-10.17,10.212-15.281,15.261
											c0.879-0.955,2.111-2.24,2.636-2.863c-0.06,0.012-1.706,1.641-0.767,0.674c3.403-3.537,5.952-5.967,7.234-7.518
											c0.231-0.305-3.79,3.459-2.558,2.174l4.929-4.993l1.828-1.815c0.081-0.076,0.204-0.215,0.362-0.39
											c2.192-2.204,4.286-4.299,5.453-5.45l1.292-1.275l0.168-0.154l0.079-0.072c0.013-0.012,0.015-0.011,0.023-0.017
											l0.084-0.052l0.05-0.065l-0.149-0.124l-3.358-3.391l-1.826-1.895c0.005,0.021,0.093,0.133-0.033,0.023l-4.175-4.192
											c-0.553-0.575-1.056-1.11-1.493-1.592c-1.584-1.434-5.02-4.963-7.45-7.372v0.006l-3.683-3.69l-0.557-0.609l-0.462-0.437
											l-0.388-0.374l-0.844-0.855l0.904-0.89l0.547-0.53l1.361-1.324l0.208,0.213c0.223,0.209,0.826,0.765,1.07,1.008
											l1.892,1.891l2.174,2.192l7.275,7.381c0.067,0.087,0.074,0.117,0.082,0.149c0.391,0.36,0.903,0.897,1.249,1.226
											c-0.068-0.06-0.114-0.096-0.11-0.079c1.126,1.085,1.304,1.322,2.285,2.323c0.225,0.224,0.446,0.421,0.67,0.638
											l0.325,0.331c1.069,1.178,2.206,2.278,3.456,3.531l3.706,3.79C57.215,195.002,57.559,195.416,58.222,196.124z"/>
										<path fill="#D22F2F" d="M37.791,180.767l-3.457-3.532C35.584,178.488,36.721,179.588,37.791,180.767z"/>
										<path fill="#D22F2F" d="M38.392,211.768c-0.482,0.438-1.019,0.941-1.593,1.494l8.958-8.943h0.006
											C43.355,206.748,39.825,210.184,38.392,211.768z"/>
										<path fill="#D22F2F" d="M40.959,183.979l-0.173-0.157l-0.011-0.011C40.829,183.857,40.892,183.914,40.959,183.979z"/>
										<path fill="#D22F2F" d="M33.155,217.926l-0.288,0.287l2.176-2.203C34.469,216.602,33.822,217.256,33.155,217.926z"/>
										<path fill="#D22F2F" d="M35.354,219.898l4.456-4.482c1.924-1.906,3.82-3.773,5.646-5.537L35.354,219.898z"/>
										<path fill="#D22F2F" d="M32.629,217.471l-1.895,1.826l1.872-1.86C32.497,217.562,32.607,217.475,32.629,217.471z"/>
										<polygon fill="#D22F2F" points="39.244,211.782 38.798,212.229 39.921,211.061 										"/>
										<path fill="#D22F2F" d="M34.681,221.613l-1.553,1.536l0.374-0.383l0.197-0.207l0.392-0.415
											C34.25,222.009,34.451,221.826,34.681,221.613z"/>
										<path fill="#D22F2F" d="M41.791,214.496l1.825-1.814l-2.189,2.205C41.585,214.711,41.709,214.572,41.791,214.496z"/>
									</g>
								</g>
							</g>
						</g>
						<g>
							<g>
								<g>
									<g>
										<path fill="#D22F2F" d="M103.535,176.59l-12.12,12.163l4.544-4.56c-2.271,2.279-4.199,4.19-6.539,6.49
											c0.675-0.723,2.194-2.205,2.525-2.602c5.554-5.556,11.168-11.087,16.614-16.462
											C106.488,173.842,105.05,175.069,103.535,176.59z"/>
										<path fill="#D22F2F" d="M83.227,196.803l1.638-1.641C84.295,195.738,83.734,196.303,83.227,196.803z"/>
										<path fill="#D22F2F" d="M92.4,191.871l-1.884,1.902C91.131,193.145,91.767,192.508,92.4,191.871z"/>
										<polygon fill="#D22F2F" points="110.642,169.122 111.638,168.096 113.78,165.969 115.899,168.106 112.923,171.057 
											115.872,168.106 113.78,166.022 112.283,167.51 										"/>
										<path fill="#D22F2F" d="M107.81,171.814c-2.601,2.607-5.257,5.237-7.761,7.674
											C102.546,177.044,105.158,174.454,107.81,171.814z"/>
										<path fill="#D22F2F" d="M102.949,210.98c-0.005-0.018,0.05,0.027,0.128,0.097c0.079,0.076,0.152,0.144,0.214,0.197
											l3.123,3.177c-0.264-0.258-0.519-0.488-0.784-0.752C104.48,212.529,104.267,212.257,102.949,210.98z"/>
										<polygon fill="#D22F2F" points="93.107,191.16 93.17,191.09 93.812,190.438 93.893,190.361 										"/>
										<path fill="#D22F2F" d="M101.614,209.639c-0.009-0.033-0.019-0.067-0.1-0.168l1.764,1.791l-0.201-0.185
											C102.675,210.691,102.069,210.062,101.614,209.639z"/>
										<path fill="#D22F2F" d="M88.708,196.537c0.03-0.031,0.05-0.062,0.071-0.099c-0.007,0.004,0.042-0.049,0.073-0.083
											l0.095-0.105l0.153-0.168l3.165-3.08c0.173-0.186,0.552-0.566,0.897-0.938l0.709-0.658l-5.153,5.133l0.083,0.085
											l0.526,0.53l1.104,1.11l-1.089-1.085l-0.546-0.547l-0.092-0.094L88.708,196.537z"/>
										<path fill="#D22F2F" d="M83.322,197.167c3.413,3.376,7.27,7.362,10.645,10.606c-3.84-3.922-9.181-9.292-9.646-9.971
											c-0.466-0.68,5.321,5.301,8.363,8.334l-0.779-0.826c0.389,0.412,0.779,0.826,1.149,1.17
											c-0.779-0.824-2.318-2.404-2.728-2.885l0.74,0.689c-1.967-2.127-5.787-5.982-7.755-8.109
											c4.192,4.415,9.181,9.488,14.474,14.804l8.106,8.103l7.98,7.936l1.947-1.961l-2.484-2.473
											c-6.823-6.752-13.217-12.955-19.224-18.749c-1.13-1.101-3.801-3.788-5.71-5.714l-1.594-1.582l4.966-5.022l4.453-4.54
											c3.191-3.235,6.359-6.403,9.572-9.605l9.297-9.265l-1.309-1.304l-0.007-0.006c-0.009,0.008-0.019,0.015-0.032,0.022
											l-0.521,0.498c-0.336,0.316-0.613,0.566-0.74,0.667c-0.129,0.1-0.109,0.051,0.146-0.231
											c0.127-0.142,0.313-0.341,0.57-0.609l0.429-0.445l0.147-0.161l0.074,0.069l0.077,0.071l0.238,0.232l0.54,0.528
											l0.513,0.502l0.175,0.166l-0.139,0.146l-0.365,0.372l-0.897,0.91l-1.805,1.822L108.562,175
											c0.332-0.398,1.851-1.877,2.524-2.601c-2.34,2.301-4.267,4.209-6.539,6.49l4.545-4.561l-12.12,12.163
											c-1.517,1.522-2.952,2.747-5.024,4.97c5.446-5.373,11.062-10.906,16.614-16.461l-0.026,0.031l6.856-6.859l-0.853,0.865
											l-1.047,1.043l2.007-1.973l-1.72-1.741l-5.305,5.278l5.305-5.397l1.881,1.86l-22.009,22.052
											c2.817-2.707,6.405-6.451,8.879-8.79l-13.664,13.617l0.998-1.026l-1.179,1.155l-1.438,1.426l6.686,6.68l0.765,0.771
											l-0.765-0.771l-6.63-6.68l1.563-1.555l-1.535,1.555l2.768,2.773l-1.149-1.195l-1.55-1.578l0.732-0.723l4.564-4.551
											l-2.586,2.603l-2.633,2.671l1.783,1.746l-1.728-1.746l8.101-8.047l-5.223,5.248l-2.819,2.8l6.185,6.221l-0.344-0.34
											l0.681,0.678l3.511,3.522c1.059,1.056,2.109,2.079,3.156,3.092l0.523,0.522c-0.341-0.32-0.512-0.47,0.121,0.173
											c2.688,2.751,5.692,5.649,8.771,8.812c0.808,0.829,1.917,1.929,3.117,3.11c0.315,0.331,0.49,0.496,0.65,0.641l0.782,0.771
											l1.323,1.313l-0.392,0.401l0.398-0.401l-1.33-1.313l-0.712-0.707c0.171,0.152,0.353,0.312,0.704,0.662l-13.435-13.464
											l0.843,0.798l-1.366-1.32l-4.425-4.4c0.445,0.434,0.86,0.832,1.23,1.176l-9.962-9.947l2.787-2.8l11.829-11.746
											c-2.136,2.074-4.354,4.263-6.606,6.498c5.95-5.978,11.919-11.961,17.902-17.881c-1.036,1.111-2.484,2.613-3.108,3.334
											c0.066-0.018,1.993-1.929,0.892-0.798c-4,4.133-6.977,6.99-8.502,8.785c-0.276,0.35,4.412-4.082,2.965-2.581l-5.78,5.845
											l-2.141,2.128c-0.095,0.089-0.241,0.251-0.427,0.454c-2.57,2.582-5.023,5.036-6.39,6.387l-1.513,1.494
											c-0.27,0.255-0.502,0.469-0.688,0.631l-0.082,0.086c-0.018,0.02-0.018,0.021-0.021,0.023l-0.01,0.012l-0.036,0.045
											l-0.068,0.084l0.07,0.061l3.72,3.751l2.146,2.214c-0.007-0.023-0.112-0.152,0.034-0.021l4.893,4.91
											c0.65,0.672,1.242,1.296,1.758,1.856c1.843,1.692,5.877,5.819,8.723,8.644l-0.001-0.006l4.315,4.324l0.656,0.708
											c0.372,0.347,0.751,0.724,0.937,0.897l1.164,1.18l-1.009,0.992l-0.597,0.579l-1.479,1.442l-0.087,0.092l-0.598-0.562
											l-0.376-0.36l-0.254-0.246l-2.216-2.217l-2.548-2.566l-8.533-8.639c-0.081-0.1-0.091-0.134-0.102-0.169
											c-0.455-0.425-1.059-1.052-1.461-1.438c0.079,0.071,0.131,0.114,0.126,0.096c-1.315-1.275-1.529-1.547-2.682-2.719
											c-0.263-0.262-0.52-0.495-0.781-0.75l-0.381-0.388c-1.263-1.37-2.591-2.663-4.057-4.131l-4.348-4.433
											C84.512,198.471,84.103,197.992,83.322,197.167z"/>
										<path fill="#D22F2F" d="M106.793,214.837l4.057,4.132C109.386,217.501,108.057,216.208,106.793,214.837z"/>
										<path fill="#D22F2F" d="M106.831,178.373c0.562-0.517,1.187-1.11,1.857-1.759l-10.494,10.479l-0.007,0.001
											C101.011,184.25,105.138,180.216,106.831,178.373z"/>
										<path fill="#D22F2F" d="M103.077,211.078l0.201,0.185l0.013,0.013C103.229,211.221,103.156,211.153,103.077,211.078z"/>
										<path fill="#D22F2F" d="M113.045,171.238l0.338-0.336l-2.551,2.579C111.506,172.787,112.264,172.022,113.045,171.238z"/>
										<path fill="#D22F2F" d="M110.095,169.339l-5.223,5.249c-2.254,2.235-4.472,4.425-6.606,6.498L110.095,169.339z"/>
										<path fill="#D22F2F" d="M113.578,171.686l2.214-2.145l-2.192,2.179C113.729,171.575,113.601,171.68,113.578,171.686z"/>
										<polygon fill="#D22F2F" points="105.906,178.431 106.429,177.907 105.109,179.272 										"/>
										<path fill="#D22F2F" d="M110.974,167.42l1.612-1.595l-0.926,0.967C111.475,166.953,111.24,167.167,110.974,167.42z"/>
										<path fill="#D22F2F" d="M102.644,175.757l-2.139,2.126l2.567-2.582C102.885,175.506,102.738,175.668,102.644,175.757z"/>
									</g>
								</g>
							</g>
						</g>
						<g>
							<g>
								<g>
									<g>
										<path fill="#D22F2F" d="M109.186,179.734l-10.453,10.497l3.919-3.936c-1.958,1.967-3.623,3.615-5.645,5.597
											c0.578-0.629,1.892-1.903,2.174-2.25c4.791-4.794,9.641-9.561,14.345-14.193
											C111.748,177.377,110.493,178.421,109.186,179.734z"/>
										<path fill="#D22F2F" d="M91.657,197.168l1.412-1.416C92.58,196.248,92.097,196.736,91.657,197.168z"/>
										<path fill="#D22F2F" d="M99.599,192.805l-1.624,1.644C98.503,193.904,99.052,193.354,99.599,192.805z"/>
										<polygon fill="#D22F2F" points="115.293,173.266 116.151,172.379 118.017,170.529 119.805,172.334 117.285,174.828 
											119.776,172.334 118.017,170.582 116.729,171.861 										"/>
										<path fill="#D22F2F" d="M112.84,175.58c-2.243,2.25-4.536,4.517-6.701,6.615
											C108.296,180.089,110.552,177.856,112.84,175.58z"/>
										<path fill="#D22F2F" d="M108.627,209.242c-0.003-0.016,0.045,0.022,0.112,0.082c0.069,0.065,0.132,0.123,0.187,0.17
											l2.689,2.743c-0.229-0.221-0.448-0.417-0.679-0.646C109.947,210.58,109.767,210.342,108.627,209.242z"/>
										<polygon fill="#D22F2F" points="100.208,192.191 100.262,192.131 100.815,191.567 100.884,191.502 										"/>
										<path fill="#D22F2F" d="M107.477,208.084c-0.007-0.029-0.013-0.061-0.082-0.148l1.521,1.547l-0.175-0.158
											C108.392,208.992,107.871,208.447,107.477,208.084z"/>
										<path fill="#D22F2F" d="M96.493,196.885c0.025-0.026,0.041-0.055,0.06-0.087l0.006-0.012l0.043-0.048l0.08-0.091
											l0.132-0.146c0.863-0.831,1.726-1.661,2.736-2.651c0.148-0.162,0.476-0.49,0.771-0.811l0.616-0.564l-4.444,4.422
											l0.068,0.071l0.359,0.362l0.921,0.928l-0.909-0.906l-0.376-0.376l-0.076-0.079L96.493,196.885z"/>
										<path fill="#D22F2F" d="M91.685,197.463c2.947,2.91,6.266,6.359,9.187,9.148c-3.308-3.389-7.914-8.025-8.301-8.625
											c-0.388-0.602,4.591,4.572,7.218,7.188l-0.67-0.715c0.334,0.357,0.67,0.715,0.99,1.012
											c-0.669-0.715-1.994-2.082-2.343-2.501l0.643,0.592c-1.686-1.847-4.979-5.175-6.666-7.021
											c3.598,3.818,7.889,8.197,12.447,12.778l6.985,6.981l6.852,6.806l1.622-1.638l-2.146-2.131
											c-5.892-5.82-11.421-11.16-16.618-16.145c-0.977-0.949-3.28-3.268-4.926-4.93l-1.377-1.367l4.376-4.433l3.867-3.955
											c2.745-2.789,5.474-5.518,8.241-8.274l7.933-7.901l-0.452-0.451l-0.501-0.499l-0.026-0.024l-0.003-0.003
											c-0.009,0.008-0.017,0.013-0.029,0.019l-0.004,0.002c-0.002,0.001,0.001-0.001-0.004,0.003l-0.031,0.029l-0.12,0.115
											l-0.231,0.218c-0.297,0.278-0.544,0.498-0.66,0.586c-0.117,0.088-0.104,0.045,0.119-0.205
											c0.111-0.125,0.274-0.302,0.501-0.539l0.329-0.345l0.131-0.145l0.054,0.05l0.068,0.062l0.035,0.032l0.097,0.094
											l0.474,0.462l0.403,0.392l0.154,0.146l-0.118,0.125l-0.258,0.265l-0.771,0.782l-1.547,1.565l-3.115,3.129
											c0.282-0.348,1.596-1.622,2.173-2.25c-2.021,1.982-3.685,3.628-5.646,5.596l3.921-3.936l-10.454,10.497
											c-1.309,1.314-2.562,2.357-4.339,4.285c4.704-4.631,9.554-9.399,14.345-14.192l-0.021,0.027l5.846-5.849l-0.191,0.198
											l-0.474,0.479l-0.903,0.9l1.654-1.622l-0.688-0.701l-0.699-0.708l-4.567,4.541l4.567-4.661l1.55,1.529l-9.407,9.423
											c-3.23,3.228-6.435,6.432-9.512,9.539c2.438-2.328,5.523-5.569,7.666-7.578l-11.792,11.746l0.859-0.888l-1.05,1.025
											l-1.308,1.295l5.74,5.735l0.66,0.666l-0.66-0.666l-5.685-5.735l1.443-1.433l-1.414,1.433l2.353,2.359
											c-0.273-0.291-0.601-0.633-0.96-1.005l-1.325-1.354l0.715-0.704l3.943-3.931l-2.262,2.279l-2.316,2.355l1.495,1.461
											l-1.441-1.461l7.071-7.017l-4.505,4.53l-2.508,2.486l5.281,5.317l-0.297-0.292l0.589,0.585l3.027,3.04
											c0.914,0.91,1.822,1.791,2.729,2.663l0.452,0.45c-0.296-0.274-0.444-0.402,0.1,0.154c2.316,2.377,4.915,4.87,7.565,7.605
											c0.695,0.717,1.654,1.664,2.69,2.684c0.271,0.287,0.423,0.429,0.562,0.553l0.676,0.664l1.16,1.15l-0.312,0.32l0.317-0.32
											l-1.166-1.15l-0.614-0.611c0.148,0.131,0.306,0.268,0.609,0.57l-11.589-11.619l0.729,0.685l-1.182-1.135l-3.818-3.796
											c0.384,0.373,0.744,0.715,1.064,1.012l-8.542-8.528l2.475-2.487l10.212-10.128c-1.847,1.785-3.763,3.672-5.707,5.599
											c5.132-5.16,10.28-10.323,15.447-15.427c-0.889,0.964-2.135,2.264-2.666,2.893c0.061-0.013,1.725-1.66,0.775-0.682
											c-3.441,3.575-6.018,6.032-7.316,7.599c-0.233,0.307,3.83-3.499,2.585-2.2l-4.983,5.047l-1.848,1.835
											c-0.081,0.077-0.207,0.217-0.366,0.394c-2.217,2.229-4.333,4.346-5.513,5.51l-1.307,1.288
											c-0.233,0.218-0.436,0.401-0.598,0.54l-0.07,0.075l-0.018,0.022l-0.034,0.043l-0.062,0.078l0.045,0.039l3.098,3.129
											l1.847,1.915c-0.005-0.021-0.094-0.134,0.034-0.022l4.219,4.238c0.56,0.58,1.068,1.121,1.511,1.608
											c1.601,1.45,5.073,5.018,7.53,7.452v-0.006l3.723,3.731l0.563,0.614c0.323,0.297,0.65,0.623,0.812,0.771l1.085,1.102
											l-0.878,0.864l-0.545,0.528l-1.292,1.257l-0.13,0.138l-0.501-0.468l-0.315-0.301l-0.262-0.255l-1.912-1.912l-2.197-2.217
											l-7.355-7.46c-0.068-0.087-0.075-0.118-0.083-0.149c-0.395-0.365-0.914-0.908-1.263-1.24
											c0.069,0.062,0.115,0.098,0.111,0.081c-1.138-1.097-1.317-1.337-2.311-2.349c-0.227-0.227-0.45-0.426-0.677-0.645
											l-0.328-0.336c-1.082-1.189-2.23-2.302-3.494-3.569l-3.747-3.829C92.702,198.596,92.354,198.178,91.685,197.463z"/>
										<path fill="#D22F2F" d="M111.942,212.57l3.495,3.57C114.174,214.874,113.025,213.762,111.942,212.57z"/>
										<path fill="#D22F2F" d="M112.112,181.223c0.488-0.442,1.029-0.952,1.609-1.51l-9.055,9.041l-0.006,0
											C107.095,186.298,110.662,182.824,112.112,181.223z"/>
										<path fill="#D22F2F" d="M108.74,209.324l0.175,0.158l0.011,0.012C108.871,209.447,108.809,209.39,108.74,209.324z"/>
										<path fill="#D22F2F" d="M117.411,175.004l0.291-0.29l-2.199,2.227C116.083,176.341,116.737,175.681,117.411,175.004z"/>
										<path fill="#D22F2F" d="M114.799,173.431l-4.504,4.53c-1.946,1.928-3.862,3.815-5.708,5.599L114.799,173.431z"/>
										<path fill="#D22F2F" d="M117.938,175.458l1.914-1.846l-1.893,1.88C118.07,175.365,117.959,175.454,117.938,175.458z"/>
										<polygon fill="#D22F2F" points="111.255,181.213 111.706,180.761 110.571,181.943 										"/>
										<path fill="#D22F2F" d="M115.485,171.704l1.393-1.375c-0.269,0.279-0.533,0.556-0.796,0.838
											C115.921,171.303,115.717,171.487,115.485,171.704z"/>
										<path fill="#D22F2F" d="M108.299,178.898l-1.846,1.833l2.214-2.229C108.507,178.68,108.381,178.821,108.299,178.898z"/>
									</g>
								</g>
							</g>
						</g>
						<g>
							<g>
								<g>
									<g>
										<path fill="#D22F2F" d="M95.199,225.023l-12.163-12.119l4.56,4.543c-2.278-2.271-4.19-4.199-6.49-6.539
											c0.724,0.674,2.205,2.194,2.602,2.525c5.556,5.555,11.088,11.168,16.463,16.615
											C97.946,227.977,96.719,226.539,95.199,225.023z"/>
										<path fill="#D22F2F" d="M74.985,204.715l1.642,1.639C76.051,205.783,75.485,205.223,74.985,204.715z"/>
										<path fill="#D22F2F" d="M79.917,213.889l-1.902-1.884C78.645,212.619,79.28,213.254,79.917,213.889z"/>
										<polygon fill="#D22F2F" points="102.667,232.131 103.691,233.127 105.819,235.27 103.682,237.389 100.73,234.41 
											103.682,237.359 105.767,235.27 104.278,233.771 										"/>
										<path fill="#D22F2F" d="M99.975,229.299c-2.607-2.601-5.237-5.258-7.675-7.761
											C94.744,224.034,97.334,226.646,99.975,229.299z"/>
										<path fill="#D22F2F" d="M60.808,224.438c0.017-0.005-0.027,0.05-0.098,0.128c-0.076,0.08-0.144,0.152-0.197,0.214
											l-3.176,3.123c0.257-0.264,0.486-0.518,0.752-0.784C59.258,225.971,59.531,225.756,60.808,224.438z"/>
										<polygon fill="#D22F2F" points="80.628,214.596 80.698,214.658 81.351,215.301 81.426,215.381 										"/>
										<path fill="#D22F2F" d="M62.149,223.104c0.033-0.009,0.066-0.019,0.167-0.1l-1.791,1.764l0.185-0.201
											C61.096,224.164,61.726,223.559,62.149,223.104z"/>
										<path fill="#D22F2F" d="M75.251,210.197c0.031,0.03,0.062,0.05,0.099,0.071c-0.004-0.007,0.048,0.04,0.083,0.071
											l0.104,0.096l0.169,0.154l3.08,3.164c0.186,0.174,0.566,0.552,0.937,0.897l0.658,0.709l-5.132-5.152l-0.085,0.083
											l-0.53,0.527l-1.111,1.104l1.086-1.088l0.547-0.547l0.094-0.092L75.251,210.197z"/>
										<path fill="#D22F2F" d="M74.622,204.811c-3.377,3.414-7.363,7.27-10.606,10.645c3.921-3.84,9.292-9.181,9.971-9.646
											c0.68-0.465-5.302,5.32-8.334,8.363l0.825-0.779c-0.412,0.389-0.825,0.779-1.17,1.15c0.825-0.781,2.405-2.318,2.886-2.729
											l-0.69,0.74c2.127-1.967,5.982-5.787,8.109-7.754c-4.414,4.191-9.488,9.18-14.804,14.473l-8.103,8.107l-7.935,7.98
											l1.961,1.947l2.472-2.484c6.751-6.822,12.955-13.217,18.749-19.224c1.102-1.13,3.787-3.801,5.714-5.71l1.582-1.595
											l5.022,4.966l4.54,4.451c3.235,3.192,6.403,6.36,9.605,9.573l9.266,9.298l1.304-1.309l0.006-0.006
											c-0.009-0.01-0.015-0.02-0.022-0.033l-0.497-0.521c-0.316-0.336-0.566-0.611-0.667-0.74
											c-0.101-0.127-0.051-0.109,0.231,0.146c0.141,0.129,0.341,0.314,0.608,0.572l0.445,0.428l0.161,0.148l-0.069,0.072
											l-0.071,0.078l-0.231,0.238l-0.528,0.539l-0.503,0.514l-0.166,0.174l-0.146-0.139l-0.372-0.365l-0.91-0.898l-1.822-1.803
											l-3.644-3.631c0.397,0.333,1.878,1.852,2.601,2.525c-2.3-2.34-4.209-4.266-6.49-6.539l4.561,4.545l-12.162-12.12
											c-1.523-1.518-2.748-2.952-4.972-5.024c5.374,5.445,10.907,11.061,16.463,16.613l-0.031-0.025l6.86,6.855l-0.865-0.852
											l-1.044-1.047l1.974,2.006l1.741-1.717l-5.278-5.307l5.396,5.307l-1.859,1.879L81.63,215.141
											c2.707,2.816,6.451,6.405,8.79,8.878l-13.617-13.663l1.026,0.998l-1.154-1.18l-1.426-1.438l-6.681,6.687l-0.771,0.765
											l0.771-0.765l6.681-6.63l1.554,1.562l-1.554-1.535l-2.774,2.768l1.195-1.148l1.579-1.55l0.722,0.73l4.551,4.564
											l-2.603-2.585l-2.67-2.633l-1.748,1.784l1.748-1.729l8.046,8.101l-5.247-5.223l-2.799-2.818l-6.221,6.184l0.339-0.343
											l-0.679,0.681l-3.521,3.51c-1.056,1.06-2.079,2.11-3.092,3.158l-0.522,0.521c0.32-0.34,0.47-0.51-0.173,0.121
											c-2.752,2.689-5.649,5.693-8.812,8.771c-0.83,0.809-1.928,1.918-3.11,3.119c-0.332,0.314-0.497,0.49-0.642,0.65
											l-0.771,0.781l-1.313,1.322l-0.401-0.393l0.401,0.4l1.313-1.33l0.707-0.711c-0.152,0.17-0.312,0.352-0.663,0.701
											l13.464-13.434l-0.797,0.843l1.319-1.366l4.4-4.424c-0.433,0.444-0.831,0.86-1.176,1.23l9.949-9.963l2.799,2.786
											l11.746,11.829c-2.074-2.136-4.264-4.354-6.499-6.606c5.979,5.95,11.962,11.919,17.883,17.901
											c-1.112-1.035-2.614-2.484-3.335-3.107c0.018,0.066,1.929,1.994,0.798,0.891c-4.134-3.999-6.99-6.975-8.785-8.501
											c-0.35-0.276,4.082,4.412,2.581,2.964l-5.845-5.78l-2.129-2.14c-0.089-0.095-0.251-0.241-0.454-0.428
											c-2.582-2.57-5.036-5.022-6.387-6.389l-1.495-1.514c-0.254-0.269-0.468-0.502-0.629-0.688l-0.087-0.082
											c-0.019-0.018-0.02-0.018-0.023-0.021l-0.012-0.009l-0.045-0.037l-0.083-0.068l-0.061,0.07l-3.753,3.722l-2.214,2.145
											c0.024-0.007,0.152-0.112,0.022,0.035l-4.91,4.892c-0.672,0.65-1.296,1.242-1.856,1.758
											c-1.693,1.844-5.82,5.877-8.645,8.723l0.007-0.001l-4.322,4.317l-0.709,0.658c-0.347,0.371-0.724,0.75-0.896,0.936
											l-1.179,1.164l-0.992-1.008l-0.581-0.598l-1.443-1.48l-0.091-0.086l0.562-0.598l0.359-0.377l0.247-0.254l2.217-2.216
											l2.567-2.548l8.638-8.533c0.101-0.08,0.134-0.09,0.169-0.102c0.425-0.455,1.053-1.059,1.438-1.461
											c-0.071,0.078-0.114,0.131-0.096,0.125c1.275-1.314,1.547-1.528,2.719-2.68c0.263-0.264,0.495-0.521,0.75-0.783
											l0.388-0.381c1.37-1.262,2.663-2.59,4.131-4.056l4.433-4.349C73.317,206,73.796,205.591,74.622,204.811z"/>
										<path fill="#D22F2F" d="M56.951,228.282l-4.132,4.058C54.287,230.875,55.579,229.547,56.951,228.282z"/>
										<path fill="#D22F2F" d="M93.415,228.318c0.517,0.562,1.11,1.188,1.759,1.857l-10.479-10.494l-0.001-0.006
											C87.538,222.498,91.572,226.625,93.415,228.318z"/>
										<path fill="#D22F2F" d="M60.71,224.566l-0.185,0.201l-0.013,0.013C60.567,224.719,60.634,224.646,60.71,224.566z"/>
										<path fill="#D22F2F" d="M100.551,234.533l0.336,0.338l-2.579-2.552C99.001,232.994,99.766,233.752,100.551,234.533z"/>
										<path fill="#D22F2F" d="M102.449,231.584l-5.249-5.223c-2.235-2.254-4.425-4.473-6.498-6.607L102.449,231.584z"/>
										<path fill="#D22F2F" d="M100.103,235.066l2.145,2.213l-2.18-2.191C100.213,235.217,100.107,235.088,100.103,235.066z"/>
										<polygon fill="#D22F2F" points="93.357,227.395 93.882,227.917 92.516,226.598 										"/>
										<path fill="#D22F2F" d="M104.368,232.463l1.596,1.611l-0.968-0.926C104.836,232.965,104.621,232.73,104.368,232.463z"/>
										<path fill="#D22F2F" d="M96.031,224.132l-2.127-2.138l2.582,2.566C96.282,224.373,96.121,224.227,96.031,224.132z"/>
									</g>
								</g>
							</g>
						</g>
						<g>
							<g>
								<g>
									<g>
										<path fill="#D22F2F" d="M92.055,230.675l-10.497-10.454l3.936,3.92c-1.967-1.959-3.615-3.624-5.597-5.645
											c0.627,0.578,1.902,1.892,2.25,2.174c4.793,4.791,9.561,9.64,14.192,14.344C94.41,233.236,93.366,231.982,92.055,230.675z
											"/>
										<path fill="#D22F2F" d="M74.621,213.146l1.416,1.412C75.54,214.068,75.052,213.586,74.621,213.146z"/>
										<path fill="#D22F2F" d="M78.983,221.087l-1.644-1.624C77.885,219.991,78.434,220.54,78.983,221.087z"/>
										<polygon fill="#D22F2F" points="98.522,236.781 99.409,237.641 101.259,239.506 99.454,241.293 96.961,238.773 
											99.454,241.266 101.207,239.506 99.928,238.217 										"/>
										<path fill="#D22F2F" d="M96.209,234.33c-2.25-2.244-4.518-4.538-6.615-6.703C91.698,229.785,93.932,232.041,96.209,234.33
											z"/>
										<path fill="#D22F2F" d="M62.547,230.115c0.016-0.002-0.022,0.045-0.082,0.113c-0.065,0.068-0.123,0.131-0.17,0.186
											l-2.744,2.689c0.222-0.229,0.418-0.449,0.647-0.678C61.208,231.436,61.447,231.255,62.547,230.115z"/>
										<polygon fill="#D22F2F" points="79.597,221.696 79.657,221.75 80.221,222.303 80.286,222.373 										"/>
										<path fill="#D22F2F" d="M63.704,228.965c0.03-0.006,0.062-0.013,0.149-0.082l-1.548,1.521l0.159-0.175
											C62.796,229.879,63.341,229.359,63.704,228.965z"/>
										<path fill="#D22F2F" d="M74.903,217.981c0.026,0.026,0.055,0.042,0.087,0.06l0.012,0.006l0.048,0.043l0.091,0.081
											l0.146,0.132c0.831,0.863,1.661,1.726,2.652,2.736c0.16,0.148,0.489,0.475,0.811,0.771l0.563,0.615l-4.423-4.444
											l-0.071,0.069l-0.362,0.357l-0.927,0.922l0.906-0.91l0.376-0.375l0.079-0.076L74.903,217.981z"/>
										<path fill="#D22F2F" d="M74.326,213.174c-2.911,2.947-6.359,6.266-9.149,9.186c3.39-3.307,8.025-7.914,8.625-8.301
											c0.602-0.387-4.572,4.592-7.188,7.219l0.716-0.67c-0.357,0.334-0.716,0.67-1.011,0.99c0.715-0.67,2.081-1.994,2.5-2.343
											l-0.592,0.642c1.846-1.686,5.175-4.979,7.021-6.666c-3.82,3.598-8.197,7.89-12.779,12.448l-6.98,6.985l-6.806,6.852
											l1.636,1.621l2.133-2.145c5.82-5.893,11.159-11.422,16.145-16.619c0.948-0.977,3.267-3.279,4.93-4.926l1.365-1.377
											l4.434,4.377l3.955,3.867c2.789,2.745,5.518,5.474,8.274,8.24l7.9,7.934l0.452-0.453l0.498-0.5l0.024-0.025l0.004-0.004
											c-0.008-0.008-0.013-0.018-0.02-0.029l-0.002-0.004c-0.002-0.002,0.001,0-0.004-0.004l-0.029-0.031l-0.114-0.119
											l-0.219-0.232c-0.278-0.297-0.498-0.543-0.587-0.66c-0.088-0.117-0.045-0.104,0.205,0.119
											c0.125,0.111,0.302,0.275,0.539,0.502l0.345,0.328l0.146,0.131l-0.051,0.055l-0.062,0.068l-0.031,0.033l-0.095,0.098
											l-0.463,0.475l-0.392,0.402l-0.146,0.154l-0.126-0.119l-0.265-0.258l-0.782-0.77l-1.564-1.547l-3.129-3.115
											c0.348,0.281,1.622,1.594,2.249,2.172c-1.981-2.021-3.628-3.684-5.597-5.645l3.937,3.92L83.68,224.977
											c-1.313-1.309-2.355-2.562-4.284-4.34c4.631,4.704,9.399,9.554,14.192,14.346l-0.027-0.021l5.85,5.844l-0.197-0.189
											l-0.48-0.475l-0.899-0.902l1.621,1.654l0.701-0.688l0.708-0.699l-4.54-4.568l4.66,4.568l-1.529,1.549l-9.423-9.406
											c-3.229-3.23-6.432-6.436-9.539-9.513c2.328,2.438,5.57,5.522,7.578,7.667l-11.746-11.792l0.889,0.858l-1.026-1.05
											l-1.295-1.308l-5.735,5.74l-0.666,0.66l0.666-0.66l5.735-5.684l1.433,1.443l-1.433-1.415l-2.359,2.353
											c0.292-0.273,0.634-0.602,1.005-0.961l1.354-1.324l0.704,0.715l3.931,3.943l-2.28-2.262l-2.354-2.316l-1.461,1.495
											l1.461-1.442l7.017,7.072l-4.529-4.504l-2.487-2.508l-5.317,5.28l0.293-0.297l-0.586,0.589l-3.039,3.027
											c-0.91,0.914-1.791,1.822-2.663,2.729l-0.45,0.451c0.274-0.295,0.402-0.443-0.153,0.101
											c-2.378,2.315-4.871,4.915-7.606,7.565c-0.717,0.695-1.664,1.654-2.683,2.689c-0.287,0.271-0.43,0.424-0.553,0.562
											l-0.664,0.676l-1.151,1.16l-0.319-0.311l0.319,0.318l1.151-1.168l0.609-0.613c-0.131,0.148-0.267,0.307-0.569,0.609
											l11.619-11.59l-0.686,0.73l1.136-1.182l3.795-3.819c-0.372,0.385-0.715,0.745-1.011,1.065l8.527-8.542l2.488,2.476
											l10.128,10.211c-1.784-1.847-3.672-3.762-5.599-5.707c5.159,5.133,10.323,10.281,15.427,15.447
											c-0.964-0.889-2.264-2.135-2.893-2.666c0.012,0.061,1.659,1.725,0.682,0.775c-3.575-3.441-6.032-6.018-7.599-7.316
											c-0.307-0.232,3.499,3.83,2.2,2.584l-5.048-4.982l-1.836-1.848c-0.076-0.081-0.217-0.207-0.394-0.366
											c-2.228-2.216-4.346-4.333-5.51-5.513l-1.288-1.307c-0.219-0.232-0.402-0.436-0.54-0.598l-0.075-0.07l-0.022-0.018
											l-0.044-0.034l-0.078-0.063l-0.038,0.046l-3.129,3.098l-1.915,1.847c0.021-0.005,0.134-0.094,0.022,0.033l-4.237,4.219
											c-0.581,0.561-1.122,1.068-1.608,1.511c-1.451,1.601-5.018,5.075-7.453,7.53h0.007l-3.731,3.725l-0.615,0.562
											c-0.297,0.322-0.623,0.65-0.771,0.811l-1.103,1.086l-0.863-0.877l-0.527-0.545l-1.257-1.293l-0.139-0.129L48,239.016
											l0.3-0.314l0.256-0.264l1.912-1.912l2.216-2.197l7.461-7.354c0.087-0.069,0.118-0.076,0.15-0.084
											c0.363-0.395,0.907-0.914,1.238-1.263c-0.061,0.069-0.097,0.115-0.08,0.111c1.098-1.138,1.336-1.317,2.349-2.311
											c0.226-0.227,0.426-0.45,0.646-0.677l0.335-0.328c1.189-1.082,2.302-2.23,3.569-3.494l3.83-3.747
											C73.192,214.191,73.61,213.844,74.326,213.174z"/>
										<path fill="#D22F2F" d="M59.218,233.432l-3.569,3.494C56.915,235.662,58.027,234.514,59.218,233.432z"/>
										<path fill="#D22F2F" d="M90.564,233.602c0.443,0.488,0.953,1.029,1.511,1.609l-9.04-9.057l-0.001-0.005
											C85.49,228.583,88.965,232.15,90.564,233.602z"/>
										<path fill="#D22F2F" d="M62.465,230.229l-0.159,0.174l-0.011,0.012C62.342,230.359,62.399,230.297,62.465,230.229z"/>
										<path fill="#D22F2F" d="M96.784,238.9l0.29,0.291l-2.227-2.199C95.447,237.572,96.107,238.225,96.784,238.9z"/>
										<path fill="#D22F2F" d="M98.357,236.289l-4.53-4.506c-1.928-1.945-3.815-3.861-5.6-5.707L98.357,236.289z"/>
										<path fill="#D22F2F" d="M96.33,239.426l1.846,1.914l-1.879-1.891C96.423,239.559,96.334,239.447,96.33,239.426z"/>
										<polygon fill="#D22F2F" points="90.575,232.744 91.027,233.195 89.846,232.061 										"/>
										<path fill="#D22F2F" d="M100.084,236.975l1.376,1.393c-0.278-0.27-0.556-0.533-0.838-0.797
											C100.485,237.41,100.301,237.205,100.084,236.975z"/>
										<path fill="#D22F2F" d="M92.891,229.787l-1.834-1.846l2.229,2.214C93.108,229.995,92.968,229.869,92.891,229.787z"/>
									</g>
								</g>
							</g>
						</g>
					</g>
				</g>
			</g>
		</g>
		<g>
			<path d="M67.561,205.809c-0.312-0.289-0.568-0.19-0.568,0.217v3.854c0,0.408,0.257,0.506,0.568,0.218l1.761-1.62
				c0.312-0.287,0.312-0.76,0-1.048L67.561,205.809z"/>
			<path d="M75.181,193.547c-1.819,0-3.293,1.475-3.293,3.291c0,1.818,1.474,3.291,3.293,3.291c1.816,0,3.29-1.473,3.29-3.291
				C78.471,195.021,76.997,193.547,75.181,193.547z"/>
			<path d="M83.026,187.55L83.026,187.55v-9.386l0,0c0-0.31-0.251-0.56-0.56-0.56H67.552c-0.309,0-0.56,0.25-0.56,0.56v4.568h0.003
				c0.012,0.298,0.255,0.536,0.557,0.536h0.001l-0.001,0.001h10.721c0.398,0,0.724,0.326,0.724,0.725v3.556l0.001,0.001
				c0.001,0.305,0.246,0.552,0.55,0.556l0.002,0.001h2.917C82.775,188.109,83.026,187.859,83.026,187.55z"/>
			<path d="M67.554,198.059c0.147,0,0.28-0.059,0.381-0.152h0.002l0.008-0.008c0.002-0.003,0.006-0.006,0.009-0.01l7.204-7.344
				c0.278-0.285,0.747-0.299,1.042-0.031l5.912,5.303h0.003c0.096,0.079,0.218,0.128,0.353,0.128c0.309,0,0.56-0.251,0.56-0.559
				v-4.851c0-0.164-0.072-0.311-0.187-0.412l0.001-0.002l-1.469-1.288h-2.539c-0.31,0-0.56-0.25-0.56-0.559v-2.145
				c-1.405-1.225-2.585-2.251-2.585-2.251c-0.294-0.268-0.764-0.254-1.042,0.03l-7.496,7.533l-0.004,0.008
				c-0.094,0.1-0.152,0.232-0.152,0.381l-0.002,5.694l0.006,0.014C67.019,197.828,67.258,198.059,67.554,198.059z"/>
			<path d="M72.877,212.866l0.006-0.003l0.018-0.017c0.002-0.001,0.004-0.004,0.006-0.005l2.465-2.386l7.497-7.532l0.004-0.008
				c0.094-0.1,0.151-0.234,0.151-0.381l0.003-5.695l-0.006-0.013c-0.021-0.29-0.26-0.521-0.556-0.521
				c-0.147,0-0.28,0.059-0.381,0.151h-0.002l-0.008,0.009c-0.003,0.004-0.006,0.006-0.009,0.009l-7.204,7.345
				c-0.278,0.284-0.747,0.299-1.042,0.029l-5.912-5.302l-0.003,0.001c-0.097-0.08-0.219-0.129-0.353-0.129
				c-0.31,0-0.56,0.25-0.56,0.56v4.849c0,0.166,0.072,0.312,0.186,0.414l-0.001,0.002l3.396,3.137
				c0.3,0.264,0.319,0.714,0.045,1.002l-3.462,3.672l0,0c-0.101,0.102-0.163,0.24-0.163,0.393c0,0.311,0.251,0.561,0.56,0.561h4.957
				C72.65,213.008,72.779,212.953,72.877,212.866z"/>
		</g>
	</g>
	<g>
		<path d="M130.806,177.655h-12.718v34.713h-3.051v-34.713h-13.151v-2.615h28.92V177.655z"/>
		<path d="M154.701,195.575h-14.613v11.817h17.228v4.976h-23.457V175.04h23.279v5h-17.05v10.536h14.613V195.575z"/>
		<path d="M170.957,197.396h-2.41v14.973h-8.666V175.04h8.666v14.613h1.794l8.435-14.613h10.896l-11.741,16.972l12.741,20.356
			h-11.127L170.957,197.396z"/>
		<path d="M217.34,197.062c0,4.562-1.432,8.345-4.295,11.345c-2.861,2.999-6.584,4.499-11.164,4.499
			c-4.461,0-8.094-1.5-10.896-4.499c-2.803-3-4.202-6.781-4.202-11.345v-6.719c0-4.546,1.396-8.321,4.19-11.332
			c2.795-3.008,6.43-4.512,10.908-4.512c4.562,0,8.28,1.504,11.152,4.512c2.871,3.011,4.307,6.786,4.307,11.332V197.062
			L217.34,197.062z M211.109,190.294c0-3.11-0.828-5.665-2.486-7.665s-3.906-3-6.742-3c-2.752,0-4.918,1-6.5,3
			c-1.58,2-2.371,4.555-2.371,7.665v6.771c0,3.146,0.795,5.722,2.385,7.729c1.59,2.009,3.752,3.013,6.486,3.013
			c2.854,0,5.105-1,6.756-3c1.648-1.999,2.473-4.58,2.473-7.74V190.294L211.109,190.294z"/>
		<path d="M239.086,201.959h-16.383l-3.77,10.409h-3.18l13.717-37.328h2.896l13.612,37.328h-3.18L239.086,201.959z M223.678,199.216
			h14.408l-7.076-19.792h-0.154L223.678,199.216z"/>
	</g>
</g>
</svg>
