<?xml version="1.0" encoding="utf-8"?>
<!-- Generator: Adobe Illustrator 15.1.0, SVG Export Plug-In . SVG Version: 6.00 Build 0)  -->
<!DOCTYPE svg PUBLIC "-//W3C//DTD SVG 1.1//EN" "http://www.w3.org/Graphics/SVG/1.1/DTD/svg11.dtd">
<svg version="1.1" id="Layer_1" xmlns="http://www.w3.org/2000/svg" xmlns:xlink="http://www.w3.org/1999/xlink" x="0px" y="0px"
	 width="291.787px" height="379.406px" viewBox="0 0 291.787 379.406" enable-background="new 0 0 291.787 379.406"
	 xml:space="preserve">
<g>
	<g>
		<g>
			
				<rect x="149.644" y="7.153" transform="matrix(0.7701 -0.638 0.638 0.7701 -84.0462 141.8586)" fill="#D22F2F" width="10.254" height="360.741"/>
			<path d="M32.097,52.323c0.679,0.965,2.055,1.165,3.07,0.449l9.821-6.919c1.017-0.715,1.292-2.078,0.612-3.043l0,0
				c-0.68-0.962-2.055-1.163-3.071-0.446l-9.821,6.916C31.691,49.996,31.417,51.358,32.097,52.323L32.097,52.323z"/>
			<path d="M26.638,45.133c0.775,0.889,2.164,0.947,3.102,0.129l9.054-7.894c0.938-0.815,1.072-2.202,0.294-3.087l0,0
				c-0.772-0.892-2.16-0.949-3.098-0.132l-9.057,7.894C25.993,42.859,25.863,44.243,26.638,45.133L26.638,45.133z"/>
			<path d="M32.229,52.424c0.859,0.808,2.246,0.728,3.101-0.18l8.224-8.754c0.854-0.907,0.849-2.296-0.014-3.103l0,0
				c-0.857-0.81-2.246-0.728-3.098,0.177l-8.227,8.756C31.364,50.226,31.369,51.616,32.229,52.424L32.229,52.424z"/>
			<path fill="#EF4538" d="M0,0c12.577,12.664,25.6,17.04,30.647,23.133c5.049,6.095,1.753,15.98,1.753,15.98
				s-10.327,1.4-15.377-4.695C11.977,28.324,10.101,14.715,0,0z"/>
			<path d="M41.396,37.165c0.862,0.805,0.873,2.194,0.022,3.105l-8.193,8.781c-0.847,0.911-2.235,0.997-3.098,0.191l0,0
				c-0.864-0.803-0.874-2.193-0.024-3.104l8.195-8.785C39.145,36.447,40.534,36.359,41.396,37.165L41.396,37.165z"/>
			<path d="M41.478,37.312c0.683,0.961,0.412,2.327-0.604,3.046L31.08,47.31c-1.016,0.721-2.391,0.524-3.072-0.438l0,0
				c-0.685-0.961-0.414-2.327,0.601-3.044l9.798-6.954C39.418,36.155,40.796,36.349,41.478,37.312L41.478,37.312z"/>
			<path d="M37.749,32.821c0.672,0.965,0.39,2.328-0.63,3.038l-9.854,6.867c-1.02,0.711-2.398,0.505-3.071-0.466l0,0
				c-0.675-0.963-0.393-2.326,0.628-3.038l9.858-6.868C35.697,31.644,37.072,31.85,37.749,32.821L37.749,32.821z"/>
			
				<rect x="131.874" y="7.163" transform="matrix(-0.77 -0.638 0.638 -0.77 122.8537 419.3474)" fill="#D22F2F" width="10.253" height="360.741"/>
			<path d="M259.69,52.323c-0.68,0.965-2.055,1.165-3.07,0.449l-9.821-6.919c-1.017-0.715-1.292-2.078-0.612-3.043l0,0
				c0.681-0.962,2.056-1.163,3.071-0.446l9.821,6.916C260.097,49.996,260.37,51.358,259.69,52.323L259.69,52.323z"/>
			<path d="M265.149,45.133c-0.775,0.889-2.164,0.947-3.103,0.129l-9.054-7.894c-0.938-0.815-1.072-2.202-0.295-3.087l0,0
				c0.773-0.892,2.16-0.949,3.099-0.132l9.058,7.894C265.794,42.859,265.924,44.243,265.149,45.133L265.149,45.133z"/>
			<path d="M259.558,52.424c-0.858,0.808-2.246,0.728-3.101-0.18l-8.224-8.754c-0.854-0.907-0.85-2.296,0.014-3.103l0,0
				c0.857-0.81,2.246-0.728,3.098,0.177l8.227,8.756C260.423,50.226,260.418,51.616,259.558,52.424L259.558,52.424z"/>
			<path fill="#EF4538" d="M291.787,0c-12.577,12.664-25.601,17.04-30.647,23.133c-5.049,6.095-1.752,15.98-1.752,15.98
				s10.326,1.4,15.377-4.695C279.812,28.324,281.687,14.715,291.787,0z"/>
			<path d="M250.392,37.165c-0.861,0.805-0.873,2.194-0.021,3.105l8.193,8.781c0.847,0.911,2.234,0.997,3.098,0.191l0,0
				c0.863-0.803,0.874-2.193,0.023-3.104l-8.195-8.785C252.644,36.447,251.253,36.359,250.392,37.165L250.392,37.165z"/>
			<path d="M250.31,37.312c-0.683,0.961-0.412,2.327,0.604,3.046l9.793,6.951c1.017,0.721,2.392,0.524,3.071-0.438l0,0
				c0.686-0.961,0.414-2.327-0.6-3.044l-9.799-6.954C252.369,36.155,250.991,36.349,250.31,37.312L250.31,37.312z"/>
			<path d="M254.038,32.821c-0.672,0.965-0.391,2.328,0.63,3.038l9.854,6.867c1.02,0.711,2.397,0.505,3.07-0.466l0,0
				c0.676-0.963,0.393-2.326-0.628-3.038l-9.858-6.868C256.09,31.644,254.715,31.85,254.038,32.821L254.038,32.821z"/>
		</g>
		<polygon points="66.062,289.884 48.764,88.611 145.894,66.914 243.022,88.611 225.724,289.884 145.894,326.776 		"/>
		<g>
			<g>
				<defs>
					<polygon id="SVGID_1_" points="80.038,271.697 63.865,103.008 145.894,66.914 227.922,103.008 211.749,271.697 
						145.894,326.776 					"/>
				</defs>
				<clipPath id="SVGID_2_">
					<use xlink:href="#SVGID_1_"  overflow="visible"/>
				</clipPath>
				<rect x="36.197" y="59.45" clip-path="url(#SVGID_2_)" fill="#EF4538" width="209.17" height="279.393"/>
			</g>
			<g>
				<defs>
					<polygon id="SVGID_3_" points="80.038,271.697 63.865,103.008 145.894,66.914 227.922,103.008 211.749,271.697 
						145.894,326.776 					"/>
				</defs>
				<clipPath id="SVGID_4_">
					<use xlink:href="#SVGID_3_"  overflow="visible"/>
				</clipPath>
				<g clip-path="url(#SVGID_4_)">
					<g>
						<g>
							<g>
								<g>
									<path fill="#D22F2F" d="M86.537,151.658l49.149,49.021l-91.231,91.315L95.8,240.572
										c-25.657,25.695-47.375,47.326-73.657,73.411c7.765-8.011,24.796-24.849,28.746-29.126l84.371-84.179L30.259,95.109
										C54.878,118.972,69.389,134.536,86.537,151.658z"/>
									<polygon fill="#D22F2F" points="-19.396,380.591 -32.132,367.872 -29.048,364.786 -32.112,367.872 									"/>
									<path fill="#D22F2F" d="M260.124,73.003l21.322-21.416L260.124,73.003z"/>
									<polygon fill="#D22F2F" points="3.374,70.298 -8.104,58.963 -33.507,33.48 -20.749,20.769 26.031,67.724 -20.749,20.975 
										-33.246,33.48 -15.159,51.613 									"/>
									<path fill="#D22F2F" d="M34.208,101.83c29.406,29.374,59.177,59.275,86.896,87.33
										C93.348,161.142,64.044,131.725,34.208,101.83z"/>
									<path fill="#D22F2F" d="M177.343,187.653c0.151-0.087-0.383,0.496-1.195,1.349l-2.281,2.361l-9.396,9.316l22.152,22.336
										l-8.748-8.59l-8.665-8.773l-3.461-3.521l-1.399-1.452l1.119-1.09l3.359-3.351L177.343,187.653z"/>
									<polygon fill="#D22F2F" points="252.138,81.013 251.401,81.782 244.121,89.113 243.231,89.98 									"/>
									<path fill="#D22F2F" d="M192.465,172.567c0.298-0.178,0.604-0.363,1.679-1.342l-20.136,19.998l2.14-2.221
										C180.554,184.51,187.58,177.607,192.465,172.567z"/>
									<polygon fill="#D22F2F" points="311.661,16.597 307.087,21.214 304.337,24.058 300.235,28.337 264.778,63.372 
										254.526,73.819 246.683,81.407 313.642,14.555 332.532,33.48 320.241,45.745 332.489,33.48 313.642,14.62 									"/>
									<path fill="#D22F2F" d="M-14.426,376.957c38.228-38.408,82.815-82.348,119.838-120.027
										C61.405,300.526,0.879,360.909-6.112,366.834c-6.999,5.933,59.9-59.995,94.159-94.309l-9.175,8.949
										c4.58-4.468,9.175-8.949,13.145-13.045c-9.168,8.941-26.877,26.44-32.075,31.287l7.947-8.199
										c-23.503,22.703-66.907,65.937-90.417,88.646c24.834-24.273,51.678-50.73,79.894-78.688l43.274-42.973l45.804-45.66
										l167.197,166.979l11.914-11.95l-57.005-56.875L157.329,200.68L263.321,93.216l27.51-27.585l32.234-32.15l-0.449-0.459
										l-8.975-8.919L213.584,124.885l-67.14,67.333L-20.749,24.838l-8.585,8.601l-0.042,0.042l9.631,9.792
										c3.727,3.824,6.73,6.959,8.009,8.38c1.279,1.421,0.833,1.128-2.335-1.905l-6.921-6.731l-9.684-9.535l0.667-0.686
										l5.479-5.536l3.782-3.835l45.206,44.91l47.389,47.296c-4.287-3.958-21.109-20.975-29.119-28.738
										c26.091,26.29,47.692,47.977,73.412,73.657l-51.431-51.352l81.737,81.665l59.529-59.672
										c17.145-17.171,32.678-31.652,56.549-56.279L146.444,190.38l-74.599-74.75l0.332,0.308l-80.26-80.246l24.355,24.306
										l-37.021-37.247L-31.531,33.48L30.72,95.868L-32.128,33.48l11.379-11.437l167.193,167.078l98.096-98.235
										c-15.191,14.927-32.611,32.392-49.659,49.482l-24.97,24.991l-11.668,11.603l-11.799,11.644l-3.759-3.822l3.759,3.758
										l152.238-152.01l-11.355,11.5L313.642,21.9l11.567,11.58l-56.325,56.368l-8.686,8.651l8.686-8.651l56.573-56.368
										l-11.815-11.859l-14.959,14.911l14.959-15.054l12.01,12.003l-12.896,12.858l13.093-12.858l-12.205-12.338l-6.416,6.359
										L255.804,78.86l57.838-58.12l12.875,12.74l-2.771,2.808l2.828-2.808l-12.933-13.006l-90.488,90.216l59.029-59.156
										l31.459-31.357l13.262,13.303l-53.779,53.645l3.844-3.865l-7.664,7.678l-39.717,39.659
										c-11.925,11.944-23.561,23.716-35.105,35.43l-5.896,5.903c3.676-3.78,5.432-5.64-1.79,1.528l-27.323,27.222l35.971,35.901
										c12.1,12.087,24.455,24.472,36.996,37.165c9.188,9.297,21.679,21.73,35.168,35.131c3.613,3.692,5.558,5.588,7.314,7.268
										l8.794,8.736l21.401,21.309l-21.401-21.309l-8.017-7.995c1.867,1.779,3.847,3.653,7.809,7.608L159.847,200.68l28.737-28.75
										l-9.142,9.37l15.039-15.273l49.746-49.867c-4.918,4.979-9.474,9.62-13.442,13.715l96.351-96.395l-13.494-13.469
										l-31.459,31.523L148.903,184.401c23.957-23.648,48.869-48.417,74.25-73.711l-76.709,76.821L20.455,61.306
										c12.309,11.932,29.094,28.451,36.928,35.796c-0.356-0.596-21.973-22.298-9.299-9.763
										c23.118,22.783,42.831,42.478,59.191,58.737c8.18,8.129,15.522,15.399,22.033,21.767l9.143,8.868l4.105,3.916l1.937,1.827
										l1.206,1.086c0.273,0.228,0.024-0.081-0.533-0.71l-0.223-0.25l-0.378-0.406l-1.07-1.129l-2.674-2.801l-14.534-15.114
										c-10.146-10.546-18.658-19.448-10.27-11.192l30.429,30.235l30.781-30.907l24.123-24.062c1.047-1.021,2.75-2.8,4.901-5.038
										l72.112-72.099l17.016-16.928c2.991-2.917,5.561-5.392,7.587-7.294c3.05-3.124,4.655-4.79,10.677-10.855l3.739,3.708
										l14.736,14.785l-35.115,35.007l-24.771,24.426c0.213-0.128,1.586-1.389,0.065,0.216l-55.364,55.276
										c-7.517,7.408-14.455,14.189-20.646,20.156c-3.92,4.069-8.91,9.161-14.641,14.959l-17.049,17.16l62.014,62.049
										l-0.031-0.059l48.738,48.777l7.578,7.837l10.449,10.251l36.098,36.521l1.859,1.815l-5.656,5.825
										c-1.502,1.557-3.189,3.289-4.984,5.086l-7.021,7.008l-21.854-21.843l-28.822-28.916l-96.65-97.174
										c-0.971-1.067-1.156-1.373-1.356-1.694c-5.04-4.885-11.929-11.896-16.42-16.303c0.868,0.827,1.428,1.34,1.326,1.174
										l-3.419-3.365l-5.386,5.396l-5.646,5.578l-13.253,13.068l-8.566,8.727l-4.355,4.32
										c-15.127,14.59-29.829,29.471-46.392,46.02l-49.77,49.353C-0.069,363.175-5.251,368.008-14.426,376.957z"/>
									<path fill="#D22F2F" d="M190.92,227.348l46.026,46.399C220.405,257.191,205.524,242.49,190.92,227.348z"/>
									<path fill="#D22F2F" d="M104.756,140.338c-5.974-6.199-12.769-13.154-20.162-20.657l61.85,61.898l51.482-51.458
										l0.059-0.031l-51.541,51.5l-22.492-22.416C116.388,151.674,109.791,145.187,104.756,140.338z"/>
									<polygon fill="#D22F2F" points="176.147,189.002 174.008,191.223 173.864,191.363 									"/>
									<polygon fill="#D22F2F" points="27.114,67.296 23.315,63.49 52.335,92.373 									"/>
									<polygon fill="#D22F2F" points="6.868,75.434 66.031,134.471 131.791,200.68 124.353,208.023 131.716,200.68 									"/>
									<path fill="#D22F2F" d="M29.088,64.369L4.663,39.598l24.641,24.704C27.715,62.796,28.968,64.163,29.088,64.369z"/>
									<polygon fill="#D22F2F" points="108.134,148.047 102.223,142.143 117.496,157.182 									"/>
									<path fill="#D22F2F" d="M-11.521,62.246l-18.062-18.144l10.79,10.58C-16.905,56.692-14.416,59.277-11.521,62.246z"/>
									<path fill="#D22F2F" d="M82.566,156.299l24.04,24.1l-29.1-29.025C79.758,153.542,81.537,155.245,82.566,156.299z"/>
								</g>
							</g>
						</g>
					</g>
					<g>
						<g>
							<g>
								<g>
									<path fill="#D22F2F" d="M46.955,57.32l60.68,60.465L84.884,95.114c11.369,11.329,20.906,20.952,32.38,32.623
										c-3.608-3.363-10.997-10.945-12.98-12.599C76.566,87.43,48.968,59.425,22.156,32.251
										C33.249,42.587,39.368,49.76,46.955,57.32z"/>
									<path fill="#D22F2F" d="M147.798,158.641l-8.187-8.17C142.482,153.308,145.304,156.103,147.798,158.641z"/>
									<path fill="#D22F2F" d="M122.729,112.444l9.492,9.398C129.081,118.78,125.905,115.608,122.729,112.444z"/>
									<polygon fill="#D22F2F" points="9.694,21.864 4.581,16.894 -6.26,5.973 4.379,-4.576 18.889,10.062 4.379,-4.438 -6,5.973 
										1.544,13.562 									"/>
									<path fill="#D22F2F" d="M23.128,35.995c13.006,12.974,26.128,26.226,38.287,38.719
										C49.22,62.258,36.299,49.225,23.128,35.995z"/>
									<path fill="#D22F2F" d="M218.063,60.665c-0.086,0.02,0.138-0.25,0.485-0.639c0.38-0.397,0.716-0.758,0.985-1.066
										l15.846-15.581c-1.281,1.316-2.429,2.583-3.752,3.911C225.795,53.025,224.435,54.091,218.063,60.665z"/>
									<polygon fill="#D22F2F" points="119.182,108.92 118.833,108.605 115.579,105.4 115.201,105.002 									"/>
									<path fill="#D22F2F" d="M211.37,67.323c-0.166,0.045-0.335,0.093-0.837,0.499l8.938-8.8l-0.923,1.004
										C216.625,62.035,213.485,65.052,211.37,67.323z"/>
									<path fill="#D22F2F" d="M146.365,131.212c-0.078-0.076-0.156-0.138-0.24-0.196l-0.129-0.086l-0.066-0.042l-0.019-0.013
										l-0.077-0.07l-0.152-0.139l-1.941-1.764l-15.367-15.789c-0.926-0.863-2.823-2.754-4.672-4.477l-3.282-3.539l26.024,26.132
										l0.41-0.397l2.445-2.43l5.326-5.293l-5.208,5.225l-2.976,2.96L146.365,131.212z"/>
									<path fill="#D22F2F" d="M149.61,158.163c16.848-17.026,36.736-36.266,52.916-53.103
										c-19.564,19.155-46.356,45.802-49.746,48.124c-3.391,2.325,26.451-26.543,41.578-41.724l-4.119,3.893
										c2.057-1.943,4.119-3.893,5.838-5.738c-4.114,3.889-12.001,11.564-14.396,13.608l3.442-3.694
										c-10.61,9.811-29.845,28.871-40.458,38.685c21.995-20.886,47.268-45.728,73.745-72.091l40.358-40.382l39.533-39.758
										l-9.801-9.731L275.957,8.857c-33.681,34.039-64.631,65.94-93.536,95.907c-5.495,5.634-18.896,18.962-28.505,28.486
										l-7.472,7.527l-25.274-24.992L98.307,93.364C82.2,77.475,66.428,61.703,50.488,45.71L4.379-0.558l-6.49,6.512l-0.018,0.019
										c0.045,0.046,0.078,0.095,0.119,0.163l2.575,2.691c1.621,1.718,2.912,3.141,3.438,3.809
										c0.526,0.668,0.287,0.581-1.152-0.722c-0.719-0.651-1.739-1.606-3.113-2.923l-2.333-2.253l-0.833-0.765l0.283-0.303
										l0.362-0.393l1.034-1.064L0.94,1.467l2.596-2.648l0.843-0.891l0.726,0.689l1.831,1.798l4.515,4.456l9.035,8.946
										l18.071,18.001c-1.986-1.658-9.368-9.233-12.977-12.596c11.477,11.675,21.001,21.284,32.38,32.623L35.204,29.172
										l60.681,60.465c7.598,7.57,13.704,14.729,24.799,25.069C93.875,87.536,66.27,59.524,38.556,31.819l0.154,0.129L4.623-2.12
										l4.179,4.116l5.207,5.219l-9.63-9.792l-8.663,8.55l26.561,26.696L-4.881,5.973l9.26-9.361l109.804,109.586
										C100.678,92.144,81.996,74.244,70.33,61.904l67.936,68.166l-5.123-4.979l5.971,6.095l7.331,7.391l32.906-32.935l3.85-3.814
										l-3.85,3.814l-32.906,32.656l-8.178-8.227l8.178,8.083l13.414-13.383l-5.766,5.545l-7.648,7.503l-4.051-4.107
										l-22.681-22.748l13.207,13.119l13.525,13.334l8.295-8.466l-8.295,8.2l-40.572-40.846l26.181,26.055l14.391,14.494
										l30.609-30.432l-1.693,1.714l3.385-3.396l17.57-17.512c5.266-5.284,10.371-10.525,15.426-15.75l2.604-2.611
										c-1.595,1.7-2.342,2.551,0.865-0.602c13.729-13.417,28.182-28.402,43.965-43.762c4.141-4.029,9.619-9.567,15.518-15.553
										c1.654-1.576,2.479-2.448,3.199-3.247l3.846-3.902l6.765-6.815l1.824,1.781l-1.824-1.812l-6.765,6.847L278.21,5.35
										c0.762-0.85,1.561-1.755,3.307-3.507l-67.17,67.024l3.978-4.205l-6.582,6.815l-21.954,22.074
										c2.156-2.218,4.146-4.293,5.865-6.138l-49.207,49.275l-14.392-14.328l-58.6-59.014C83.799,74,94.721,85.065,105.872,96.304
										C76.048,66.616,46.196,36.84,16.659,6.991c5.546,5.168,13.039,12.395,16.638,15.504c-0.091-0.33-9.622-9.945-3.981-4.444
										c20.623,19.952,34.872,34.8,43.829,42.411c1.745,1.38-20.363-22.014-12.873-14.791l29.16,28.838l10.618,10.679
										c0.444,0.47,1.252,1.201,2.265,2.128c12.881,12.823,25.126,25.059,31.863,31.877l7.458,7.545
										c1.269,1.342,2.336,2.505,3.143,3.435l0.953,0.899l0.253,0.206l0.461,0.382l0.207-0.238l18.386-18.228l11.045-10.7
										c-0.118,0.033-0.757,0.558-0.108-0.174l24.496-24.406c3.354-3.244,6.463-6.197,9.264-8.771
										c8.445-9.194,29.035-29.318,43.123-43.517l-0.032,0.006l21.569-21.53l3.537-3.278c1.729-1.855,3.612-3.747,4.476-4.672
										l6.096-6.012l4.894,4.969l2.842,2.923l6.964,7.143l0.851,0.806l-2.718,2.885l-2.909,3.013l-11.058,11.056l-12.808,12.712
										L231.461,78.22c-0.498,0.402-0.667,0.451-0.842,0.506c-2.117,2.271-5.25,5.281-7.175,7.29
										c0.354-0.395,0.568-0.656,0.478-0.629c-6.36,6.563-7.719,7.626-13.565,13.374c-1.308,1.312-2.471,2.595-3.741,3.901
										l-1.935,1.9c-6.836,6.298-13.285,12.926-20.609,20.235l-22.114,21.697C156.118,152.232,153.729,154.27,149.61,158.163z"/>
									<path fill="#D22F2F" d="M237.306,41.489l20.611-20.239C250.597,28.556,244.147,35.184,237.306,41.489z"/>
									<path fill="#D22F2F" d="M55.391,40.45c-2.578-2.803-5.537-5.921-8.774-9.268l52.282,52.355l0.006,0.034
										C84.712,69.488,64.585,48.896,55.391,40.45z"/>
									<path fill="#D22F2F" d="M218.55,60.026l0.924-1.004l0.062-0.062C219.265,59.268,218.929,59.629,218.55,60.026z"/>
									<path fill="#D22F2F" d="M19.789,9.452l-1.677-1.684l12.865,12.727C27.52,17.131,23.705,13.35,19.789,9.452z"/>
									<path fill="#D22F2F" d="M10.78,24.592L36.965,50.65c11.153,11.242,22.078,22.311,32.417,32.96L10.78,24.592z"/>
									<path fill="#D22F2F" d="M22.03,6.79L11.33-4.254L22.204,6.682C21.478,6.04,22,6.675,22.03,6.79z"/>
									<polygon fill="#D22F2F" points="55.675,45.066 53.061,42.458 59.877,49.04 									"/>
									<path fill="#D22F2F" d="M1.202,20.214l-7.96-8.042l4.828,4.617C-1.131,17.712-0.057,18.881,1.202,20.214z"/>
									<path fill="#D22F2F" d="M42.797,61.774l10.608,10.669L40.522,59.636C41.542,60.57,42.349,61.301,42.797,61.774z"/>
								</g>
							</g>
						</g>
					</g>
					<g>
						<g>
							<g>
								<g>
									<path fill="#D22F2F" d="M61.636,28.185l51.883,51.667L94.066,60.48c9.721,9.68,17.866,17.912,27.659,27.902
										c-3.102-2.857-9.403-9.351-11.122-10.741C86.911,53.958,63.35,29.991,40.458,6.738
										C49.995,15.518,55.149,21.725,61.636,28.185z"/>
									<path fill="#D22F2F" d="M147.798,114.823l-6.999-6.982C143.256,110.264,145.669,112.651,147.798,114.823z"/>
									<path fill="#D22F2F" d="M128.304,77.51l8.12,8.026C133.734,82.925,131.02,80.214,128.304,77.51z"/>
									<polygon fill="#D22F2F" points="29.656,-1.99 25.275,-6.228 17.17,-14.403 26.167,-23.309 39.442,-9.896 26.167,-23.156 
										17.438,-14.403 23.226,-8.565 									"/>
									<path fill="#D22F2F" d="M41.088,10.139c11.12,11.087,22.327,22.424,32.694,33.126C63.378,32.6,52.342,21.452,41.088,10.139
										z"/>
									<path fill="#D22F2F" d="M209.521,29.026c-0.076,0.013,0.109-0.223,0.403-0.558c0.323-0.34,0.608-0.651,0.839-0.917
										l13.561-13.298c-1.092,1.127-2.062,2.219-3.194,3.354C216.138,22.503,214.952,23.393,209.521,29.026z"/>
									<polygon fill="#D22F2F" points="125.271,74.5 124.97,74.233 122.185,71.497 121.863,71.156 									"/>
									<path fill="#D22F2F" d="M203.797,34.714c-0.149,0.03-0.304,0.062-0.739,0.402l7.65-7.512l-0.783,0.864
										C208.286,30.192,205.595,32.762,203.797,34.714z"/>
									<path fill="#D22F2F" d="M146.864,90.689c-0.088,0.092-0.17,0.203-0.256,0.33c-0.166-0.085-0.365-0.164-0.495-0.252
										l-0.079-0.094l-0.039-0.046l-0.171-0.179l-0.771-0.801l-1.55-1.609l-3.164-3.279l-6.85-7.037
										c-0.795-0.733-2.418-2.349-4.007-3.812l-2.786-3.044l19.912,20.008l0.424-0.406l2.643-2.625l5.555-5.513L146.864,90.689z"
										/>
									<path fill="#D22F2F" d="M149.248,114.708c14.388-14.566,31.435-30.964,45.216-45.404
										c-16.753,16.343-39.664,39.11-42.637,41.017c-2.977,1.909,22.602-22.695,35.525-35.675l-3.535,3.311
										c1.765-1.652,3.535-3.311,4.996-4.897c-3.533,3.308-10.291,9.853-12.362,11.575l2.924-3.176
										c-9.128,8.328-25.58,24.607-34.71,32.938c19.027-17.91,40.85-39.304,63.68-62.025l34.778-34.808l33.867-34.098
										l-7.974-7.906l-9.57,9.625c-28.762,29.122-55.147,56.458-79.776,82.149c-4.687,4.826-16.146,16.213-24.366,24.348
										l-8.695,8.776L125.626,79.75l-18.583-18.16C93.102,47.869,79.47,34.235,65.69,20.4L26.168-19.28l-4.788,4.808
										c-0.021,0.023-0.047,0.045-0.079,0.07c0.026,0.038,0.046,0.083,0.071,0.141l0.02,0.046l0.005,0.013l0.121,0.128
										l0.248,0.263l0.938,1.006c1.185,1.283,2.086,2.309,2.416,2.77s0.088,0.358-1.011-0.615
										c-0.55-0.486-1.314-1.191-2.329-2.151l-0.808-0.769l-0.106-0.101l-0.03-0.025l-0.061-0.052l-0.129-0.111l-0.61-0.543
										l0.513-0.558l0.137-0.151l0.255-0.269l1.024-1.051l2.051-2.103l1.027-1.051l0.33-0.341l0.154-0.166l0.639-0.683L26.8-20.18
										l1.386,1.351l3.988,3.924l7.977,7.883l15.95,15.875c-1.722-1.393-8.017-7.882-11.12-10.739
										c9.795,9.994,17.93,18.213,27.659,27.902L53.185,6.641l51.882,51.667c6.496,6.468,11.639,12.665,21.178,21.447
										C103.355,56.506,79.79,32.533,56.101,8.853l0.133,0.108L26.738-20.516l3.935,3.872l4.449,4.462l-8.955-9.132l-7.021,6.911
										L40.54,7.118L18.571-14.403l7.596-7.701L48.985,0.614l24.218,24.225c16.117,16.131,32.116,32.138,47.629,47.499
										C109.33,60.286,93.304,45.042,83.381,34.445l58.051,58.282l-4.389-4.246c2.848,2.936,4.978,5.118,9.565,9.733
										l30.277-30.291l3.291-3.258l-3.291,3.258l-30.277,30.011l-5.176-5.208l5.176,5.099l6.99-7.02l6.601-6.558
										c-1.675,1.568-3.677,3.492-5.853,5.604l-7.738,7.579l-1-1.015l-19.995-20.062l10.264,10.188l10.731,10.569l9.146-9.36
										l-9.146,9.029l-32.765-33.016l22.387,22.262l10.378,10.463l28.203-28.011l-1.445,1.467l2.892-2.905l15.022-14.964
										c4.5-4.518,8.854-9.007,13.162-13.486l2.226-2.232c-1.356,1.46-1.987,2.196,0.759-0.495
										c11.756-11.446,24.072-24.292,37.594-37.391c3.547-3.436,8.227-8.173,13.262-13.296c1.419-1.341,2.119-2.09,2.73-2.779
										l3.282-3.34l4.722-4.758l2.389,2.33l-2.389-2.367l-4.722,4.795l-3.015,3.035c0.645-0.733,1.32-1.514,2.812-3.013
										L206.668,36.36l3.384-3.61l-5.609,5.843l-18.756,18.876c1.838-1.9,3.533-3.68,4.994-5.267l-44.072,44.149L136.23,86.028
										L86.174,35.555c8.82,9.13,18.146,18.599,27.67,28.211C88.342,38.4,62.821,12.954,37.597-12.582
										c4.768,4.39,11.192,10.548,14.304,13.17c-0.06-0.3-8.201-8.524-3.369-3.833c17.676,17.005,29.812,29.74,37.565,36.148
										c1.518,1.153-17.285-18.937-10.864-12.782l24.947,24.626l9.071,9.132c0.378,0.403,1.074,1.023,1.946,1.81
										c11.014,10.956,21.48,21.414,27.233,27.248l6.368,6.456l0.776,0.835l0.362,0.395c0.06,0.071,0.055,0.078,0.085,0.12
										l0.257,0.422l0.331,0.249l0.619-0.749l16.934-16.776l9.466-9.121c-0.106,0.022-0.662,0.463-0.112-0.169l20.942-20.855
										c2.874-2.765,5.545-5.277,7.954-7.461c7.164-7.914,24.797-25.081,36.832-37.225l-0.031,0.003l18.439-18.4l3.041-2.783
										l2.183-2.304l1.864-1.939l4.277-4.219l4.443,4.518l2.65,2.733l6.615,6.797l-1.064,1.04
										c-1.047,1.109-3.821,4.129-5.035,5.35l-9.45,9.45l-10.954,10.859l-36.875,36.35c-0.434,0.337-0.586,0.37-0.744,0.408
										c-1.797,1.952-4.484,4.517-6.123,6.24c0.301-0.34,0.479-0.567,0.396-0.548c-5.423,5.624-6.604,6.512-11.609,11.417
										c-1.115,1.121-2.102,2.227-3.187,3.346L196.425,69c-5.883,5.345-11.381,11.022-17.645,17.269l-18.932,18.515
										C154.853,109.681,152.785,111.397,149.248,114.708z"/>
									<path fill="#D22F2F" d="M225.974,12.64l17.646-17.271C237.358,1.611,231.86,7.29,225.974,12.64z"/>
									<path fill="#D22F2F" d="M71.086,15.635c-2.187-2.412-4.704-5.089-7.463-7.958l44.683,44.756l0.003,0.031
										C96.169,40.435,79,22.799,71.086,15.635z"/>
									<path fill="#D22F2F" d="M209.925,28.469l0.783-0.864l0.055-0.053C210.533,27.817,210.248,28.128,209.925,28.469z"/>
									<path fill="#D22F2F" d="M40.321-10.527l-1.433-1.44L49.895-1.099C46.933-3.967,43.669-7.197,40.321-10.527z"/>
									<path fill="#D22F2F" d="M30.466,0.461l22.391,22.264c9.526,9.616,18.855,19.087,27.67,28.211L30.466,0.461z"/>
									<path fill="#D22F2F" d="M42.592-13.158l-9.12-9.466l9.29,9.353C42.135-13.814,42.573-13.263,42.592-13.158z"/>
									<polygon fill="#D22F2F" points="71.015,19.895 68.779,17.666 74.623,23.274 									"/>
									<path fill="#D22F2F" d="M21.9-2.903l-7.678-7.76l1.912,1.872l1.033,0.984l2.078,1.955C19.919-5.054,20.83-4.047,21.9-2.903
										z"/>
									<path fill="#D22F2F" d="M57.457,32.618l9.063,9.124L55.502,30.8C56.38,31.592,57.076,32.212,57.457,32.618z"/>
								</g>
							</g>
						</g>
					</g>
					<g>
						<g>
							<g>
								<g>
									<path fill="#D22F2F" d="M4.63,299.223l60.465-60.681l-22.67,22.752c11.329-11.37,20.951-20.905,32.623-32.381
										c-3.363,3.608-10.945,10.997-12.599,12.979c-27.709,27.719-55.715,55.317-82.888,82.13
										C-10.103,312.93-2.93,306.811,4.63,299.223z"/>
									<path fill="#D22F2F" d="M105.95,198.379l-8.17,8.188C100.617,203.693,103.413,200.873,105.95,198.379z"/>
									<path fill="#D22F2F" d="M59.753,223.451l9.398-9.492C66.089,217.1,62.917,220.273,59.753,223.451z"/>
									<polygon fill="#D22F2F" points="-30.826,336.484 -35.796,341.598 -46.716,352.438 -57.269,341.799 -42.631,327.29 
										-57.13,341.799 -46.716,352.177 -39.128,344.634 									"/>
									<path fill="#D22F2F" d="M-16.695,323.05c12.974-13.006,26.226-26.128,38.719-38.286
										C9.567,296.958-3.465,309.879-16.695,323.05z"/>
									<path fill="#D22F2F" d="M7.974,128.116c0.021,0.084-0.25-0.138-0.639-0.486c-0.397-0.379-0.758-0.715-1.066-0.986
										l-15.58-15.846c1.316,1.282,2.583,2.429,3.911,3.751C0.334,120.384,1.4,121.745,7.974,128.116z"/>
									<polygon fill="#D22F2F" points="56.229,226.997 55.914,227.348 52.709,230.602 52.311,230.979 									"/>
									<path fill="#D22F2F" d="M14.631,134.81c0.045,0.166,0.093,0.334,0.499,0.836l-8.8-8.939l1.004,0.923
										C9.344,129.554,12.36,132.694,14.631,134.81z"/>
									<path fill="#D22F2F" d="M78.521,199.814c-0.076,0.078-0.138,0.155-0.196,0.24l-0.086,0.129l-0.042,0.065l-0.013,0.019
										l-0.07,0.077l-0.139,0.152l-1.763,1.94l-15.79,15.366c-0.863,0.927-2.754,2.823-4.477,4.673l-3.539,3.281l26.133-26.023
										l-0.397-0.411l-2.43-2.445l-5.293-5.327l5.225,5.208l2.96,2.976L78.521,199.814z"/>
									<path fill="#D22F2F" d="M105.472,196.564c-17.026-16.847-36.266-36.734-53.103-52.915
										c19.155,19.564,45.803,46.357,48.124,49.745c2.325,3.392-26.543-26.449-41.724-41.576l3.893,4.118
										c-1.943-2.056-3.893-4.118-5.738-5.838c3.889,4.115,11.564,12.002,13.608,14.397l-3.694-3.442
										c9.811,10.611,28.871,29.845,38.686,40.458c-20.886-21.995-45.728-47.267-72.091-73.744L-6.95,87.409l-39.758-39.531
										l-9.733,9.799l12.606,12.545c34.04,33.68,65.94,64.631,95.908,93.537c5.634,5.495,18.962,18.896,28.486,28.505l7.527,7.473
										L63.094,225.01l-22.422,22.862c-15.889,16.106-31.661,31.879-47.654,47.817l-46.267,46.107l6.515,6.491l0.019,0.019
										c0.046-0.046,0.095-0.078,0.163-0.117l2.691-2.575c1.718-1.621,3.141-2.912,3.808-3.438
										c0.668-0.525,0.581-0.287-0.722,1.152c-0.651,0.719-1.606,1.738-2.923,3.112l-2.252,2.333l-0.765,0.833l-0.303-0.283
										l-0.393-0.362l-1.065-1.035l-2.746-2.688l-2.649-2.597l-0.891-0.843l0.689-0.726l1.797-1.831l4.456-4.516l8.946-9.033
										l18-18.07c-1.657,1.986-9.232,9.367-12.596,12.977c11.675-11.477,21.285-21,32.624-32.38l-22.674,22.755l60.465-60.68
										c7.57-7.599,14.73-13.704,25.069-24.8c-27.17,26.809-55.183,54.413-82.888,82.128l0.129-0.153l-34.068,34.086l4.115-4.179
										l5.22-5.206l-9.792,9.628l8.553,8.663l26.696-26.561l-26.696,27.157l-9.364-9.261L53.506,231.996
										c-14.054,13.505-31.954,32.188-44.295,43.854l68.167-67.936l-4.98,5.123l6.095-5.971l7.391-7.332l-32.935-32.906
										l-3.814-3.848l3.814,3.848l32.656,32.906l-8.227,8.18l8.083-8.18L72.078,186.32l5.545,5.766l7.503,7.648l-4.107,4.053
										l-22.748,22.681l13.119-13.206l13.334-13.525l-8.466-8.295l8.201,8.295l-40.847,40.572l26.056-26.182l14.494-14.393
										L53.73,169.126l1.714,1.693l-3.397-3.384l-17.512-17.571c-5.284-5.266-10.525-10.371-15.75-15.426l-2.611-2.605
										c1.7,1.596,2.551,2.343-0.602-0.865C2.155,117.241-12.83,102.786-28.19,87.003c-4.029-4.14-9.567-9.619-15.553-15.518
										c-1.576-1.654-2.448-2.478-3.247-3.199l-3.902-3.845l-6.816-6.766l1.78-1.823l-1.811,1.823l6.848,6.766l3.549,3.528
										c-0.85-0.762-1.755-1.56-3.508-3.307l67.024,67.17l-4.204-3.978l6.815,6.583l22.074,21.954
										c-2.217-2.157-4.292-4.146-6.138-5.866l49.275,49.208l-14.328,14.393l-59.015,58.6
										c10.655-10.347,21.721-21.269,32.959-32.418c-29.688,29.822-59.464,59.676-89.314,89.211
										c5.168-5.546,12.396-13.038,15.505-16.638c-0.33,0.091-9.945,9.621-4.444,3.98c19.952-20.622,34.8-34.872,42.412-43.828
										c1.38-1.744-22.015,20.362-14.791,12.873l28.839-29.16l10.679-10.617c0.47-0.444,1.202-1.252,2.129-2.266
										C47.45,230.98,59.686,218.737,66.504,212l7.545-7.457c1.342-1.27,2.505-2.336,3.435-3.143l0.899-0.953l0.206-0.254
										l0.382-0.461l-0.238-0.207L60.505,181.14l-10.699-11.044c0.033,0.118,0.558,0.757-0.174,0.108L25.225,145.71
										c-3.244-3.353-6.197-6.464-8.771-9.264C7.259,128-12.864,107.411-27.064,93.321l0.006,0.034l-21.53-21.57l-3.278-3.536
										c-1.855-1.729-3.747-3.613-4.673-4.476l-6.013-6.097l4.97-4.893l2.924-2.84l7.142-6.961l0.808-0.852l2.884,2.715
										l3.012,2.91l11.056,11.056l12.712,12.808l42.571,43.097c0.403,0.499,0.451,0.667,0.506,0.842
										c2.271,2.117,5.281,5.25,7.291,7.173c-0.395-0.355-0.656-0.567-0.629-0.476c6.563,6.361,7.626,7.718,13.374,13.566
										c1.312,1.307,2.595,2.47,3.901,3.742l1.9,1.934c6.298,6.836,12.926,13.284,20.235,20.609l21.696,22.114
										C99.542,190.059,101.58,192.447,105.472,196.564z"/>
									<path fill="#D22F2F" d="M-11.203,108.874l-20.239-20.612C-24.135,95.583-17.507,102.031-11.203,108.874z"/>
									<path fill="#D22F2F" d="M-12.242,290.788c-2.803,2.577-5.921,5.536-9.268,8.772l52.355-52.281l0.034-0.006
										C16.796,261.467-3.796,281.594-12.242,290.788z"/>
									<path fill="#D22F2F" d="M7.335,127.63l-1.004-0.923l-0.062-0.063C6.577,126.915,6.938,127.25,7.335,127.63z"/>
									<path fill="#D22F2F" d="M-43.241,326.39l-1.684,1.678l12.727-12.865C-35.562,318.659-39.343,322.474-43.241,326.39z"/>
									<path fill="#D22F2F" d="M-28.098,335.397l26.058-26.186c11.242-11.153,22.311-22.079,32.959-32.418L-28.098,335.397z"/>
									<path fill="#D22F2F" d="M-45.903,324.149l-11.044,10.698l10.936-10.874C-46.653,324.7-46.018,324.179-45.903,324.149z"/>
									<polygon fill="#D22F2F" points="-7.626,290.504 -10.234,293.118 -3.652,286.302 									"/>
									<path fill="#D22F2F" d="M-32.476,344.977l-8.042,7.96l4.617-4.826C-34.978,347.31-33.809,346.235-32.476,344.977z"/>
									<path fill="#D22F2F" d="M9.084,303.381l10.669-10.607L6.946,305.656C7.88,304.637,8.611,303.829,9.084,303.381z"/>
								</g>
							</g>
						</g>
					</g>
					<g>
						<g>
							<g>
								<g>
									<path fill="#D22F2F" d="M-24.506,284.541l51.668-51.881L7.789,252.111c9.681-9.721,17.912-17.865,27.903-27.657
										c-2.857,3.103-9.352,9.401-10.742,11.122c-23.684,23.691-47.651,47.251-70.904,70.143
										C-37.174,296.184-30.966,291.027-24.506,284.541z"/>
									<path fill="#D22F2F" d="M62.134,198.382l-6.982,6.999C57.574,202.924,59.962,200.511,62.134,198.382z"/>
									<path fill="#D22F2F" d="M24.821,217.872l8.026-8.12C30.235,212.441,27.525,215.156,24.821,217.872z"/>
									<polygon fill="#D22F2F" points="-54.682,316.521 -58.92,320.901 -67.096,329.007 -76,320.011 -62.585,306.734 
										-75.847,320.011 -67.096,328.738 -61.257,322.95 									"/>
									<path fill="#D22F2F" d="M-42.553,305.089c11.087-11.118,22.424-22.325,33.127-32.692
										C-20.092,282.8-31.24,293.835-42.553,305.089z"/>
									<path fill="#D22F2F" d="M-23.669,136.655c0.013,0.077-0.222-0.11-0.557-0.404c-0.34-0.323-0.651-0.608-0.917-0.837
										l-13.298-13.563c1.127,1.093,2.219,2.064,3.354,3.195C-30.192,130.04-29.302,131.225-23.669,136.655z"/>
									<polygon fill="#D22F2F" points="21.811,220.904 21.544,221.206 18.808,223.991 18.466,224.312 									"/>
									<path fill="#D22F2F" d="M-17.98,142.379c0.03,0.15,0.062,0.303,0.402,0.739l-7.512-7.651l0.864,0.783
										C-22.503,137.89-19.933,140.582-17.98,142.379z"/>
									<path fill="#D22F2F" d="M37.997,199.312c0.092,0.09,0.203,0.17,0.331,0.258c-0.085,0.164-0.164,0.363-0.252,0.494
										l-0.094,0.078l-0.046,0.039l-0.177,0.17l-0.801,0.771l-1.609,1.55l-3.278,3.164l-7.038,6.85
										c-0.733,0.797-2.349,2.418-3.812,4.008l-3.043,2.787l20.005-19.91l-0.407-0.422l-2.625-2.645l-5.515-5.554L37.997,199.312z
										"/>
									<path fill="#D22F2F" d="M62.019,196.932c-14.566-14.387-30.964-31.434-45.404-45.216
										c16.343,16.753,39.11,39.664,41.017,42.638c1.909,2.976-22.695-22.602-35.675-35.527l3.311,3.537
										c-1.652-1.765-3.311-3.537-4.897-4.997c3.308,3.534,9.853,10.29,11.575,12.363l-3.176-2.924
										c8.328,9.128,24.607,25.58,32.938,34.71c-17.91-19.026-39.304-40.85-62.025-63.68l-34.809-34.779l-34.098-33.868
										l-7.909,7.973l9.623,9.568c29.122,28.761,56.458,55.147,82.15,79.777c4.826,4.687,16.213,16.146,24.348,24.366l8.778,8.697
										l-20.708,20.982L8.9,239.134c-13.721,13.941-27.356,27.574-41.191,41.354l-39.681,39.522l4.807,4.787
										c0.023,0.021,0.045,0.046,0.069,0.078c0.039-0.025,0.083-0.045,0.141-0.071l0.047-0.02l0.012-0.006l0.128-0.12l0.263-0.248
										l1.006-0.938c1.283-1.185,2.308-2.086,2.77-2.416s0.358-0.088-0.615,1.012c-0.487,0.55-1.191,1.313-2.151,2.329
										l-0.769,0.809l-0.102,0.104l-0.025,0.029l-0.052,0.062l-0.111,0.129l-0.543,0.609l-0.558-0.513l-0.151-0.138l-0.269-0.255
										l-1.051-1.024l-2.102-2.051l-1.051-1.027l-0.341-0.329l-0.166-0.153l-0.683-0.64l0.595-0.634l1.351-1.387l3.925-3.987
										l7.884-7.978l15.875-15.949c-1.393,1.722-7.882,8.017-10.739,11.119c9.994-9.795,18.213-17.93,27.902-27.659
										l-19.375,19.456l51.667-51.883c6.468-6.495,12.665-11.639,21.448-21.178c-23.25,22.889-47.223,46.453-70.903,70.145
										l0.108-0.135l-29.478,29.498l3.873-3.938l4.462-4.449l-9.134,8.957l6.909,7.021l21.521-21.395l-21.521,21.97l-7.699-7.596
										l22.719-22.818l24.225-24.219c16.131-16.117,32.138-32.115,47.5-47.63c-12.052,11.503-27.295,27.528-37.893,37.451
										l58.282-58.052l-4.246,4.39c2.935-2.847,5.117-4.978,9.73-9.562l-30.29-30.28l-3.258-3.292l3.258,3.292l30.014,30.28
										l-5.205,5.174l5.097-5.174l-7.021-6.991l-6.56-6.602c1.568,1.675,3.493,3.678,5.606,5.854l7.581,7.739l-1.011,0.996
										l-20.063,19.996L33.854,210.3l10.568-10.729l-9.363-9.147l9.032,9.147l-33.014,32.764l22.262-22.389L43.8,199.57
										l-28.014-28.205l1.467,1.445l-2.905-2.892l-14.964-15.022c-4.518-4.5-9.007-8.853-13.486-13.162l-2.232-2.226
										c1.46,1.356,2.196,1.987-0.495-0.758c-11.446-11.755-24.293-24.072-37.391-37.593c-3.436-3.546-8.174-8.226-13.296-13.261
										c-1.341-1.419-2.091-2.12-2.779-2.73l-3.34-3.283l-4.755-4.72l2.331-2.39l-2.368,2.39l4.792,4.72l3.036,3.014
										c-0.733-0.645-1.514-1.319-3.013-2.812l57.279,57.424l-3.61-3.383l5.843,5.609L4.774,160.49
										c-1.9-1.839-3.68-3.533-5.266-4.994L43.66,199.57l-10.321,10.375l-50.473,50.058c9.13-8.821,18.599-18.146,28.211-27.67
										c-25.365,25.501-50.812,51.022-76.348,76.246c4.39-4.769,10.548-11.19,13.17-14.304c-0.3,0.061-8.524,8.199-3.833,3.369
										c17.006-17.677,29.74-29.812,36.149-37.565c1.153-1.519-18.937,17.284-12.782,10.862l24.626-24.946l9.132-9.071
										c0.404-0.378,1.023-1.072,1.81-1.945c10.956-11.015,21.414-21.479,27.248-27.232l6.456-6.368l0.835-0.774l0.395-0.362
										c0.067-0.056,0.077-0.054,0.118-0.083l0.422-0.258l0.248-0.328l-0.749-0.619l-16.778-16.937l-9.121-9.465
										c0.022,0.107,0.463,0.662-0.169,0.113l-20.855-20.943c-2.765-2.874-5.277-5.545-7.461-7.954
										c-7.914-7.165-25.081-24.797-37.226-36.832l0.003,0.031l-18.4-18.44l-2.783-3.041l-2.304-2.182l-1.941-1.866l-4.216-4.274
										l4.52-4.445l2.734-2.649l6.798-6.615l1.042,1.066c1.11,1.047,4.128,3.82,5.349,5.034l9.451,9.45l10.859,10.954
										l36.35,36.875c0.337,0.433,0.37,0.586,0.408,0.744c1.952,1.798,4.516,4.484,6.24,6.123c-0.341-0.3-0.567-0.479-0.548-0.396
										c5.624,5.423,6.511,6.604,11.417,11.609c1.121,1.117,2.227,2.102,3.346,3.187l1.622,1.656
										c5.345,5.882,11.022,11.381,17.269,17.643l18.515,18.932C56.991,191.328,58.708,193.395,62.019,196.932z"/>
									<path fill="#D22F2F" d="M-40.055,120.204l-17.272-17.646C-51.083,108.818-45.405,114.316-40.055,120.204z"/>
									<path fill="#D22F2F" d="M-37.054,275.09c-2.412,2.188-5.089,4.705-7.958,7.465l44.756-44.684l0.031-0.003
										C-12.254,250.007-29.89,267.177-37.054,275.09z"/>
									<path fill="#D22F2F" d="M-24.226,136.251l-0.864-0.783l-0.053-0.054C-24.877,135.643-24.566,135.928-24.226,136.251z"/>
									<path fill="#D22F2F" d="M-63.216,305.855l-1.44,1.433l10.869-11.007C-56.656,299.244-59.886,302.507-63.216,305.855z"/>
									<path fill="#D22F2F" d="M-52.231,315.711l22.264-22.391c9.616-9.525,19.088-18.854,28.212-27.668L-52.231,315.711z"/>
									<path fill="#D22F2F" d="M-65.848,303.584l-9.465,9.12l9.352-9.29C-66.503,304.041-65.952,303.603-65.848,303.584z"/>
									<polygon fill="#D22F2F" points="-32.794,275.162 -35.023,277.396 -29.415,271.555 									"/>
									<path fill="#D22F2F" d="M-55.595,324.276l-7.76,7.678l1.871-1.912l0.985-1.032l1.955-2.077
										C-57.746,326.258-56.74,325.348-55.595,324.276z"/>
									<path fill="#D22F2F" d="M-20.073,288.721l9.124-9.062l-10.942,11.017C-21.1,289.798-20.48,289.102-20.073,288.721z"/>
								</g>
							</g>
						</g>
					</g>
					<g>
						<g>
							<g>
								<g>
									<path fill="#D22F2F" d="M288.415,99.333l-60.553,60.769l22.703-22.785c-11.346,11.386-20.981,20.937-32.67,32.427
										c3.369-3.613,10.961-11.013,12.617-12.999c27.748-27.758,55.795-55.396,83.008-82.248
										C303.169,85.606,295.985,91.735,288.415,99.333z"/>
									<path fill="#D22F2F" d="M186.948,200.323l8.183-8.199C192.289,195,189.489,197.826,186.948,200.323z"/>
									<path fill="#D22F2F" d="M232.786,175.68l-9.412,9.505C226.44,182.041,229.617,178.861,232.786,175.68z"/>
									<polygon fill="#D22F2F" points="323.924,62.02 328.901,56.899 339.606,46.271 350.194,56.948 335.319,71.692 
										350.054,56.948 339.606,46.534 332.123,53.971 									"/>
									<path fill="#D22F2F" d="M309.772,75.474c-12.992,13.025-26.265,26.167-38.774,38.342
										C283.474,101.603,296.524,88.664,309.772,75.474z"/>
									<path fill="#D22F2F" d="M285.487,271.154c-0.021-0.084,0.25,0.139,0.641,0.486c0.396,0.381,0.76,0.717,1.066,0.987
										l15.604,15.868c-1.317-1.284-2.587-2.434-3.917-3.757C293.14,278.896,292.071,277.535,285.487,271.154z"/>
									<polygon fill="#D22F2F" points="236.315,172.128 236.631,171.778 239.841,168.52 240.239,168.141 									"/>
									<path fill="#D22F2F" d="M278.819,264.451c-0.045-0.165-0.092-0.335-0.5-0.838l8.813,8.951l-1.006-0.924
										C284.116,269.715,281.095,266.57,278.819,264.451z"/>
									<path fill="#D22F2F" d="M214.339,198.995c0.15-0.154,0.247-0.313,0.355-0.494c-0.037,0.021,0.209-0.244,0.365-0.417
										l0.471-0.523l0.77-0.843l15.812-15.389c0.863-0.927,2.758-2.828,4.482-4.679l3.545-3.287l-25.748,25.64l0.414,0.427
										l2.631,2.646l5.516,5.55l-5.439-5.423l-2.727-2.729l-0.457-0.472L214.339,198.995z"/>
									<path fill="#D22F2F" d="M187.431,202.141c17.051,16.871,36.318,36.787,53.18,52.991
										c-19.184-19.593-45.869-46.424-48.194-49.815c-2.329-3.395,26.582,26.488,41.784,41.638l-3.898-4.124
										c1.946,2.059,3.898,4.124,5.747,5.846c-3.896-4.119-11.582-12.019-13.63-14.417l3.699,3.447
										c-9.825-10.626-28.913-29.886-38.742-40.515c20.945,22.056,45.866,47.406,72.311,73.961l40.502,40.479l39.873,39.646
										l9.729-9.795l-12.414-12.354c-34.089-33.729-66.035-64.725-96.045-93.672c-5.644-5.503-18.99-18.924-28.528-28.547
										l-7.964-7.904l24.813-25.095l22.246-22.682c15.945-16.164,31.773-31.992,47.826-47.989l46.449-46.29l-6.537-6.515
										l-0.031-0.03c-0.045,0.043-0.094,0.075-0.162,0.114l-2.604,2.485c-1.679,1.581-3.06,2.831-3.7,3.332
										c-0.642,0.501-0.543,0.254,0.733-1.157c0.638-0.706,1.571-1.703,2.854-3.042l2.141-2.221l0.738-0.806l0.367,0.345
										l0.389,0.356l1.188,1.16l2.696,2.64l2.563,2.512l0.873,0.827l-0.691,0.729l-1.824,1.858l-4.488,4.548l-9.013,9.102
										l-18.134,18.204c1.658-1.989,9.246-9.381,12.613-12.995c-11.691,11.493-21.314,21.031-32.67,32.426l22.707-22.788
										L255.63,148.8c-7.58,7.608-14.75,13.724-25.105,24.835c27.211-26.848,55.264-54.493,83.01-82.247l-0.131,0.154
										l34.256-34.272l-4.26,4.321l-5.228,5.214l10.024-9.858l-8.59-8.701l-26.506,26.372l26.506-26.964l9.396,9.293
										l-109.96,110.176c14.073-13.524,32-32.233,44.358-43.917l-68.266,68.034l4.986-5.13l-5.893,5.771l-7.185,7.123
										l33.403,33.377l3.82,3.854l-3.82-3.854l-33.123-33.377l7.809-7.764l-7.671,7.764l13.828,13.857l-5.742-5.969l-7.741-7.889
										l3.657-3.609l22.804-22.735l-12.918,13.002l-13.156,13.342l8.91,8.729l-8.631-8.729l40.475-40.206l-26.094,26.219
										l-14.086,13.987l30.897,31.078l-1.717-1.695l3.401,3.39l17.539,17.596c5.291,5.273,10.539,10.386,15.771,15.447
										l2.615,2.608c-1.702-1.598-2.555-2.346,0.603,0.866c13.437,13.746,28.442,28.223,43.826,44.028
										c4.034,4.146,9.581,9.633,15.575,15.54c1.578,1.655,2.451,2.48,3.252,3.203l3.908,3.852l6.611,6.564l-1.957,2.003
										l1.99-2.003l-6.646-6.564l-3.555-3.533c0.852,0.764,1.758,1.562,3.514,3.312l-67.123-67.269l4.211,3.983l-6.825-6.592
										l-22.104-21.985c2.221,2.159,4.299,4.151,6.146,5.874l-49.772-49.704l13.924-13.987l59.102-58.684
										c-10.67,10.361-21.752,21.299-33.008,32.465c29.73-29.866,59.552-59.761,89.443-89.34
										c-5.176,5.553-12.412,13.057-15.527,16.661c0.33-0.091,9.959-9.636,4.451-3.987
										c-19.982,20.652-34.853,34.922-42.476,43.891c-1.383,1.747,22.045-20.393,14.812-12.893l-28.881,29.201l-10.695,10.633
										c-0.471,0.445-1.202,1.254-2.131,2.268c-12.842,12.899-25.096,25.161-31.924,31.908l-7.558,7.468
										c-1.344,1.271-2.508,2.339-3.438,3.146l-0.408,0.432c-0.09,0.095-0.092,0.102-0.106,0.119l-0.047,0.06l-0.183,0.225
										l-0.34,0.413l0.35,0.303l18.588,18.745l10.716,11.062c-0.032-0.119-0.56-0.76,0.175-0.108l24.441,24.53
										c3.248,3.357,6.205,6.474,8.783,9.275c9.208,8.459,29.361,29.078,43.58,43.188l-0.006-0.033l21.562,21.603l3.283,3.541
										c1.857,1.73,3.752,3.617,4.679,4.481l5.813,5.893l-5.037,4.959l-2.982,2.896l-7.393,7.207l-0.436,0.458l-2.982-2.807
										l-1.879-1.798l-1.271-1.235l-11.071-11.072l-12.731-12.825l-42.634-43.158c-0.402-0.5-0.451-0.668-0.506-0.844
										c-2.274-2.119-5.289-5.257-7.301-7.184c0.396,0.354,0.655,0.568,0.629,0.477c-6.572-6.371-7.638-7.729-13.395-13.586
										c-1.312-1.308-2.598-2.473-3.906-3.746l-1.902-1.938c-6.309-6.846-12.945-13.303-20.266-20.639L199.112,214.5
										C193.37,208.656,191.328,206.266,187.431,202.141z"/>
									<path fill="#D22F2F" d="M304.692,290.424l20.269,20.643C317.646,303.733,311.007,297.275,304.692,290.424z"/>
									<path fill="#D22F2F" d="M304.882,108.243c2.809-2.582,5.93-5.545,9.281-8.787l-52.432,52.357l-0.033,0.006
										C275.802,137.606,296.424,117.45,304.882,108.243z"/>
									<path fill="#D22F2F" d="M286.128,271.643l1.006,0.924l0.062,0.062C286.888,272.357,286.524,272.021,286.128,271.643z"/>
									<path fill="#D22F2F" d="M335.931,72.593l1.688-1.679l-12.746,12.883C328.239,80.334,332.026,76.514,335.931,72.593z"/>
									<path fill="#D22F2F" d="M321.192,63.108l-26.096,26.223c-11.259,11.169-22.344,22.11-33.008,32.465L321.192,63.108z"/>
									<path fill="#D22F2F" d="M338.593,74.833l11.061-10.715L338.7,75.007C339.345,74.28,338.707,74.803,338.593,74.833z"/>
									<polygon fill="#D22F2F" points="300.263,108.53 302.875,105.912 296.283,112.738 									"/>
									<path fill="#D22F2F" d="M325.581,53.52l8.054-7.972l-4.624,4.835C328.086,51.184,326.915,52.259,325.581,53.52z"/>
									<path fill="#D22F2F" d="M283.96,95.175l-10.684,10.624l12.826-12.901C285.167,93.918,284.435,94.727,283.96,95.175z"/>
								</g>
							</g>
						</g>
					</g>
					<g>
						<g>
							<g>
								<g>
									<path fill="#D22F2F" d="M316.649,115.044l-52.23,52.445l19.584-19.664c-9.786,9.827-18.105,18.061-28.205,27.961
										c2.891-3.135,9.453-9.505,10.86-11.241c23.94-23.95,48.167-47.769,71.672-70.911
										C329.45,103.27,323.181,108.486,316.649,115.044z"/>
									<path fill="#D22F2F" d="M229.069,202.145l7.06-7.074C233.681,197.553,231.267,199.992,229.069,202.145z"/>
									<path fill="#D22F2F" d="M268.747,180.35l-8.114,8.208C263.274,185.839,266.015,183.095,268.747,180.35z"/>
									<polygon fill="#D22F2F" points="347.164,82.726 351.448,78.298 360.771,69.054 369.701,78.071 357.114,90.529 
										369.562,78.071 360.771,69.315 354.334,75.708 									"/>
									<path fill="#D22F2F" d="M334.907,94.286c-11.208,11.24-22.668,22.569-33.485,33.052
										C312.202,116.818,323.472,105.662,334.907,94.286z"/>
									<path fill="#D22F2F" d="M313.856,262.473c-0.014-0.078,0.225,0.11,0.562,0.408c0.344,0.327,0.658,0.615,0.928,0.848
										l13.443,13.709c-1.141-1.104-2.242-2.088-3.391-3.23C320.452,269.159,319.551,267.963,313.856,262.473z"/>
									<polygon fill="#D22F2F" points="271.791,177.284 272.062,176.98 274.827,174.165 275.172,173.84 									"/>
									<path fill="#D22F2F" d="M308.106,256.686c-0.03-0.15-0.063-0.306-0.407-0.744l7.594,7.731l-0.873-0.792
										C312.679,261.225,310.08,258.503,308.106,256.686z"/>
									<path fill="#D22F2F" d="M253.231,200.732c0.129-0.133,0.207-0.273,0.297-0.434l0.033-0.059l0.211-0.239l0.404-0.455
										l0.658-0.731c4.312-4.15,8.621-8.297,13.672-13.25c0.741-0.804,2.375-2.444,3.854-4.05l3.076-2.818l-22.205,22.095
										l0.345,0.356l1.794,1.811l4.6,4.632l-4.543-4.524l-1.877-1.881l-0.382-0.394L253.231,200.732z"/>
									<path fill="#D22F2F" d="M229.208,203.618c14.725,14.545,31.305,31.772,45.896,45.709
										c-16.522-16.933-39.539-40.093-41.472-43.093c-1.937-3.002,22.94,22.848,36.062,35.914l-3.348-3.573
										c1.672,1.784,3.348,3.573,4.951,5.051c-3.346-3.569-9.963-10.399-11.705-12.493l3.209,2.957
										c-8.423-9.223-24.88-25.854-33.306-35.079c17.976,19.083,39.416,40.956,62.192,63.847l34.901,34.879l34.229,34.003
										l8.104-8.177l-10.716-10.653c-29.437-29.077-57.063-55.757-83.03-80.66c-4.878-4.738-16.39-16.322-24.611-24.631
										l-6.881-6.825l21.867-22.15l19.317-19.758c13.719-13.936,27.351-27.568,41.178-41.341l39.634-39.473l-2.261-2.253
										l-2.501-2.494l-0.131-0.122l-0.018-0.017c-0.041,0.039-0.084,0.065-0.143,0.096l-0.021,0.012
										c-0.01,0.006,0.002-0.007-0.022,0.017l-0.151,0.146l-0.603,0.574l-1.155,1.089c-1.484,1.389-2.719,2.49-3.302,2.931
										c-0.583,0.441-0.517,0.224,0.597-1.025c0.557-0.625,1.373-1.507,2.504-2.693l1.643-1.723l0.654-0.723l0.271,0.25
										l0.339,0.308l0.174,0.159l0.484,0.47l2.369,2.312l2.013,1.959l0.774,0.728l-0.592,0.627l-1.289,1.323l-3.85,3.908
										l-7.73,7.819l-15.562,15.631c1.41-1.739,7.969-8.104,10.857-11.238c-10.103,9.903-18.41,18.126-28.205,27.961
										l19.586-19.667l-52.23,52.445c-6.539,6.566-12.797,11.771-21.68,21.409c23.502-23.139,47.732-46.963,71.672-70.911
										l-0.109,0.134l29.205-29.223l-0.953,0.989l-2.369,2.396l-4.51,4.497l8.266-8.102l-3.438-3.5l-3.492-3.541l-22.822,22.688
										l22.822-23.285l7.742,7.638l-46.998,47.082c-16.142,16.126-32.152,32.132-47.527,47.656
										c12.182-11.631,27.596-27.827,38.305-37.861l-58.916,58.684l4.293-4.436l-5.248,5.125l-6.531,6.472l28.682,28.653
										l3.294,3.328l-3.294-3.328l-28.402-28.653l7.208-7.161l-7.065,7.161l11.756,11.787c-1.367-1.46-3.004-3.167-4.799-5.021
										l-6.619-6.767l3.572-3.519l19.703-19.637l-11.302,11.389l-11.575,11.766l7.473,7.299l-7.205-7.299l35.332-35.057
										l-22.506,22.63l-12.529,12.427L274,227.357l-1.483-1.461l2.938,2.924l15.128,15.187c4.565,4.548,9.104,8.95,13.631,13.308
										l2.257,2.25c-1.477-1.371-2.219-2.01,0.502,0.766c11.571,11.882,24.557,24.336,37.799,38.002
										c3.475,3.584,8.264,8.313,13.44,13.405c1.356,1.435,2.113,2.144,2.81,2.761l3.375,3.319l5.799,5.747l-1.557,1.601
										l1.588-1.601l-5.83-5.747l-3.067-3.048c0.741,0.651,1.53,1.335,3.045,2.844l-57.903-58.049l3.648,3.42l-5.904-5.67
										l-19.08-18.963c1.92,1.859,3.719,3.572,5.32,5.051l-42.676-42.608l12.363-12.427l51.021-50.604
										c-9.229,8.918-18.799,18.346-28.516,27.974c25.643-25.778,51.365-51.577,77.18-77.076
										c-4.439,4.817-10.667,11.31-13.32,14.453c0.303-0.062,8.615-8.292,3.872-3.408c-17.194,17.864-30.065,30.136-36.551,37.966
										c-1.167,1.532,19.135-17.482,12.911-10.993l-24.896,25.217l-9.23,9.17c-0.408,0.382-1.035,1.085-1.83,1.966
										c-11.076,11.134-21.648,21.714-27.545,27.531L256.711,197c-1.165,1.091-2.176,2.007-2.987,2.695l-0.351,0.377l-0.088,0.113
										l-0.169,0.217l-0.314,0.392l0.226,0.19l15.478,15.637l9.223,9.566c-0.022-0.107-0.469-0.668,0.17-0.112l21.082,21.172
										c2.795,2.903,5.336,5.604,7.545,8.037c7.996,7.247,25.352,25.069,37.627,37.235l-0.002-0.031l18.601,18.642l2.815,3.072
										c1.611,1.485,3.246,3.112,4.051,3.854l5.424,5.507l-4.388,4.313l-2.722,2.64l-6.455,6.279l-0.649,0.689l-2.505-2.337
										l-1.574-1.502l-1.309-1.275l-9.553-9.554l-10.979-11.072l-36.748-37.273c-0.341-0.438-0.375-0.592-0.414-0.751
										c-1.974-1.817-4.565-4.532-6.308-6.19c0.345,0.305,0.572,0.484,0.555,0.401c-5.686-5.481-6.584-6.676-11.543-11.735
										c-1.135-1.127-2.251-2.125-3.382-3.222l-1.64-1.674c-5.406-5.942-11.146-11.502-17.459-17.833l-18.72-19.136
										C234.294,209.279,232.558,207.191,229.208,203.618z"/>
									<path fill="#D22F2F" d="M330.423,279.102l17.461,17.836C341.571,290.609,335.833,285.052,330.423,279.102z"/>
									<path fill="#D22F2F" d="M331.271,122.484c2.438-2.211,5.144-4.757,8.043-7.547l-45.244,45.169l-0.03,0.003
										C306.2,147.838,324.024,130.479,331.271,122.484z"/>
									<path fill="#D22F2F" d="M314.42,262.881l0.873,0.792l0.054,0.056C315.078,263.496,314.765,263.208,314.42,262.881z"/>
									<path fill="#D22F2F" d="M357.744,91.41l1.456-1.449l-10.988,11.125C351.11,98.092,354.378,94.794,357.744,91.41z"/>
									<path fill="#D22F2F" d="M344.694,83.553l-22.506,22.634c-9.722,9.63-19.295,19.061-28.518,27.973L344.694,83.553z"/>
									<path fill="#D22F2F" d="M360.377,93.679l9.567-9.222l-9.455,9.392C361.039,93.216,360.481,93.659,360.377,93.679z"/>
									<polygon fill="#D22F2F" points="326.989,122.435 329.242,120.176 323.571,126.081 									"/>
									<path fill="#D22F2F" d="M348.125,74.922l6.954-6.872c-1.342,1.391-2.66,2.778-3.975,4.186
										C350.298,72.918,349.28,73.84,348.125,74.922z"/>
									<path fill="#D22F2F" d="M312.216,110.865l-9.223,9.162l11.062-11.137C313.254,109.777,312.627,110.48,312.216,110.865z"/>
								</g>
							</g>
						</g>
					</g>
					<g>
						<g>
							<g>
								<g>
									<path fill="#D22F2F" d="M246.767,341.319l-60.77-60.554l22.783,22.703c-11.385-11.345-20.936-20.98-32.426-32.67
										c3.613,3.368,11.014,10.961,12.998,12.617c27.758,27.749,55.396,55.795,82.248,83.008
										C260.492,356.073,254.362,348.891,246.767,341.319z"/>
									<path fill="#D22F2F" d="M145.776,239.852l8.2,8.184C151.101,245.191,148.274,242.393,145.776,239.852z"/>
									<path fill="#D22F2F" d="M170.416,285.688l-9.506-9.412C164.056,279.343,167.235,282.52,170.416,285.688z"/>
									<polygon fill="#D22F2F" points="284.079,376.829 289.199,381.806 299.827,392.512 289.149,403.097 274.403,388.22 
										289.149,402.955 299.563,392.512 292.127,385.027 									"/>
									<path fill="#D22F2F" d="M270.625,362.678c-13.024-12.993-26.166-26.265-38.343-38.774
										C244.496,336.377,257.435,349.429,270.625,362.678z"/>
									<path fill="#D22F2F" d="M74.94,338.396c0.085-0.021-0.138,0.251-0.487,0.641c-0.38,0.396-0.716,0.759-0.987,1.066
										l-15.868,15.604c1.284-1.317,2.432-2.586,3.757-3.916C67.198,346.048,68.561,344.979,74.94,338.396z"/>
									<polygon fill="#D22F2F" points="173.968,289.217 174.317,289.532 177.576,292.742 177.954,293.141 									"/>
									<path fill="#D22F2F" d="M81.644,331.729c0.166-0.046,0.334-0.094,0.837-0.5l-8.952,8.812l0.924-1.005
										C76.381,337.025,79.525,334.004,81.644,331.729z"/>
									<path fill="#D22F2F" d="M147.104,267.243c0.153,0.151,0.313,0.248,0.492,0.356c-0.02-0.037,0.238,0.202,0.414,0.36
										l0.522,0.472l0.844,0.771l15.39,15.812c0.928,0.864,2.828,2.758,4.68,4.483l3.285,3.544l-25.637-25.743l-0.428,0.413
										l-2.648,2.633l-5.551,5.518l5.424-5.44l2.732-2.729l0.471-0.457L147.104,267.243z"/>
									<path fill="#D22F2F" d="M143.959,240.333c-16.871,17.051-36.788,36.317-52.992,53.181
										c19.593-19.184,46.424-45.869,49.816-48.195c3.395-2.328-26.488,26.582-41.637,41.785l4.124-3.898
										c-2.059,1.945-4.124,3.898-5.846,5.746c4.121-3.896,12.019-11.581,14.417-13.629l-3.447,3.699
										c10.626-9.826,29.886-28.914,40.516-38.742c-22.058,20.945-47.408,45.865-73.965,72.311l-40.48,40.503L-5.18,392.965
										l9.798,9.729l12.35-12.409c33.729-34.089,64.725-66.035,93.673-96.046c5.503-5.642,18.923-18.99,28.546-28.527l7.908-7.968
										l25.094,24.812l22.682,22.241c16.164,15.947,31.992,31.775,47.988,47.826l46.293,46.451l6.515-6.534l0.03-0.03
										c-0.043-0.046-0.075-0.096-0.114-0.164l-2.485-2.604c-1.58-1.679-2.83-3.06-3.332-3.7c-0.5-0.641-0.254-0.544,1.157,0.733
										c0.706,0.639,1.703,1.571,3.043,2.854l2.22,2.142l0.808,0.737l-0.345,0.367l-0.356,0.388l-1.157,1.188l-2.642,2.695
										l-2.513,2.562l-0.828,0.874l-0.729-0.693l-1.857-1.824l-4.549-4.488l-9.103-9.013l-18.204-18.135
										c1.988,1.66,9.381,9.246,12.995,12.614c-11.494-11.692-21.03-21.314-32.427-32.671l22.787,22.707l-60.769-60.553
										c-7.608-7.581-13.725-14.75-24.836-25.105c26.849,27.21,54.493,55.262,82.248,83.008l-0.153-0.13l34.273,34.256
										l-4.323-4.26l-5.214-5.228l9.859,10.024l8.701-8.586l-26.373-26.506l26.965,26.506l-9.293,9.395l-110.178-109.96
										c13.523,14.074,32.232,32.002,43.916,44.358l-68.035-68.265l5.131,4.986l-5.77-5.891l-7.121-7.182l-33.381,33.406
										l-3.854,3.82l3.854-3.82l33.381-33.127l7.76,7.806l-7.76-7.667l-13.861,13.832l5.97-5.744l7.891-7.742l3.604,3.651
										l22.737,22.805l-13.002-12.916l-13.34-13.153l-8.735,8.914l8.735-8.637l40.201,40.472l-26.219-26.094l-13.982-14.082
										l-31.082,30.901l1.695-1.717l-3.389,3.402l-17.596,17.536c-5.273,5.292-10.386,10.541-15.449,15.773l-2.608,2.613
										c1.598-1.701,2.346-2.554-0.866,0.604c-13.747,13.437-28.223,28.442-44.028,43.825c-4.146,4.035-9.633,9.581-15.541,15.576
										c-1.656,1.577-2.481,2.45-3.203,3.251l-3.851,3.907l-6.561,6.608l-2.007-1.96l2.007,1.993l6.561-6.643l3.533-3.554
										c-0.762,0.852-1.562,1.757-3.311,3.512l67.267-67.122l-3.983,4.212l6.592-6.825l21.986-22.106
										c-2.16,2.222-4.152,4.3-5.874,6.147l49.708-49.777l13.982,13.921l58.686,59.102
										c-10.361-10.671-21.301-21.752-32.467-33.008c29.866,29.73,59.762,59.551,89.342,89.442
										c-5.555-5.176-13.058-12.414-16.662-15.528c0.092,0.331,9.637,9.96,3.987,4.451c-20.651-19.98-34.923-34.851-43.892-42.475
										c-1.746-1.382,20.394,22.045,12.894,14.811l-29.2-28.88l-10.635-10.694c-0.445-0.471-1.254-1.202-2.27-2.132
										c-12.898-12.842-25.16-25.096-31.907-31.924l-7.47-7.556c-1.271-1.345-2.338-2.509-3.146-3.44l-0.433-0.406
										c-0.094-0.09-0.096-0.088-0.116-0.104l-0.06-0.047l-0.225-0.183l-0.412-0.34l-0.304,0.352l-18.748,18.591l-11.061,10.715
										c0.119-0.032,0.758-0.56,0.108,0.175l-24.53,24.441c-3.358,3.249-6.474,6.206-9.277,8.784
										c-8.458,9.207-29.077,29.359-43.187,43.58l0.034-0.007L18.529,395.04l-3.541,3.283c-1.732,1.857-3.619,3.752-4.483,4.68
										l-5.887,5.809l-4.96-5.036l-2.898-2.983l-7.213-7.394l-0.454-0.434l2.808-2.982l1.799-1.881l1.235-1.271l11.073-11.072
										l12.826-12.73l43.159-42.634c0.499-0.402,0.668-0.451,0.843-0.507c2.12-2.273,5.257-5.289,7.184-7.301
										c-0.355,0.396-0.568,0.657-0.477,0.63c6.371-6.572,7.73-7.638,13.586-13.394c1.309-1.313,2.474-2.599,3.747-3.907
										l1.937-1.902c6.846-6.309,13.303-12.945,20.639-20.266l22.146-21.729C137.443,246.273,139.835,244.23,143.959,240.333z"/>
									<path fill="#D22F2F" d="M55.671,357.601l-20.642,20.27C42.362,370.553,48.819,363.915,55.671,357.601z"/>
									<path fill="#D22F2F" d="M237.854,357.783c2.582,2.807,5.545,5.929,8.787,9.279l-52.357-52.431l-0.006-0.033
										C208.489,328.702,228.646,349.324,237.854,357.783z"/>
									<path fill="#D22F2F" d="M74.454,339.037l-0.924,1.005l-0.063,0.062C73.738,339.796,74.074,339.434,74.454,339.037z"/>
									<path fill="#D22F2F" d="M273.504,388.83l1.681,1.687L262.3,377.771C265.763,381.14,269.582,384.927,273.504,388.83z"/>
									<path fill="#D22F2F" d="M282.989,374.098l-26.223-26.096c-11.17-11.259-22.109-22.344-32.465-33.008L282.989,374.098z"/>
									<path fill="#D22F2F" d="M271.265,391.492l10.715,11.061l-10.89-10.952C271.815,392.244,271.293,391.607,271.265,391.492z"
										/>
									<polygon fill="#D22F2F" points="237.565,353.164 240.185,355.775 233.358,349.184 									"/>
									<path fill="#D22F2F" d="M292.579,378.485l7.971,8.055l-4.834-4.624C294.915,380.991,293.84,379.82,292.579,378.485z"/>
									<path fill="#D22F2F" d="M250.924,336.865L240.3,326.181l12.901,12.826C252.181,338.071,251.372,337.339,250.924,336.865z"
										/>
								</g>
							</g>
						</g>
					</g>
					<g>
						<g>
							<g>
								<g>
									<path fill="#D22F2F" d="M231.056,369.555l-52.445-52.229l19.664,19.583c-9.828-9.786-18.062-18.106-27.961-28.204
										c3.133,2.89,9.504,9.453,11.24,10.86c23.949,23.939,47.768,48.166,70.91,71.671
										C242.828,382.354,237.612,376.085,231.056,369.555z"/>
									<path fill="#D22F2F" d="M143.954,281.977l7.074,7.059C148.546,286.585,146.106,284.171,143.954,281.977z"/>
									<path fill="#D22F2F" d="M165.749,321.65l-8.208-8.113C160.261,316.178,163.004,318.918,165.749,321.65z"/>
									<polygon fill="#D22F2F" points="263.372,400.068 267.8,404.354 277.045,413.677 268.028,422.604 255.569,410.017 
										268.028,422.465 276.783,413.677 270.392,407.238 									"/>
									<path fill="#D22F2F" d="M251.812,387.812c-11.24-11.209-22.568-22.669-33.051-33.485
										C229.278,365.106,240.437,376.376,251.812,387.812z"/>
									<path fill="#D22F2F" d="M83.628,366.759c0.078-0.014-0.111,0.225-0.409,0.562c-0.327,0.344-0.615,0.657-0.847,0.927
										l-13.709,13.444c1.105-1.141,2.088-2.243,3.231-3.392C76.941,373.354,78.137,372.452,83.628,366.759z"/>
									<polygon fill="#D22F2F" points="168.815,324.694 169.119,324.964 171.935,327.729 172.259,328.075 									"/>
									<path fill="#D22F2F" d="M89.414,361.009c0.151-0.031,0.306-0.063,0.746-0.408l-7.733,7.595l0.792-0.873
										C84.875,365.58,87.597,362.981,89.414,361.009z"/>
									<path fill="#D22F2F" d="M145.365,306.135c0.133,0.129,0.274,0.207,0.433,0.296l0.06,0.033l0.239,0.213l0.455,0.404
										l0.732,0.658c4.15,4.312,8.298,8.621,13.249,13.672c0.804,0.741,2.444,2.375,4.05,3.854l2.818,3.075l-22.097-22.204
										l-0.357,0.343l-1.809,1.793l-4.631,4.6l4.525-4.542l1.88-1.877l0.393-0.381L145.365,306.135z"/>
									<path fill="#D22F2F" d="M142.48,282.113c-14.544,14.724-31.773,31.304-45.709,45.896
										c16.933-16.521,40.093-39.538,43.092-41.471c3.003-1.937-22.847,22.94-35.914,36.062l3.574-3.349
										c-1.784,1.672-3.574,3.349-5.051,4.951c3.571-3.345,10.4-9.962,12.493-11.705l-2.957,3.209
										c9.223-8.422,25.853-24.88,35.079-33.306c-19.084,17.976-40.955,39.416-63.846,62.192l-34.879,34.901L14.36,413.723
										l8.174,8.104l10.657-10.718c29.076-29.438,55.755-57.065,80.658-83.03c4.738-4.878,16.322-16.39,24.631-24.613l6.824-6.879
										l22.15,21.868l19.759,19.318c13.937,13.718,27.567,27.351,41.341,41.177l39.475,39.634l2.254-2.26l2.492-2.5l0.121-0.131
										l0.019-0.019c-0.039-0.04-0.065-0.082-0.097-0.141l-0.012-0.022c-0.007-0.009,0.006,0.002-0.017-0.021l-0.146-0.152
										l-0.574-0.602l-1.09-1.156c-1.39-1.485-2.49-2.719-2.933-3.302c-0.44-0.583-0.224-0.518,1.024,0.596
										c0.625,0.557,1.508,1.375,2.693,2.504l1.725,1.645l0.723,0.653l-0.249,0.271l-0.31,0.339l-0.158,0.174l-0.469,0.483
										l-2.313,2.37l-1.959,2.012l-0.728,0.773l-0.627-0.592l-1.323-1.29l-3.908-3.849l-7.817-7.731l-15.633-15.562
										c1.739,1.41,8.104,7.969,11.238,10.856c-9.902-10.102-18.126-18.41-27.961-28.204l19.667,19.586l-52.445-52.229
										c-6.565-6.539-11.771-12.797-21.409-21.68c23.139,23.501,46.963,47.731,70.91,71.671l-0.134-0.11l29.224,29.206
										l-0.988-0.954l-2.396-2.368l-4.497-4.511l8.103,8.267l3.5-3.438l3.541-3.49l-22.688-22.824l23.285,22.824l-7.638,7.738
										l-47.082-46.997c-16.127-16.141-32.133-32.152-47.656-47.526c11.632,12.182,27.826,27.595,37.861,38.304l-58.686-58.915
										l4.438,4.293l-5.125-5.248l-6.473-6.533l-28.653,28.681l-3.327,3.294l3.327-3.294l28.653-28.4l7.161,7.209l-7.161-7.066
										l-11.786,11.755c1.46-1.368,3.167-3.005,5.021-4.8l6.765-6.618l3.521,3.575l19.635,19.702l-11.39-11.303l-11.766-11.575
										l-7.298,7.471l7.298-7.203l35.059,35.332l-22.631-22.505l-12.428-12.53L118.741,326.9l1.461-1.482l-2.923,2.938
										l-15.186,15.128c-4.549,4.565-8.951,9.104-13.307,13.631l-2.25,2.256c1.372-1.477,2.01-2.218-0.765,0.502
										c-11.882,11.572-24.335,24.556-38.001,37.8c-3.584,3.475-8.315,8.263-13.406,13.44c-1.434,1.355-2.143,2.112-2.761,2.809
										l-3.319,3.376l-5.749,5.8l-1.599-1.555l1.599,1.586l5.749-5.831l3.047-3.067c-0.652,0.74-1.334,1.529-2.843,3.045
										l58.048-57.903l-3.421,3.648l5.671-5.904l18.961-19.082c-1.859,1.921-3.572,3.72-5.049,5.322l42.606-42.676l12.429,12.365
										l50.604,51.021c-8.918-9.229-18.346-18.8-27.975-28.517c25.777,25.644,51.576,51.365,77.076,77.18
										c-4.816-4.44-11.31-10.667-14.453-13.32c0.062,0.302,8.291,8.615,3.408,3.872c-17.863-17.194-30.137-30.064-37.967-36.55
										c-1.531-1.168,17.482,19.134,10.993,12.909l-25.217-24.896l-9.171-9.231c-0.383-0.406-1.086-1.033-1.967-1.829
										c-11.133-11.075-21.713-21.647-27.529-27.545l-6.438-6.524c-1.092-1.165-2.008-2.177-2.695-2.988l-0.378-0.352
										l-0.114-0.088l-0.215-0.169l-0.392-0.314l-0.191,0.225l-15.635,15.478l-9.567,9.222c0.108-0.021,0.668-0.469,0.113,0.17
										L98.853,351.88c-2.905,2.796-5.604,5.336-8.038,7.545c-7.246,7.996-25.068,25.353-37.234,37.628l0.031-0.003
										l-18.641,18.602l-3.073,2.813c-1.485,1.612-3.113,3.247-3.854,4.053l-5.509,5.426l-4.312-4.387l-2.639-2.723l-6.277-6.455
										l-0.691-0.649l2.335-2.505l1.5-1.573l1.276-1.31l9.553-9.553l11.073-10.978l37.274-36.748
										c0.437-0.343,0.591-0.375,0.75-0.415c1.818-1.973,4.533-4.564,6.19-6.308c-0.304,0.345-0.484,0.573-0.401,0.555
										c5.483-5.686,6.675-6.583,11.735-11.543c1.128-1.134,2.125-2.25,3.222-3.383l1.674-1.64
										c5.943-5.405,11.502-11.144,17.833-17.458l19.136-18.719C136.819,287.199,138.906,285.462,142.48,282.113z"/>
									<path fill="#D22F2F" d="M66.998,383.323l-17.835,17.462C55.49,394.474,61.049,388.734,66.998,383.323z"/>
									<path fill="#D22F2F" d="M223.614,384.175c2.212,2.438,4.758,5.143,7.548,8.041l-45.169-45.243l-0.004-0.029
										C198.261,359.104,215.619,376.928,223.614,384.175z"/>
									<path fill="#D22F2F" d="M83.219,367.321l-0.792,0.873l-0.055,0.054C82.604,367.979,82.892,367.665,83.219,367.321z"/>
									<path fill="#D22F2F" d="M254.688,410.646l1.449,1.455l-11.125-10.987C248.007,404.014,251.306,407.279,254.688,410.646z"/>
									<path fill="#D22F2F" d="M262.545,397.6l-22.633-22.507c-9.632-9.721-19.062-19.294-27.974-28.517L262.545,397.6z"/>
									<path fill="#D22F2F" d="M252.42,413.279l9.222,9.565l-9.392-9.453C252.883,413.941,252.438,413.385,252.42,413.279z"/>
									<polygon fill="#D22F2F" points="223.664,379.892 225.923,382.145 220.019,376.474 									"/>
									<path fill="#D22F2F" d="M271.176,401.029l6.872,6.954c-1.393-1.344-2.777-2.661-4.186-3.976
										C273.181,403.202,272.259,402.186,271.176,401.029z"/>
									<path fill="#D22F2F" d="M235.233,365.12l-9.162-9.223l11.137,11.062C236.321,366.158,235.618,365.531,235.233,365.12z"/>
								</g>
							</g>
						</g>
					</g>
				</g>
			</g>
		</g>
		<g>
			<path d="M108.681,245.32c-1.559-1.445-2.84-0.955-2.84,1.082v19.254c0,2.037,1.281,2.525,2.84,1.085l8.793-8.093
				c1.564-1.437,1.564-3.797,0-5.236L108.681,245.32z"/>
			<path d="M146.749,184.055c-9.088,0-16.449,7.364-16.449,16.443c0,9.085,7.361,16.441,16.449,16.441
				c9.078,0,16.441-7.356,16.441-16.441C163.19,191.419,155.827,184.055,146.749,184.055z"/>
			<path d="M185.948,154.095v-0.002v-46.892V107.2c0-1.545-1.252-2.795-2.795-2.795h-74.518c-1.543,0-2.795,1.25-2.795,2.795v22.823
				h0.014c0.061,1.488,1.275,2.678,2.781,2.678h0.004l-0.004,0.006h53.561c1.992,0,3.619,1.629,3.619,3.623v17.766l0.004,0.005
				c0.002,1.525,1.23,2.757,2.748,2.781l0.007,0.006h14.577C184.696,156.888,185.948,155.636,185.948,154.095z"/>
			<path d="M108.646,206.593c0.736,0,1.4-0.29,1.902-0.758h0.01l0.037-0.04c0.014-0.014,0.031-0.027,0.047-0.045l35.992-36.692
				c1.393-1.425,3.734-1.495,5.207-0.155l29.535,26.494l0.016-0.004c0.48,0.395,1.09,0.641,1.762,0.641
				c1.543,0,2.796-1.252,2.796-2.792v-24.232c0-0.821-0.361-1.553-0.929-2.062l0.004-0.009l-7.338-6.434h-12.688
				c-1.545,0-2.797-1.25-2.797-2.792v-10.717c-7.018-6.12-12.912-11.249-12.912-11.249c-1.471-1.337-3.816-1.269-5.209,0.152
				l-37.453,37.635l-0.018,0.037c-0.469,0.501-0.762,1.167-0.762,1.907l-0.008,28.449l0.027,0.068
				C105.97,205.441,107.165,206.593,108.646,206.593z"/>
			<path d="M135.241,280.578l0.031-0.012l0.088-0.086c0.008-0.008,0.02-0.019,0.029-0.027l12.314-11.916l37.455-37.635l0.019-0.037
				c0.469-0.498,0.76-1.168,0.76-1.906l0.012-28.451l-0.027-0.064c-0.104-1.45-1.299-2.601-2.777-2.601
				c-0.735,0-1.401,0.29-1.904,0.757h-0.01l-0.037,0.043c-0.016,0.017-0.03,0.028-0.045,0.045l-35.992,36.693
				c-1.393,1.421-3.736,1.492-5.209,0.15L110.41,209.04l-0.012,0.003c-0.484-0.395-1.092-0.643-1.764-0.643
				c-1.543,0-2.793,1.254-2.793,2.797l-0.002,24.228c0,0.824,0.361,1.556,0.928,2.068l-0.004,0.007l16.965,15.674
				c1.494,1.314,1.596,3.566,0.225,5.008l-17.299,18.342l0,0c-0.502,0.506-0.814,1.201-0.814,1.965c0,1.548,1.252,2.798,2.795,2.798
				h24.768C134.112,281.285,134.753,281.014,135.241,280.578z"/>
		</g>
	</g>
	<g>
		<path d="M102.765,344.155H90.048v34.713h-3.051v-34.713H73.846v-2.615h28.919V344.155z"/>
		<path d="M126.661,362.075h-14.613v11.818h17.228v4.975h-23.458V341.54h23.279v5h-17.049v10.536h14.613V362.075z"/>
		<path d="M142.917,363.896h-2.41v14.973h-8.666V341.54h8.666v14.613h1.794l8.434-14.613h10.896l-11.742,16.972l12.742,20.356
			h-11.127L142.917,363.896z"/>
		<path d="M189.3,363.562c0,4.562-1.432,8.345-4.295,11.345c-2.861,2.999-6.584,4.499-11.164,4.499c-4.461,0-8.094-1.5-10.896-4.499
			c-2.803-3-4.203-6.781-4.203-11.345v-6.718c0-4.546,1.396-8.322,4.191-11.332c2.795-3.008,6.43-4.512,10.908-4.512
			c4.562,0,8.28,1.504,11.152,4.512c2.871,3.01,4.307,6.786,4.307,11.332V363.562L189.3,363.562z M183.069,356.794
			c0-3.11-0.828-5.665-2.486-7.665s-3.906-3-6.742-3c-2.752,0-4.918,1-6.5,3c-1.58,2-2.371,4.555-2.371,7.665v6.77
			c0,3.146,0.795,5.722,2.385,7.729c1.59,2.009,3.752,3.013,6.486,3.013c2.854,0,5.105-1,6.756-3
			c1.648-1.999,2.473-4.58,2.473-7.741V356.794L183.069,356.794z"/>
		<path d="M211.046,368.459h-16.383l-3.77,10.409h-3.179l13.716-37.328h2.896l13.613,37.328h-3.18L211.046,368.459z
			 M195.638,365.716h14.408l-7.076-19.792h-0.154L195.638,365.716z"/>
	</g>
</g>
</svg>
